<svg id="Warstwa_1" data-name="Warstwa 1" xmlns="http://www.w3.org/2000/svg" xmlns:xlink="http://www.w3.org/1999/xlink" viewBox="0 0 1200 400"><defs><style>.cls-1{fill:#fff;stroke:#000;stroke-width:6.9px;}.cls-1,.cls-4{stroke-miterlimit:10;}.cls-2,.cls-4{font-size:220px;font-family:SegoeScript-Bold, Segoe Script;font-weight:700;letter-spacing:0.1em;}.cls-3{fill:url(#Spectrum_);}.cls-4{fill:none;stroke:#1d1d1b;stroke-width:3px;}</style><linearGradient id="Spectrum_" x1="265.98" y1="174" x2="957.18" y2="174" gradientUnits="userSpaceOnUse"><stop offset="0" stop-color="#00a0db"/><stop offset="0.2" stop-color="#362983"/><stop offset="0.4" stop-color="#e4007d"/><stop offset="0.6" stop-color="#e31f21"/><stop offset="0.8" stop-color="#ffe900"/><stop offset="1" stop-color="#009447"/></linearGradient></defs><title>easy</title><rect class="cls-1" x="7.5" y="37" width="1186" height="300" rx="92.12"/><text class="cls-2" transform="translate(250.84 262.3)">EASY</text><path class="cls-3" d="M386,126q-7.52.1-16.75.54t-18.91,1.23q-9.68.81-19.12,2t-17.62,3.06a2.36,2.36,0,0,0-1.66,1.4,9.43,9.43,0,0,0-.86,2.79c-.18,1.08-.33,2.21-.43,3.39s-.24,2.24-.38,3.17c-.43,2.5-1,5.21-1.66,8.11s-1.37,5.89-2,9-1.35,6.16-2,9.23a83.3,83.3,0,0,0-1.4,9c2.65,0,5.78-.15,9.4-.43s7.25-.63,10.9-1,7.08-.82,10.26-1.29,5.68-.91,7.47-1.34q7.51-1.83,13.7-2.8a68.93,68.93,0,0,1,10.25-1,44.55,44.55,0,0,1,6.77.48,17.3,17.3,0,0,1,5.37,1.66,9.4,9.4,0,0,1,3.55,3.12,8.52,8.52,0,0,1,1.29,4.83q0,5.49-2.37,8.17a14.32,14.32,0,0,1-6.71,4,56.27,56.27,0,0,1-10.53,2q-6.18.65-13.91,1.94c-2.72.43-6.12.87-10.2,1.34s-8.31,1-12.68,1.5-8.56,1.11-12.57,1.72a71.2,71.2,0,0,0-9.88,2.1h-.11a4,4,0,0,0-2.31,1.66,13.72,13.72,0,0,0-1.45,4.35q-.75,3.56-1.5,7.84t-1.35,8.38c-.39,2.73-.71,5.25-1,7.58s-.38,4.13-.38,5.42c.36,1.86,1,3,2,3.38a7.66,7.66,0,0,0,2.95.6c1.22,0,3.46-.17,6.72-.49s7-.75,11.33-1.29,8.84-1.12,13.64-1.77,9.37-1.29,13.7-1.93L357.08,236c3.36-.5,5.73-.9,7.09-1.18q7.08-1.52,12.4-2.31a61.27,61.27,0,0,1,6.83-.81c4.29.58,7.64,1.95,10,4.14a11,11,0,0,1,3.6,8.54,12.06,12.06,0,0,1-.7,4.08,8,8,0,0,1-2.52,3.44,61.91,61.91,0,0,1-14.88,4.35,149.13,149.13,0,0,1-14.88,1.66c-3.22.22-6.86.52-10.9.92s-8.15.86-12.3,1.39l-12,1.56c-3.83.5-7.22,1-10.15,1.4q-3.56.75-7.9,1.45t-9,1.29c-3.12.39-6.23.69-9.35.91s-6.1.32-9,.32a32.27,32.27,0,0,1-6.28-.59,13.23,13.23,0,0,1-5.26-2.26,11.87,11.87,0,0,1-3.76-4.67,22.39,22.39,0,0,1-1.88-7.73l-.33-3.55a8.53,8.53,0,0,1,.49-2.58c.32-1,.75-2.32,1.29-4s1.12-3.69,1.77-6.12,1.32-5.37,2-8.81c.71-3.65,1.4-7.47,2-11.44s1.25-8,1.83-12,1.12-7.93,1.66-11.76,1-7.43,1.45-10.8q1.62-11.82,2.74-19.71T283.17,148c.5-3.55.86-6.5,1.08-8.87s.32-4.62.32-6.76a3.65,3.65,0,0,0-.7-.81,15.77,15.77,0,0,1-2.1-3.49,19.8,19.8,0,0,1-1.82-4.67,16.3,16.3,0,0,1-.32-3.17c0-.57,0-1.08.05-1.51a6.72,6.72,0,0,1,.38-1.61,4.39,4.39,0,0,1,1.5-2.36,15.65,15.65,0,0,1,3.06-2.15,21.08,21.08,0,0,1,3.87-1.61,13.66,13.66,0,0,1,4-.65l3.54.17,2.2.1,1.83.11c.61,0,1.49.13,2.63.27q3,0,9.72-.65t15-1.61q8.26-1,17.08-2.09t16.17-2.1q7.35-1,12.13-1.55c3.19-.4,4.86-.59,5-.59a8.21,8.21,0,0,1,1.5-.11h1.83a32.82,32.82,0,0,1,9.67,1.13,12.17,12.17,0,0,1,5.26,2.95,8.09,8.09,0,0,1,2.15,4,23.23,23.23,0,0,1,.43,4.35,6.59,6.59,0,0,1-1.07,3.22,18.22,18.22,0,0,1-2.64,3.44,23.48,23.48,0,0,1-3.33,2.85,9.45,9.45,0,0,1-3.17,1.55Z"/><path class="cls-3" d="M604.23,251.34a13.14,13.14,0,0,1-1,4.89,14.35,14.35,0,0,1-2.74,4.35,14.08,14.08,0,0,1-4.14,3.11,11.31,11.31,0,0,1-5.15,1.19,14.77,14.77,0,0,1-8.17-2.69,43.35,43.35,0,0,1-8.06-7,90.94,90.94,0,0,1-7.68-9.72q-3.71-5.37-7-10.74t-6.13-10.15q-2.79-4.78-4.83-7.9-3.44.23-9.77,1t-14,1.77q-7.64,1-15.84,2.15t-15.53,2.26q-7.31,1.13-12.94,2.09c-3.76.65-6.43,1.18-8,1.61q-4.62,5.91-9.46,12.41t-10,13.48c-.86,1.29-1.82,2.62-2.9,4a23.64,23.64,0,0,1-3.65,3.7,18.86,18.86,0,0,1-4.57,2.74,14.18,14.18,0,0,1-5.64,1.08,8.41,8.41,0,0,1-4.13-1.35,22.31,22.31,0,0,1-4.3-3.27,23,23,0,0,1-3.38-4.14,7.57,7.57,0,0,1-1.4-3.92q0-1.19,1.83-4.57a66.31,66.31,0,0,1,4.62-7.25c.14-.21.93-1.23,2.36-3.06s3.2-4.1,5.32-6.82l6.82-8.81c2.43-3.15,4.73-6.08,6.87-8.81s4-5,5.43-6.93,2.31-2.95,2.52-3.16Q469,191,477.8,177.92t17.08-25.84c1-1.57,1.93-3,2.79-4.29s1.75-2.58,2.69-3.87l2.95-4.08,3.6-5q3.76-5,7.3-10.42A83.55,83.55,0,0,0,520.55,113a19,19,0,0,1,6.77-8.32q4.29-2.85,11.06-2.85a6.93,6.93,0,0,1,5.48,2.68,25.06,25.06,0,0,1,4,7.2,72.43,72.43,0,0,1,3,10.48q1.29,6,2.48,12.56t2.41,13.48q1.23,6.89,2.85,13.22,1.83,7.2,4,14.61a133.93,133.93,0,0,0,4.89,13.85q4.83-.85,8-1.55a27.82,27.82,0,0,1,5.91-.7c2.94,0,5.26.07,7,.21a10.4,10.4,0,0,1,4,1,3.77,3.77,0,0,1,1.88,2.37,15.87,15.87,0,0,1,.43,4.13,8.51,8.51,0,0,1-1.66,5.16,15.92,15.92,0,0,1-4.41,4,29.13,29.13,0,0,1-6.18,2.9,58.21,58.21,0,0,1-7,1.94c.65,1.29,1.2,2.41,1.67,3.38s.91,1.9,1.34,2.79.86,1.81,1.29,2.74,1,2,1.61,3.12q2.14,3.87,4.57,7.57a55.27,55.27,0,0,0,4.88,6.5c.43.43,1.06,1,1.88,1.83s1.72,1.68,2.69,2.68,2,2.06,3,3.17,2,2.19,2.84,3.22a24.11,24.11,0,0,1,2.1,2.91A4.6,4.6,0,0,1,604.23,251.34Zm-90.66-50.49c2.36-.36,4.9-.71,7.63-1.07s5.37-.75,7.95-1.18,5-.88,7.19-1.35a50.88,50.88,0,0,0,5.59-1.45c-.29-1.29-.61-2.7-1-4.24s-.71-3.08-1.07-4.62-.7-3-1-4.4-.59-2.6-.81-3.6q-1.93-10.09-3.65-22t-2.58-23.53c-1.36,2.15-2.78,4.55-4.24,7.2s-3,5.32-4.46,8-3,5.34-4.51,7.95-2.94,5-4.3,7q-2.9,4.39-6.18,9.29t-6.55,10q-3.27,5.1-6.44,10.15t-5.86,9.88q5.91-.31,12-.86c4.09-.35,8.2-.75,12.36-1.18Z"/><path class="cls-3" d="M772.54,128.13a18,18,0,0,1-1.5,7.3,20.92,20.92,0,0,1-3.87,6,19.63,19.63,0,0,1-5.21,4,11.58,11.58,0,0,1-5.42,1.51,3.18,3.18,0,0,1-2-.6,3.66,3.66,0,0,1-1.13-1.39,5.52,5.52,0,0,1-.49-1.67,11.28,11.28,0,0,1-.1-1.29,11.87,11.87,0,0,1,.43-3.76,7.57,7.57,0,0,0,.43-2.57,3.07,3.07,0,0,0-1.67-2.58,14.07,14.07,0,0,0-4.4-1.72,46.47,46.47,0,0,0-6.29-1c-2.36-.21-4.8-.32-7.3-.32a88.9,88.9,0,0,0-11.07.81c-4.22.53-8.56,1.29-13,2.25a123.39,123.39,0,0,0-13.16,3.65,73,73,0,0,0-11.61,5,31.54,31.54,0,0,0-8.21,6.18,10.65,10.65,0,0,0-3.12,7.35,7.15,7.15,0,0,0,.91,3.33,15.91,15.91,0,0,0,2.48,3.39,30.12,30.12,0,0,0,3.54,3.22,39,39,0,0,0,4.14,2.85q4.29,2.47,8.54,4.56c2.82,1.4,5.8,2.71,8.91,3.92s6.43,2.39,9.94,3.5,7.34,2.23,11.49,3.38a159,159,0,0,1,20.68,7.09,67.34,67.34,0,0,1,15,8.65,34.46,34.46,0,0,1,9.18,10.47,25.75,25.75,0,0,1,3.12,12.57,20.26,20.26,0,0,1-1.72,7.3,55.38,55.38,0,0,1-4.56,8.81,67.74,67.74,0,0,1-6.66,8.81,48.88,48.88,0,0,1-8,7.31,89.9,89.9,0,0,1-26.15,12.62,111.05,111.05,0,0,1-32.07,4.35c-3.72,0-7.48-.15-11.28-.43s-7.36-.65-10.69-1.08-6.32-.89-9-1.39-4.69-.93-6.12-1.29a44.42,44.42,0,0,1-4.94-1.61,18.67,18.67,0,0,1-4.46-2.47,12,12,0,0,1-3.22-3.66,10.56,10.56,0,0,1-1.24-5.37,6.59,6.59,0,0,1,.7-2.79,9.61,9.61,0,0,1,2.1-2.85,12,12,0,0,1,3.38-2.25,10.79,10.79,0,0,1,4.56-.92,35.09,35.09,0,0,1,6.13.65q3.54.65,7.52,1.5,6.12,1.29,13.1,2.42A99.28,99.28,0,0,0,694.88,251a57.54,57.54,0,0,0,11-1.08,84.79,84.79,0,0,0,10.91-2.84A86.33,86.33,0,0,0,726.89,243a69.28,69.28,0,0,0,8.7-4.88,24.77,24.77,0,0,0,3.76-3.12,28.4,28.4,0,0,0,3.28-3.92,21.77,21.77,0,0,0,2.3-4.24,10.64,10.64,0,0,0,.86-4,6,6,0,0,0-2.2-4.24,26.67,26.67,0,0,0-5.64-4,78.82,78.82,0,0,0-7.52-3.6q-4.08-1.73-7.73-3c-2.44-.86-4.6-1.58-6.5-2.15s-3.13-1-3.71-1.18c-2.5-.93-5.19-1.9-8-2.9s-5.73-2-8.6-3.06-5.6-2.08-8.21-3.12-4.93-2-6.93-2.95q-16.34-7.74-25.14-17.51t-8.81-20.73a24.31,24.31,0,0,1,4.57-14.4,45.44,45.44,0,0,1,12.14-11.49,88.94,88.94,0,0,1,17.24-8.81,155.38,155.38,0,0,1,19.87-6.23,169.61,169.61,0,0,1,20.14-3.65,152.57,152.57,0,0,1,17.89-1.19q3.23,0,7,.33a54.51,54.51,0,0,1,7.58,1.18,44.68,44.68,0,0,1,7.25,2.31,25.07,25.07,0,0,1,6.17,3.6,16.68,16.68,0,0,1,4.3,5.1A14.3,14.3,0,0,1,772.54,128.13Z"/><path class="cls-3" d="M957.18,86.13a15.44,15.44,0,0,1-.22,2.09,23,23,0,0,1-.53,2.63,76.78,76.78,0,0,1-7.79,13.32q-5.1,7.2-11.28,14.93t-12.78,15.74q-6.62,8-12.2,15.74c-1.5,2.08-2.88,4.13-4.13,6.17s-2.89,4.64-4.89,7.79l-2.26,3.66-3,4.78c-1,1.68-2.09,3.33-3.17,4.94s-2,3-2.9,4.13q-.86,14-1.5,28.52t-1.51,29.92q-.54,7.84-.75,12.51a36,36,0,0,1-.54,5.86,10.49,10.49,0,0,1-5.31,7.2,20.16,20.16,0,0,1-9.94,2.36,9,9,0,0,1-4.83-1.4,15.35,15.35,0,0,1-3.92-3.43,17.52,17.52,0,0,1-2.64-4.35,11.18,11.18,0,0,1-1-4.25c0-1.21.07-2.9.21-5.05s.34-4.52.59-7.14.5-5.37.75-8.27.52-5.71.81-8.43.55-5.25.81-7.58.44-4.2.59-5.64q1.06-10.51,1.61-17.45c.36-4.62.53-8.08.53-10.37a18.65,18.65,0,0,0-.32-3.54,14.58,14.58,0,0,0-.86-3,60.56,60.56,0,0,1-10.2-7.68q-5-4.58-9.35-9.4c-.79-.93-1.82-2.13-3.11-3.6l-4.08-4.67q-2.16-2.47-4.3-5c-1.44-1.72-2.72-3.3-3.87-4.73s-2.08-2.59-2.79-3.49a5.93,5.93,0,0,1-1.08-1.56q-3.75-4.4-7.25-8.11t-6.12-6.71a67.51,67.51,0,0,1-4.24-5.27,6.92,6.92,0,0,1-1.61-3.65,7.25,7.25,0,0,1,1.71-4.13A17.41,17.41,0,0,1,814.2,106a18.38,18.38,0,0,1,5.69-2.2,26.75,26.75,0,0,1,4.09-.38,12.63,12.63,0,0,1,6.12,1.66,33.64,33.64,0,0,1,6.55,5,98.88,98.88,0,0,1,7.74,8.49q4.18,5.1,9.56,11.87,9.45,11.92,16.27,18.91t10.37,8.16c-.15-.07.32-.93,1.39-2.58s2.54-3.79,4.41-6.44,4-5.66,6.39-9,4.87-6.82,7.41-10.36,5-7,7.47-10.37,4.6-6.39,6.5-9.08,3.43-4.85,4.62-6.49,1.77-2.51,1.77-2.58q2.58-3.43,5.26-7.09t5.48-7.63l2.69-4a13.87,13.87,0,0,1,2.57-2.95,9.48,9.48,0,0,1,3.12-1.77,12.36,12.36,0,0,1,4.08-.6,16.52,16.52,0,0,1,8.06,1.83,10.05,10.05,0,0,1,4,3.38A7.77,7.77,0,0,1,957.18,86.13Z"/><text class="cls-4" transform="translate(250.84 262.3)">EASY</text></svg>