<svg id="Warstwa_1" data-name="Warstwa 1" xmlns="http://www.w3.org/2000/svg" xmlns:xlink="http://www.w3.org/1999/xlink" viewBox="0 0 1200 400"><defs><style>.cls-1{fill:#fff;stroke:#000;stroke-width:6.9px;}.cls-1,.cls-4{stroke-miterlimit:10;}.cls-2,.cls-4{font-size:220px;font-family:SegoeScript-Bold, Segoe Script;font-weight:700;letter-spacing:0.1em;}.cls-3{fill:url(#Spectrum_);}.cls-4{fill:none;stroke:#1d1d1b;stroke-width:3px;}</style><linearGradient id="Spectrum_" x1="219.09" y1="183.34" x2="993" y2="183.34" gradientUnits="userSpaceOnUse"><stop offset="0" stop-color="#00a0db"/><stop offset="0.2" stop-color="#362983"/><stop offset="0.4" stop-color="#e4007d"/><stop offset="0.6" stop-color="#e31f21"/><stop offset="0.8" stop-color="#ffe900"/><stop offset="1" stop-color="#009447"/></linearGradient></defs><title>hard</title><rect class="cls-1" x="7.5" y="37" width="1186" height="300" rx="92.12"/><text class="cls-2" transform="translate(200.94 262.3)">HARD</text><path class="cls-3" d="M381,105.68a32.24,32.24,0,0,1-1.34,8.54q-1.35,4.77-2.74,9.61c-.15.43-.43,1.54-.86,3.33s-1,3.92-1.56,6.39-1.25,5.12-1.93,7.95-1.33,5.52-1.94,8.06-1.14,4.78-1.61,6.71-.77,3.22-.91,3.87q-1,4.52-1.83,9.77t-1.39,10.69q-.54,5.43-.86,10.74t-.33,10c0,2.51-.05,5.44-.16,8.81s-.16,6.69-.16,10a75.64,75.64,0,0,0,.48,8.81c.33,2.72.68,5.33,1.08,7.84s.75,4.94,1.07,7.3a52.15,52.15,0,0,1,.49,7.2,17,17,0,0,1-1.4,7.2,13.25,13.25,0,0,1-3.87,4.94,17.09,17.09,0,0,1-5.8,2.9,25.89,25.89,0,0,1-7.2,1,8,8,0,0,1-6.28-2.58,17.51,17.51,0,0,1-3.54-6.34,35.26,35.26,0,0,1-1.62-8q-.37-4.18-.37-7.41v-4c0-1.71,0-3.63-.06-5.74s0-4.37,0-6.77,0-4.71-.05-6.93-.06-4.31-.06-6.28v-4.78c0-.79,0-2,.11-3.55s.14-3.24.22-5,.12-3.42.16-5,0-2.79-.06-3.65c-.64.07-1.93.12-3.86.16l-6.77.16c-2.58.07-5.32.13-8.22.16l-8.22.11-6.76.11-3.87.05q-11.71,0-23.9-.48a179.4,179.4,0,0,1-23.8-2.53q-.54,3.33-1,6.66t-.8,7q-.33,3.65-.54,7.68c-.14,2.68-.22,5.6-.22,8.75,0,3.73-.09,7.57-.26,11.55s-.27,8-.27,12.19c0,3.65.11,7.31.32,11a96.27,96.27,0,0,0,1.18,10.53,4.25,4.25,0,0,1,.27,1.18c0,.43,0,.82,0,1.18a7.6,7.6,0,0,1-1.5,4.62,13.49,13.49,0,0,1-3.76,3.44,19.92,19.92,0,0,1-4.83,2.14,16.8,16.8,0,0,1-4.62.76,13.37,13.37,0,0,1-5.75-1.19,14.83,14.83,0,0,1-4.35-3.06,16.92,16.92,0,0,1-3-4.24,26.92,26.92,0,0,1-1.82-4.62,28.85,28.85,0,0,1-1-6.12q-.23-3.44-.22-7.31c0-3,.09-6.1.27-9.29s.38-6.3.59-9.35.45-6,.7-8.8.48-5.36.7-7.58c.21-2.43.59-5.89,1.13-10.36s1.23-9.56,2.09-15.26,1.86-11.78,3-18.26,2.36-13,3.65-19.44,2.69-12.73,4.19-18.75,3-11.42,4.62-16.22a78.28,78.28,0,0,1,4.84-11.87q2.46-4.67,4.94-5.64a20.93,20.93,0,0,1,2.57-.8c1-.25,2.06-.49,3.17-.7s2.21-.38,3.28-.49,2-.16,2.9-.16a8.09,8.09,0,0,1,4.19,1,7.24,7.24,0,0,1,2.52,2.52,11,11,0,0,1,1.29,3.39,17.64,17.64,0,0,1,.38,3.54,14.51,14.51,0,0,1-.48,3.6,34.8,34.8,0,0,1-1.19,3.71c-.46,1.22-.95,2.38-1.45,3.49s-1,2.17-1.39,3.17q-2,4.93-3.65,10.15t-2.74,10.31c-.76,3.4-1.38,6.72-1.88,9.94s-.9,6.19-1.19,8.91a41.53,41.53,0,0,0,6,1.62c2.68.57,5.71,1.11,9.07,1.61s6.89,1,10.58,1.45,7.2.88,10.53,1.23,6.3.67,8.92.92,4.53.41,5.74.48c3.87.21,7.69.38,11.45.48s7.6.16,11.54.16c1.58,0,3.15,0,4.73-.1a37.37,37.37,0,0,0,4.83-.54,32.12,32.12,0,0,1,.54-3.65q.54-3,1.34-7.15c.54-2.75,1.13-5.71,1.78-8.86s1.23-6.14,1.77-9,1-5.28,1.45-7.36.68-3.43.75-4.08q.54-3.33,1-6.55t1.13-6.61q.65-3.37,1.45-7t2-7.79a15,15,0,0,1,1.72-3.6,26.45,26.45,0,0,1,3.06-4,22,22,0,0,1,3.86-3.33,7.75,7.75,0,0,1,4.35-1.39,11.8,11.8,0,0,1,6.34,1.72,18,18,0,0,1,4.78,4.24,19.6,19.6,0,0,1,3.06,5.42A15.54,15.54,0,0,1,381,105.68Z"/><path class="cls-3" d="M588.07,252.41a12.56,12.56,0,0,1-1,5,13.33,13.33,0,0,1-2.8,4.14,13.52,13.52,0,0,1-4.29,2.85,13.88,13.88,0,0,1-5.43,1.07,9.35,9.35,0,0,1-5.26-1.72,26.8,26.8,0,0,1-5-4.4,49.77,49.77,0,0,1-4.62-6.07,78.16,78.16,0,0,1-4-6.82c-1.18-2.3-2.24-4.48-3.17-6.56s-1.68-3.79-2.26-5.15c-.79-1.94-1.57-3.73-2.36-5.37a56.16,56.16,0,0,1-2.47-6.34l-1.13-3.22c-.25-.72-.46-1.28-.64-1.67s-.32-.71-.43-1a8.77,8.77,0,0,1-.38-1.12,13.17,13.17,0,0,1-4.62,1.12c-1.65.11-3.47.16-5.48.16a7.73,7.73,0,0,0-1.82.38c-.86.25-1.85.56-3,.91l-3.43,1.13c-1.19.4-2.31.74-3.39,1Q516,222.12,510,223.3t-12.57,2.31q-6.56,1.13-13.37,2.26t-13.7,2.31a3.33,3.33,0,0,0-1.29.43,6.41,6.41,0,0,0-1.5,1.66c-.65.9-1.61,2.28-2.9,4.14s-3.12,4.51-5.48,8q-4.08,5.91-7.73,10.26a97.93,97.93,0,0,1-6.88,7.46,23.12,23.12,0,0,1-6.61,4.73,17.14,17.14,0,0,1-7.25,1.61,28.76,28.76,0,0,1-8.81-1.24,22.56,22.56,0,0,1-6.49-3.16,14.59,14.59,0,0,1-4-4.19,8.26,8.26,0,0,1-1.34-4.19,5.18,5.18,0,0,1,3.11-5.11,36,36,0,0,1,8.6-2.41,12,12,0,0,1,1.18-1.61c.79-1,1.72-2.15,2.79-3.44s2.13-2.56,3.17-3.82,1.77-2.2,2.2-2.84q4.2-5.81,8.76-12.09t10-14.44v.1c1.86-2.72,3.39-5,4.57-6.77s2.31-3.47,3.38-5,2.2-3.19,3.38-4.84,2.64-3.69,4.36-6.12q6.64-9.35,11.65-15.85t8.22-10.79q3.87-6,7.3-11.5c1-1.57,2-3.16,2.9-4.78s1.83-3.16,2.69-4.67,1.63-2.92,2.31-4.24a36,36,0,0,0,1.56-3.39q12.78-31.26,21.91-31.26a28.24,28.24,0,0,1,6.45.6,7.37,7.37,0,0,1,3.81,2,7.87,7.87,0,0,1,1.83,3.81,30.4,30.4,0,0,1,.48,5.91v5.21c0,1.25,0,2.34-.11,3.27s-.12,1.87-.16,2.8-.13,2.18-.27,3.76q2.58,5.48,5,11.28c1.61,3.86,3.13,7.7,4.56,11.49q.43,1.29,1.88,5.43t3.44,9.72l4.19,11.81q2.21,6.24,4.08,11.71t3.28,9.46q1.39,4,1.82,5,1.4,6,7.85,19.88c.57,1.14,1.05,2.15,1.45,3s.85,1.75,1.39,2.68,1.24,2,2.1,3.22,2,2.8,3.43,4.73Q588.08,247.69,588.07,252.41Zm-71.76-54.14q4.73-1.17,9.61-2.47t9.08-2.58c-1.15-3.5-2.33-7.16-3.54-10.95s-2.49-7.58-3.82-11.34-2.67-7.41-4-11a99.37,99.37,0,0,0-4.29-9.72q-9.14,12.45-18.32,26.21t-17.46,28q3.22-.31,6.77-.48a24.45,24.45,0,0,0,5.7-.81c1.93-.57,3.66-1.07,5.21-1.5s3.07-.82,4.61-1.18,3.14-.72,4.79-1.07S514.16,198.7,516.31,198.27Z"/><path class="cls-3" d="M793.11,261a6.78,6.78,0,0,1-1.34,3.81,17,17,0,0,1-3.38,3.65,19.45,19.45,0,0,1-4.46,2.74,11.24,11.24,0,0,1-4.57,1.08,11.68,11.68,0,0,1-3.43-.86q-2.37-.87-5.43-2.31c-2-1-4.23-2.08-6.55-3.33s-4.62-2.54-6.88-3.87-4.37-2.63-6.33-3.92-3.64-2.47-5-3.54c-.72-.58-2.08-1.63-4.08-3.17s-4.17-3.23-6.5-5-4.6-3.6-6.82-5.32-3.91-3-5.05-3.87q-4.83-3.65-9.56-7.68t-9.45-8c-3.16-2.61-6.34-5.15-9.57-7.62a109.51,109.51,0,0,0-10-6.83.29.29,0,0,0-.21-.1.63.63,0,0,0-.22,0,1.47,1.47,0,0,1-.53.05,32.22,32.22,0,0,1-4.57-.32,9.9,9.9,0,0,1-4.13-1.5,9,9,0,0,1-3-3.39,12.89,12.89,0,0,1-1.18-6.06,9.38,9.38,0,0,1,1.45-5.11,14.74,14.74,0,0,1,3.86-4.08,19,19,0,0,1,5.48-2.74,20.55,20.55,0,0,1,6.18-1,18.29,18.29,0,0,1,2.26.17,25.47,25.47,0,0,1,2.52.43c.82.18,1.57.32,2.26.43a11.86,11.86,0,0,0,1.55.16,14.44,14.44,0,0,0,3.6-.86q2.64-.87,6.13-2.31c2.32-1,4.85-2.08,7.57-3.33s5.39-2.58,8-4,5.07-2.83,7.36-4.29a51.44,51.44,0,0,0,5.69-4.14l2.9-2.58a43.63,43.63,0,0,0,3.87-3.92,29.78,29.78,0,0,0,3.38-4.67,9.33,9.33,0,0,0,1.45-4.73,13.31,13.31,0,0,0-1.71-6.6,22.73,22.73,0,0,0-4.46-5.59,33.17,33.17,0,0,0-6.18-4.46,56.45,56.45,0,0,0-6.82-3.28,46.7,46.7,0,0,0-6.39-2,23,23,0,0,0-4.94-.69q-2.58,0-6.23.21c-2.44.15-5,.34-7.74.59s-5.46.54-8.22.86-5.3.66-7.62,1-4.34.74-6,1.13a15,15,0,0,0-3.49,1.13q-.64,2.68-1.13,5c-.32,1.54-.63,3.1-.91,4.68s-.59,3.24-.91,5-.67,3.78-1,6.07c-.22,1.07-.47,2.58-.76,4.51s-.61,4.08-1,6.45-.72,4.83-1.08,7.41-.7,5.08-1,7.52-.59,4.67-.8,6.71-.36,3.71-.43,5q-.33,5.79-.65,12.83c-.21,4.7-.43,9.13-.64,13.32s-.38,7.81-.49,10.85-.16,4.93-.16,5.64c0,.15,0,.76.11,1.83s.16,2.38.27,3.92.21,3.21.32,5,.22,3.49.32,5.1.2,3,.27,4.24.11,2,.11,2.47q0,6.66-3.22,9.19t-10.1,2.52a12.67,12.67,0,0,1-2.85-.54,12.7,12.7,0,0,1-7.62-6.07,13.22,13.22,0,0,1-1.56-6.82,28.73,28.73,0,0,1,.16-3.38,18.53,18.53,0,0,0,.16-2.2q-.44-2.58-.64-5.59t-.33-5.91c-.07-1.93-.1-3.76-.1-5.48v-4.4q0-.54.21-3.81c.14-2.19.32-4.94.54-8.27s.5-7.06.86-11.18.71-8.25,1.07-12.4.75-8.13,1.18-11.93.86-7.05,1.29-9.77c.29-1.72.66-3.8,1.13-6.23s1-5,1.5-7.63,1.08-5.32,1.62-8,1-5.12,1.5-7.31.84-4,1.13-5.48a24,24,0,0,0,.43-2.63,4.48,4.48,0,0,0-.75-1.5c-.51-.79-1.08-1.7-1.72-2.74a26.91,26.91,0,0,1-1.72-3.22,7.36,7.36,0,0,1-.75-3,8.4,8.4,0,0,1,1.66-5.21,14,14,0,0,1,4-3.6,20,20,0,0,1,4.94-2.09,16.86,16.86,0,0,1,4.3-.7c.64,0,1.39,0,2.25.11s1.7.16,2.53.27,1.59.19,2.31.26a14.69,14.69,0,0,0,1.5.11c2.72-.43,5.93-1,9.62-1.61s7.53-1.27,11.54-1.88,8.08-1.13,12.2-1.56a112.25,112.25,0,0,1,11.65-.64A47.4,47.4,0,0,1,728,106.16a69.61,69.61,0,0,1,12.13,4.19A80.52,80.52,0,0,1,752.08,117a57.85,57.85,0,0,1,10.26,8.64A41.76,41.76,0,0,1,769.48,136a26.92,26.92,0,0,1,2.69,11.82A21.54,21.54,0,0,1,769,158.63a52.76,52.76,0,0,1-8.22,10.59,96.1,96.1,0,0,1-11.23,9.66,129.36,129.36,0,0,1-12.3,8.11q-6.12,3.56-11.38,6a56.33,56.33,0,0,1-8.38,3.33c-.22.07-.66.2-1.34.38l-2.21.59-2.15.59a6.64,6.64,0,0,1-1.18.27q.23.21,2.58,2c1.58,1.18,3.64,2.71,6.18,4.57l8.65,6.34q4.83,3.54,10,7.3t10.2,7.41q5.06,3.66,9.24,6.77c2.51,1.79,4.9,3.38,7.2,4.78s4.6,2.69,6.93,3.87,4.67,2.36,7,3.54,4.84,2.53,7.41,4a15.46,15.46,0,0,1,4,2.9,11.8,11.8,0,0,1,2.09,3,9.55,9.55,0,0,1,.86,3.12A31.41,31.41,0,0,1,793.11,261Z"/><path class="cls-3" d="M993,165.72q0,13.75-10.74,27.29-9.78,12.36-25.78,23.1a174,174,0,0,1-15.36,9.29q-8.28,4.46-16.44,8.22t-15.63,6.55q-7.35,2.79-13.69,4.72-4.41,1.41-9.56,3.5T873.87,254a36.58,36.58,0,0,1-6.23,2.63q-3.23,1-6.07,1.66a51,51,0,0,1-5.1.92,30.3,30.3,0,0,1-3.22.26,17.27,17.27,0,0,1-11.07-3.65,16.71,16.71,0,0,1-6-9.67c-.72-3-1.24-5.55-1.56-7.62a33.93,33.93,0,0,1-.48-4.73,12.15,12.15,0,0,1,.21-1.88c.14-.82.29-1.66.43-2.52s.29-1.72.43-2.58a13.71,13.71,0,0,0,.22-2,28,28,0,0,1,.16-2.8c.1-1.07.25-2.18.43-3.33s.35-2.29.53-3.43.34-2.19.49-3.12q2.79-14.38,4.89-29.27t5.42-30.46q.31-1.5.75-3.33c.29-1.21.57-2.45.86-3.7s.54-2.44.75-3.55a14.63,14.63,0,0,0,.33-2.74,2.85,2.85,0,0,0-.81-2.41c-.54-.4-1.27-.92-2.2-1.56q-1.51-1.19-2.58-2.1a11.12,11.12,0,0,1-1.77-1.82,6,6,0,0,1-1-2,8.79,8.79,0,0,1-.33-2.58,12.58,12.58,0,0,1,1.24-5.1,19.06,19.06,0,0,1,3.33-5,19.68,19.68,0,0,1,4.83-3.87,11.55,11.55,0,0,1,5.75-1.55q2.25,0,5.91.27c2.43.18,4.87.39,7.3.64s4.64.47,6.61.64,3.24.27,3.81.27q7.85,0,17.67-.64t19.61-.65a120.86,120.86,0,0,1,26.32,2.74A79.64,79.64,0,0,1,966,122.86q2.25,1.29,4.94,3.12a44.41,44.41,0,0,1,5.48,4.46,48.68,48.68,0,0,1,5.53,6.28,48.15,48.15,0,0,1,5.11,8.81,84.68,84.68,0,0,1,4.35,11.22A32.44,32.44,0,0,1,993,165.72Zm-26.21,0a24.76,24.76,0,0,0-2.74-12.08,26.69,26.69,0,0,0-7.19-8.43,35,35,0,0,0-10.15-5.37,72,72,0,0,0-11.61-2.9q-7.2-1.19-14.39-1.78t-14.61-.59q-3.12,0-6.71.27t-7.47.65l-7.79.75q-3.92.38-7.68.48-1.83,9.24-3.6,18.42t-3.27,17.08q-1.51,7.91-2.58,13.91c-.72,4-1.18,7-1.4,8.81q-.86,6.13-1.66,12.73a100.14,100.14,0,0,0-.81,12.09,43.52,43.52,0,0,0,.22,4.72,21.22,21.22,0,0,0,.75,3.87,139.78,139.78,0,0,0,20.84-5.42l24.38-8.22q7.09-2.37,13.38-4.83T934.08,205a99.35,99.35,0,0,0,8.92-4.73,40.69,40.69,0,0,0,6.07-4.35,25.13,25.13,0,0,0,2.31-2.47q1.56-1.83,3.54-4.4T959,183.4a72.85,72.85,0,0,0,3.82-6.23,54.14,54.14,0,0,0,2.85-6.13A15.12,15.12,0,0,0,966.79,165.72Z"/><text class="cls-4" transform="translate(200.94 262.3)">HARD</text></svg>