<svg id="Warstwa_1" data-name="Warstwa 1" xmlns="http://www.w3.org/2000/svg" xmlns:xlink="http://www.w3.org/1999/xlink" viewBox="0 0 1200 400"><defs><style>.cls-1{fill:#fff;stroke:#000;stroke-width:6.9px;}.cls-1,.cls-4{stroke-miterlimit:10;}.cls-2,.cls-4{font-size:220px;font-family:SegoeScript-Bold, Segoe Script;font-weight:700;letter-spacing:0.1em;}.cls-3{fill:url(#Spectrum_);}.cls-4{fill:none;stroke:#1d1d1b;stroke-width:3px;}</style><linearGradient id="Spectrum_" x1="43.86" y1="181.89" x2="1154.06" y2="181.89" gradientUnits="userSpaceOnUse"><stop offset="0" stop-color="#00a0db"/><stop offset="0.2" stop-color="#362983"/><stop offset="0.4" stop-color="#e4007d"/><stop offset="0.6" stop-color="#e31f21"/><stop offset="0.8" stop-color="#ffe900"/><stop offset="1" stop-color="#009447"/></linearGradient></defs><title>medium</title><rect class="cls-1" x="7.5" y="37" width="1186" height="300" rx="92.12"/><text class="cls-2" transform="translate(31.93 262.3)">MEDIUM</text><path class="cls-3" d="M237,102.88a5.26,5.26,0,0,1-.43,2.42c-.29.54-.64,1.13-1.07,1.77s-.92,1.47-1.45,2.47A17.92,17.92,0,0,0,232.6,114c-.43,2-.85,3.76-1.24,5.26s-.73,2.94-1,4.3-.52,2.74-.7,4.13a38.84,38.84,0,0,0-.27,4.89q0,4.83-.21,9.56c-.15,3.15-.36,6.43-.65,9.83s-.62,7-1,10.64-.84,7.68-1.34,12q-1.08,9.14-2.15,19.34a202.7,202.7,0,0,0-1.07,21v6.77q0,3.87.16,8.27t.43,9q.27,4.57.81,8.86a3,3,0,0,0,.91.7,7.5,7.5,0,0,1,1.13.7,30.5,30.5,0,0,1,5.58,4.3,6.9,6.9,0,0,1,1.72,4.94,9.94,9.94,0,0,1-1.4,4.78,18.79,18.79,0,0,1-3.7,4.67,20.67,20.67,0,0,1-5.27,3.55,14,14,0,0,1-6.06,1.39A14.39,14.39,0,0,1,206.92,269a26.34,26.34,0,0,1-6.39-9.94,57.7,57.7,0,0,1-3.22-13.53,121.38,121.38,0,0,1-.91-14.78V227c0-2,.19-5.05.59-9.14s.89-8.73,1.5-14,1.29-10.78,2-16.65,1.54-11.62,2.36-17.24,1.62-10.87,2.37-15.74,1.41-8.88,2-12q-1.29,1.61-3.6,4.67c-1.54,2-3.26,4.32-5.16,6.82l-6,7.95c-2.11,2.8-4.15,5.53-6.12,8.22s-3.83,5.21-5.58,7.57-3.25,4.37-4.46,6q-4.09,5.58-7.84,11.06t-7.85,11.28a11.19,11.19,0,0,0-1,1.4c-.46.72-1,1.52-1.55,2.42s-1.15,1.77-1.72,2.63a13.42,13.42,0,0,1-1.51,1.93q-7.51,10.1-16.54,12.68a41.64,41.64,0,0,1-9.29-4,25.8,25.8,0,0,1-5.75-4.67,26.54,26.54,0,0,1-3.81-5.53q-1.56-3-3.6-6.34-2.14-3.65-3.87-6.66c-1.14-2-2.15-3.79-3-5.37q-2.79-5.06-5.26-10.64t-4.62-11.38c-1-3.23-1.88-6-2.63-8.27s-1.45-4.44-2.1-6.45-1.28-4-1.93-6.12-1.36-4.51-2.15-7.31c-.14.5-.43,1.72-.86,3.66s-1,4.33-1.61,7.19-1.36,6.06-2.15,9.56-1.57,7.09-2.36,10.75L81,186q-1.12,5.22-2,9.4t-1.56,6.93c-.43,1.83-.68,2.92-.75,3.28a67.49,67.49,0,0,0-2.15,16.33c0,1.07,0,2.74-.11,5s-.12,4.66-.16,7.2-.09,5-.16,7.36-.11,4.19-.11,5.48a11,11,0,0,1-1,4,19,19,0,0,1-6.66,8.22,8.2,8.2,0,0,1-4.73,1.56,49,49,0,0,1-6.12-.33A13.05,13.05,0,0,1,51,259.07a9.64,9.64,0,0,1-3.28-2.79,20.28,20.28,0,0,1-2.57-4.73,9.11,9.11,0,0,1-.65-2.09c-.14-.75-.27-1.7-.37-2.85s-.18-2.56-.22-4.24,0-3.81,0-6.39a28.48,28.48,0,0,1,.8-4.78q.81-3.6,2-8.65t2.74-10.9q1.5-5.85,3.06-11.5t2.9-10.63c.9-3.33,1.63-6,2.21-8.11q1.5-5.37,3.11-11.17t3.17-11.71q1.56-5.91,3.12-11.77t2.84-11.11a65.3,65.3,0,0,1,1.29-7.85q.64-2.89,1.72-6.17a33,33,0,0,1,2.63-6,16.44,16.44,0,0,1,3.76-4.56,7.91,7.91,0,0,1,5.21-1.83q8.7,0,13.91,1.93a18.59,18.59,0,0,1,8.38,6,30.14,30.14,0,0,1,5,10.36q1.81,6.35,3.76,15.26a26.22,26.22,0,0,0,1.29,4.35c.5,1.25,1,2.63,1.61,4.13a187.49,187.49,0,0,0,8.86,22.19,195.23,195.23,0,0,0,12.08,21.75,25,25,0,0,0,5.11-5.75q2.31-3.49,5.1-8.54,2.48-4.4,5-8.32a56.72,56.72,0,0,1,5.75-7.47c.79-.86,2-2.34,3.76-4.46s3.71-4.58,6-7.41l7.15-9q3.75-4.73,7.09-9l5.91-7.52,3.65-4.67c.78-.93,1.39-1.67,1.82-2.2s1-1.17,1.61-1.88c.79-1.15,2.08-2.9,3.87-5.27s3.67-4.87,5.64-7.52,3.87-5.17,5.7-7.57,3.16-4.21,4-5.43c1-1.5,2.9-2.25,5.7-2.25A10.59,10.59,0,0,1,227,92.3a24.28,24.28,0,0,1,4.78,3.28,21.17,21.17,0,0,1,3.65,4.08,7,7,0,0,1,1.45,3.76Z"/><path class="cls-3" d="M429.91,121.14a8.63,8.63,0,0,1-1.24,4.68,12.31,12.31,0,0,1-3,3.33,12.85,12.85,0,0,1-3.71,2,11.08,11.08,0,0,1-3.44.65c-1.29,0-2.81,0-4.56.05s-3.6.06-5.54.06-3.85,0-5.74.05-3.67.05-5.32.05c-2.94,0-6.55.17-10.85.49s-8.72.7-13.27,1.13-8.95.87-13.21,1.34-7.79.8-10.58,1c-.43,0-1.41.09-2.95.27s-3.21.39-5,.64-3.49.58-5.1,1a8.43,8.43,0,0,0-3.17,1.23q-1.19,1-1.93,4.09a75.19,75.19,0,0,0-1.4,9.56q-.43,4.29-.91,8.75c-.33,3-.63,5.64-.92,8-.28,2.8-.57,5.48-.86,8.06,2.29,0,4.68-.09,7.15-.27s4.92-.37,7.36-.59,4.79-.44,7.09-.7l6.23-.69a71.34,71.34,0,0,1,8.27-1q5.69-.44,12.89-.43a69.87,69.87,0,0,1,7.79.37,12.74,12.74,0,0,1,5.37,1.72,8,8,0,0,1,3.11,4.09,22,22,0,0,1,1,7.46,7.86,7.86,0,0,1-1.18,4.46,9.09,9.09,0,0,1-3.06,2.85,12.52,12.52,0,0,1-4.24,1.45,30.25,30.25,0,0,1-4.73.37c-1.07,0-2.42,0-4,0l-4.89-.11-4.61-.11c-1.44,0-2.55,0-3.33,0-2.66,0-5.59.14-8.81.43s-6.54.64-9.94,1.07-6.82.92-10.26,1.45l-9.88,1.56c-.22,0-.54.81-1,2.42s-.88,3.69-1.34,6.23-1,5.37-1.45,8.49-1,6.14-1.4,9.07-.77,5.64-1,8.11-.37,4.35-.37,5.64a22.69,22.69,0,0,0,3-.37l5.64-1,7.58-1.34q4.19-.75,8.75-1.61c3-.58,6.11-1.13,9.19-1.67s6-1,8.8-1.45q6.24-1,12.89-2T387,229.43q6.51-.87,12.57-1.4c4.05-.36,7.75-.54,11.12-.54a20.33,20.33,0,0,1,5.75.65,6.3,6.3,0,0,1,3.11,1.88,6.07,6.07,0,0,1,1.29,3.06,28.91,28.91,0,0,1,.27,4.19,18,18,0,0,1-1.13,6.82,12.22,12.22,0,0,1-2.84,4.35,9.89,9.89,0,0,1-3.76,2.26,13.22,13.22,0,0,1-4,.64q-4.51,0-9.61.38c-3.4.25-6.81.55-10.21.91s-6.69.75-9.88,1.18L371,255c-.5.07-1.61.22-3.33.43l-5.53.7-5.59.7-3.59.43q-4.41.54-9.08,1.18t-9.24,1.45q-4.57.81-8.86,1.77c-2.87.65-5.55,1.33-8.06,2q-3.43,1.08-7,2.26a24.41,24.41,0,0,1-7.68,1.18,10.54,10.54,0,0,1-5.85-1.5,12.73,12.73,0,0,1-3.65-3.49,13,13,0,0,1-1.88-4,13.29,13.29,0,0,1-.54-3.12q0-3.44.32-6.87c.22-2.29.5-4.8.86-7.52s.82-5.77,1.4-9.13,1.22-7.27,1.93-11.71q.33-1.94.91-6.18c.4-2.83.88-6.16,1.46-10s1.18-8,1.82-12.51,1.31-9.12,2-13.81,1.34-9.29,2-13.8,1.25-8.67,1.82-12.46,1.08-7.09,1.51-9.88.75-4.8,1-6a15.23,15.23,0,0,0-.53-4.19,12.81,12.81,0,0,1-.54-3.65,11.27,11.27,0,0,1,.43-3.33,20.65,20.65,0,0,1,1.56-2.37,33.44,33.44,0,0,1,2.9-3.49A25.19,25.19,0,0,1,315.4,115a5.84,5.84,0,0,1,3.43-1.34l4.25.32,6.07.43q3.23.21,6.12.32c1.93.07,3.37.11,4.3.11,2.22-.22,4.63-.41,7.25-.59l8.11-.59q4.19-.33,8.43-.76t8.11-1.07q2.79-.54,8.27-1.24t11.66-1.34q6.18-.64,12.19-1.07t10-.43a40.63,40.63,0,0,1,4.94.32,14.38,14.38,0,0,1,5.11,1.61,11.4,11.4,0,0,1,4.13,3.92,16,16,0,0,1,2.15,7.25Z"/><path class="cls-3" d="M633.56,173.35a32.65,32.65,0,0,1-3.06,13.32,53.16,53.16,0,0,1-9.67,14.07,106.76,106.76,0,0,1-17,14.56,206.26,206.26,0,0,1-25,14.88q-7.85,4-16.59,8t-17.41,7.57q-8.64,3.56-16.7,6.45T513.57,257c-2,.58-4.12,1.11-6.34,1.61s-4.33.94-6.34,1.29-3.86.63-5.58.81-3.12.27-4.19.27a7.12,7.12,0,0,1-3.82-.81,6,6,0,0,1-1.93-2,7.82,7.82,0,0,1-1-2.57,9.79,9.79,0,0,0-.86-2.58,5.34,5.34,0,0,0-1.71-2,5.83,5.83,0,0,0-3.39-.8,5.65,5.65,0,0,1-4.08-1.45,9.76,9.76,0,0,1-2.31-3.55,16.4,16.4,0,0,1-1-4.51q-.21-2.41-.21-4.35a43.22,43.22,0,0,1,1.77-11.66q1.77-6.28,3.92-14,1-3.54,2.52-9.56t3.28-13.26q1.71-7.26,3.49-15T489,158.37q1.39-6.83,2.26-12.14a54.92,54.92,0,0,0,.85-7.68,4.38,4.38,0,0,0-1.45-3.17c-1-1-2-2-3.22-3.12a21.91,21.91,0,0,1-3.22-3.86,9.65,9.65,0,0,1-1.45-5.43,36.17,36.17,0,0,1,.27-4.14,10.35,10.35,0,0,1,1.5-4.29,9.63,9.63,0,0,1,3.65-3.33,13.92,13.92,0,0,1,6.72-1.34,27.4,27.4,0,0,1,4.89.42q2.3.43,5.21.92c1.93.32,4.17.63,6.71.91a85.09,85.09,0,0,0,9.4.43q8.91,0,18.8.59t19.39,1.77q9.51,1.19,17.83,2.9a81.64,81.64,0,0,1,14.13,4.09,71.61,71.61,0,0,1,14.93,8.43,82.91,82.91,0,0,1,13.64,12.35,65.36,65.36,0,0,1,9.94,14.83A36.13,36.13,0,0,1,633.56,173.35ZM510.78,231a55.68,55.68,0,0,0,12.56-1.67,138.42,138.42,0,0,0,14.94-4.46q7.83-2.79,16-6.49T570,210.57q7.51-4.12,14.07-8.43a107.21,107.21,0,0,0,11.17-8.27,37.54,37.54,0,0,0,4.57-4.73,42.33,42.33,0,0,0,3.33-4.72,30,30,0,0,0,2-4,8.29,8.29,0,0,0,.69-2.74c0-.93,0-2-.05-3.33s-.11-2.6-.21-3.92-.27-2.62-.49-3.87a14.53,14.53,0,0,0-.86-3.17,90.87,90.87,0,0,0-5.69-8.75,31.67,31.67,0,0,0-7.41-7.25,42.81,42.81,0,0,0-9.56-4.57q-6.12-2.21-12.89-3.92t-13.16-2.74a69.24,69.24,0,0,0-10.48-1c-2.43,0-5,0-7.57,0s-5.05.16-7.3.38a38.33,38.33,0,0,0-5.91,1,6.44,6.44,0,0,0-3.49,1.82,14.32,14.32,0,0,0-1.51,3c-.57,1.43-1.14,3.1-1.72,5s-1.14,3.89-1.71,6-1.12,4.08-1.62,6q-1.4,5.06-2.9,11.23t-3.11,12.84Q506.58,189,505,195.91t-2.9,13.37q-1.35,6.51-2.36,12.47c-.69,4-1.2,7.53-1.56,10.68,1.72-.14,3.79-.41,6.23-.8A40.88,40.88,0,0,1,510.78,231Z"/><path class="cls-3" d="M687,158.74q1-3.75,1.51-7.2t.91-6.82q.38-3.37.7-7t.75-7.57a32.51,32.51,0,0,1,.65-3.65q.53-2.47,1.28-5.32t1.62-5.53a30.35,30.35,0,0,1,1.61-4.19,12.88,12.88,0,0,1,1.56-2.69,11.74,11.74,0,0,1,2.63-2.58,14.3,14.3,0,0,1,3.76-1.93,15.3,15.3,0,0,1,5-.75,14.75,14.75,0,0,1,4.08.59,33.21,33.21,0,0,1,4.62,1.77,5.47,5.47,0,0,1,2.63,2.42,7.92,7.92,0,0,1,.8,3.7,62.66,62.66,0,0,1-.75,8.38q-.75,5.27-2,11.17-.85,3.56-1.61,7t-1.29,6.55l-1,7.3q-.71,5.06-1.45,11.44c-.5,4.27-1,8.72-1.61,13.38s-1.09,9-1.56,13.1L708.63,201q-.54,4.58-.76,6.07-.64,5.47-1.23,11.23t-1,10.79c-.29,3.37-.5,6.38-.65,9s-.21,4.62-.21,5.91a24.66,24.66,0,0,1-.86,6.55,21.83,21.83,0,0,1-2.31,5.53,19,19,0,0,1-3.22,4.08,10.35,10.35,0,0,1-3.6,2.31,3.62,3.62,0,0,1-1.67.54,21.43,21.43,0,0,1-2.2.11,15.11,15.11,0,0,1-3.76-.49,26.81,26.81,0,0,1-3.54-1.13,14.62,14.62,0,0,1-2.69-1.34,3.69,3.69,0,0,1-1.29-1.13,30.3,30.3,0,0,1-2.47-5,18.53,18.53,0,0,1-1.07-6.66,44.87,44.87,0,0,1,.32-4.79c.21-2,.48-4.17.81-6.6s.64-5.07,1-7.9.59-5.74.81-8.75q.42-5.58.8-11.12c.25-3.69.63-7.14,1.13-10.37l2.31-15.2L685,171c.43-2.86.81-5.32,1.13-7.36S686.75,160,687,158.74Z"/><path class="cls-3" d="M889.93,239.85q-12.34,15.68-28.52,23t-37.33,7.31a48.1,48.1,0,0,1-37.16-17.4,64.18,64.18,0,0,1-11.61-21.33Q771,218.69,771,202c0-2.43.17-5.8.53-10.09s.88-9.14,1.56-14.51,1.51-11.08,2.47-17.13,2-12.1,3.17-18.15,2.4-11.89,3.76-17.51,2.76-10.66,4.19-15.1a11.55,11.55,0,0,1,4.57-6.44,12.49,12.49,0,0,1,6.82-1.94,11.57,11.57,0,0,1,5,1.19,16.45,16.45,0,0,1,4.45,3.11,16.9,16.9,0,0,1,3.23,4.3,10.13,10.13,0,0,1,1.23,4.72v1a2.7,2.7,0,0,1-.21,1q-1.19,6.12-2.53,13.37t-2.58,14.61q-1.23,7.36-2.41,14.5t-2.1,13.16q-.91,6-1.55,10.53t-.86,6.55q-.43,3.77-.65,7.52t-.21,6.77a77.8,77.8,0,0,0,1.55,16,59.93,59.93,0,0,0,5.64,15.25,28.21,28.21,0,0,0,3,4.35,23.66,23.66,0,0,0,4.14,3.92,22.67,22.67,0,0,0,4.88,2.79,13.27,13.27,0,0,0,5.16,1.08q5.37,0,10.58-.32a78.45,78.45,0,0,0,9.94-1.24,47.07,47.07,0,0,0,8.81-2.58,27.64,27.64,0,0,0,7.3-4.35,36.61,36.61,0,0,0,6.77-7.46,73.86,73.86,0,0,0,5.42-9.24,99,99,0,0,0,4.35-10.15q1.93-5.27,3.66-10.21,1.5-4.51,3.17-11.22t3.22-14q1.56-7.31,2.9-14.4t2.31-12.46q1.5-8.37,3.33-16.22a154.41,154.41,0,0,1,4.83-16.33,7.06,7.06,0,0,1,2.15-2.74,22.56,22.56,0,0,1,3.71-2.47A25.81,25.81,0,0,1,910,109.6a11.33,11.33,0,0,1,3.49-.7,8.41,8.41,0,0,1,7,3.11q2.47,3.12,2.47,9.46,0,2.9-.27,6.12t-.75,6.61c-.32,2.25-.72,4.49-1.18,6.71s-1,4.3-1.56,6.23c-.29,1-.73,2.81-1.34,5.43s-1.31,5.62-2.1,9-1.61,7-2.47,10.79-1.7,7.42-2.52,10.85-1.56,6.52-2.2,9.24-1.15,4.66-1.51,5.8q-.75,2.58-2,6.29t-2.74,7.79c-1,2.72-2.06,5.49-3.17,8.32s-2.2,5.5-3.28,8-2.13,4.75-3.17,6.72A31,31,0,0,1,889.93,239.85Z"/><path class="cls-3" d="M1154.06,102.88a5.26,5.26,0,0,1-.43,2.42c-.29.54-.64,1.13-1.07,1.77s-.92,1.47-1.45,2.47a17.92,17.92,0,0,0-1.45,4.41c-.43,2-.85,3.76-1.24,5.26s-.73,2.94-1,4.3-.52,2.74-.7,4.13a38.84,38.84,0,0,0-.27,4.89q0,4.83-.21,9.56c-.14,3.15-.36,6.43-.64,9.83s-.63,7-1,10.64-.84,7.68-1.34,12q-1.07,9.14-2.15,19.34a202.7,202.7,0,0,0-1.07,21v6.77q0,3.87.16,8.27t.43,9q.27,4.57.81,8.86a3,3,0,0,0,.91.7,7.5,7.5,0,0,1,1.13.7,30.5,30.5,0,0,1,5.58,4.3,6.9,6.9,0,0,1,1.72,4.94,9.94,9.94,0,0,1-1.4,4.78,18.79,18.79,0,0,1-3.7,4.67,20.79,20.79,0,0,1-5.26,3.55,14.12,14.12,0,0,1-6.07,1.39A14.39,14.39,0,0,1,1124,269a26.34,26.34,0,0,1-6.39-9.94,57.7,57.7,0,0,1-3.22-13.53,121.38,121.38,0,0,1-.91-14.78V227c0-2,.19-5.05.59-9.14s.89-8.73,1.5-14,1.29-10.78,2-16.65,1.54-11.62,2.37-17.24,1.61-10.87,2.36-15.74,1.41-8.88,2-12q-1.29,1.61-3.6,4.67c-1.54,2-3.26,4.32-5.16,6.82l-6,7.95c-2.12,2.8-4.16,5.53-6.13,8.22s-3.83,5.21-5.58,7.57-3.25,4.37-4.46,6q-4.08,5.58-7.84,11.06t-7.85,11.28a11.19,11.19,0,0,0-1,1.4c-.46.72-1,1.52-1.55,2.42s-1.15,1.77-1.72,2.63a13.42,13.42,0,0,1-1.51,1.93q-7.52,10.1-16.54,12.68a41.85,41.85,0,0,1-9.29-4,25.8,25.8,0,0,1-5.75-4.67,26.93,26.93,0,0,1-3.81-5.53q-1.56-3-3.6-6.34-2.15-3.65-3.87-6.66c-1.14-2-2.15-3.79-3-5.37q-2.79-5.06-5.26-10.64t-4.62-11.38c-1-3.23-1.88-6-2.63-8.27s-1.45-4.44-2.09-6.45-1.29-4-1.94-6.12-1.36-4.51-2.15-7.31c-.14.5-.43,1.72-.86,3.66s-1,4.33-1.61,7.19-1.36,6.06-2.15,9.56-1.57,7.09-2.36,10.75L998,186q-1.12,5.22-2,9.4t-1.56,6.93c-.43,1.83-.68,2.92-.75,3.28a67.49,67.49,0,0,0-2.15,16.33c0,1.07,0,2.74-.11,5s-.12,4.66-.16,7.2-.09,5-.16,7.36-.1,4.19-.1,5.48a11,11,0,0,1-1,4,19,19,0,0,1-6.66,8.22,8.2,8.2,0,0,1-4.73,1.56,49,49,0,0,1-6.12-.33,13.05,13.05,0,0,1-4.46-1.29,9.64,9.64,0,0,1-3.28-2.79,20.28,20.28,0,0,1-2.57-4.73,9.11,9.11,0,0,1-.65-2.09c-.14-.75-.27-1.7-.37-2.85s-.18-2.56-.22-4.24-.05-3.81-.05-6.39a28.48,28.48,0,0,1,.8-4.78q.81-3.6,2-8.65t2.74-10.9c1-3.9,2-7.74,3.06-11.5s2-7.3,2.9-10.63,1.63-6,2.21-8.11q1.5-5.37,3.11-11.17T981,158.53q1.56-5.91,3.12-11.77t2.84-11.11a65.3,65.3,0,0,1,1.29-7.85q.64-2.89,1.72-6.17a33,33,0,0,1,2.63-6,16.44,16.44,0,0,1,3.76-4.56,7.91,7.91,0,0,1,5.21-1.83q8.7,0,13.91,1.93a18.59,18.59,0,0,1,8.38,6,30.14,30.14,0,0,1,5,10.36q1.82,6.35,3.76,15.26a26.22,26.22,0,0,0,1.29,4.35c.5,1.25,1,2.63,1.61,4.13a189.22,189.22,0,0,0,8.86,22.19,193.74,193.74,0,0,0,12.09,21.75,25.24,25.24,0,0,0,5.1-5.75q2.31-3.49,5.1-8.54,2.48-4.4,5-8.32a55.8,55.8,0,0,1,5.74-7.47c.79-.86,2-2.34,3.76-4.46s3.71-4.58,6-7.41l7.15-9q3.75-4.73,7.09-9l5.91-7.52,3.65-4.67c.79-.93,1.39-1.67,1.82-2.2s1-1.17,1.62-1.88c.78-1.15,2.07-2.9,3.86-5.27s3.67-4.87,5.64-7.52,3.87-5.17,5.7-7.57,3.16-4.21,4-5.43c1-1.5,2.9-2.25,5.7-2.25a10.59,10.59,0,0,1,4.83,1.34,24.28,24.28,0,0,1,4.78,3.28,21.17,21.17,0,0,1,3.65,4.08,7,7,0,0,1,1.45,3.76Z"/><text class="cls-4" transform="translate(31.93 262.3)">MEDIUM</text></svg>