<svg xmlns="http://www.w3.org/2000/svg" xmlns:xlink="http://www.w3.org/1999/xlink" viewBox="0 0 509.54 183.62"><defs><style>.cls-1,.cls-6{fill:none;}.cls-2{clip-path:url(#clip-path);}.cls-3,.cls-6{font-size:136px;font-family:SegoeScript-Bold, Segoe Script;font-weight:700;}.cls-4{letter-spacing:-0.18em;}.cls-5{fill:url(#Spectrum_);}.cls-6{stroke:#f2f2f2;stroke-miterlimit:10;stroke-width:2px;}</style><clipPath id="clip-path" transform="translate(-48 -27.37)"><path class="cls-1" d="M550,200H50A50,50,0,0,1,0,150V51.3A51.3,51.3,0,0,1,51.3,0H550a50,50,0,0,1,50,50V150A50,50,0,0,1,550,200Z"/></clipPath><linearGradient id="Spectrum_" x1="60.15" y1="95.81" x2="555.54" y2="95.81" gradientUnits="userSpaceOnUse"><stop offset="0" stop-color="#00a0db"/><stop offset="0.2" stop-color="#362983"/><stop offset="0.4" stop-color="#e4007d"/><stop offset="0.6" stop-color="#e31f21"/><stop offset="0.8" stop-color="#ffe900"/><stop offset="1" stop-color="#009447"/></linearGradient></defs><title>Zasób 3</title><g id="Warstwa_2" data-name="Warstwa 2"><g id="Warstwa_1-2" data-name="Warstwa 1"><text class="cls-3" transform="translate(10.82 115.29)">S<tspan class="cls-4" x="83.21" y="0">T</tspan><tspan x="158.05" y="0">ART</tspan></text><path class="cls-5" d="M138.84,59.78a14,14,0,0,1-.23,2.26,20.57,20.57,0,0,1-.7,2.75c-.31,1-.65,1.86-1,2.73a7.79,7.79,0,0,1-1.29,2.09h.06q-2.13,2.52-10,2.52a44,44,0,0,0-.24-4.94,12.33,12.33,0,0,0-.76-3.36A4,4,0,0,0,123,62a11.8,11.8,0,0,0-2.69-1.2,20,20,0,0,0-3-.69,17.52,17.52,0,0,0-2.66-.24c-1.9,0-3.76.05-5.58.14a51.91,51.91,0,0,0-5.34.53,47.74,47.74,0,0,0-10.79,3,40.23,40.23,0,0,0-4.22,2,29.52,29.52,0,0,0-4.15,2.69,18.11,18.11,0,0,0-3.29,3.25,8.34,8.34,0,0,0-1.69,3.75l.07-.13a7.54,7.54,0,0,0,1.06,3.55,18,18,0,0,0,2.89,3.86A24.09,24.09,0,0,0,87.77,86a18.05,18.05,0,0,0,5,2.29l1.13.4c.62.22,1.37.47,2.26.76l2.82,1c1,.36,1.93.68,2.79,1l2.19.73,1,.36q15.4,3.93,22.84,9.43t7.44,13.55a12.71,12.71,0,0,1-1.13,5.15,25.36,25.36,0,0,1-2.85,4.88,36,36,0,0,1-3.76,4.28,39.5,39.5,0,0,1-3.81,3.29l.06-.07q-1.92,1.53-4.35,3.12c-1.61,1.06-3.35,2.11-5.21,3.12s-3.79,2-5.78,2.86a60,60,0,0,1-6.11,2.32c-1.95.62-4,1.21-6.14,1.76s-4.28,1-6.41,1.43-4.17.71-6.14.93a48.56,48.56,0,0,1-5.35.33,19.42,19.42,0,0,1-3.08-.3c-1.22-.2-2.51-.47-3.86-.83s-2.7-.77-4.05-1.26a22.52,22.52,0,0,1-3.62-1.66,11.53,11.53,0,0,1-2.59-2,3.28,3.28,0,0,1-1-2.26,10.37,10.37,0,0,1,.4-2.59A13,13,0,0,1,61.71,135a10.38,10.38,0,0,1,1.79-2.46,3.11,3.11,0,0,1,2.23-1,11.7,11.7,0,0,1,3.12.4l3.28.89c1.22.34,2.64.65,4.25.93a34.8,34.8,0,0,0,6,.44,38.7,38.7,0,0,0,7.48-.77,58,58,0,0,0,7.67-2.06,64.66,64.66,0,0,0,7.23-3,60.07,60.07,0,0,0,6.25-3.45c.79-.54,1.67-1.14,2.62-1.83a21.34,21.34,0,0,0,2.65-2.26,14.49,14.49,0,0,0,2.06-2.55,5.06,5.06,0,0,0,.83-2.73c0-1.06-.79-2.08-2.39-3v.06a34,34,0,0,0-7-3.25c-2.3-.75-4.32-1.37-6-1.86A162.64,162.64,0,0,1,86,101.55h.07A48.22,48.22,0,0,1,70.44,91.39a24.62,24.62,0,0,1-6.64-17A14.26,14.26,0,0,1,65.93,67a27.38,27.38,0,0,1,5.77-6.74,49.77,49.77,0,0,1,8.47-5.81,66.08,66.08,0,0,1,10.26-4.55,77.53,77.53,0,0,1,11.12-3,60.5,60.5,0,0,1,11-1.06c1.11,0,2.49.08,4.15.23s3.37.38,5.12.67,3.42.64,5,1.06a16.16,16.16,0,0,1,3.79,1.43h-.07a18.82,18.82,0,0,1,6.08,4.91A9.18,9.18,0,0,1,138.84,59.78Z" transform="translate(-48 -27.37)"/><path class="cls-5" d="M249.54,52a6.79,6.79,0,0,1-1.89,4.25,13.16,13.16,0,0,1-5.81,3.65c-2.79,1-5.63,1.84-8.5,2.59s-6.11,1.46-9.7,2.13c-1.33.26-2.63.51-3.92.73l-4.05.7c-1.42.24-2.92.48-4.51.73l-5.32.83q-.85,4.65-1.52,10.12t-1.6,10.73c-.17,1-.36,2.23-.56,3.78s-.4,3.26-.6,5.12-.41,3.79-.63,5.81-.42,4-.6,5.84-.33,3.62-.46,5.21-.25,2.9-.33,3.92q-.21,2.79-.4,5.68c-.14,1.93-.25,3.86-.34,5.81,0,1.11-.14,2.39-.29,3.85s-.35,2.89-.57,4.29-.45,2.63-.7,3.71a6.84,6.84,0,0,1-.69,2.1,28,28,0,0,1-3.52,1,17.63,17.63,0,0,1-6.71-.2,8.15,8.15,0,0,1-3-1.39,6.38,6.38,0,0,1-2-2.5,8.77,8.77,0,0,1-.7-3.71,56.58,56.58,0,0,1,.73-9q.74-4.57,1.33-9c0-.22.2-1.22.46-3s.61-4,1-6.54.88-5.37,1.36-8.33.94-5.75,1.36-8.34.78-4.78,1.07-6.57.43-2.8.43-3c.26-2.08.51-4.3.73-6.64s.46-4.36.73-6c-.53,0-1.55.06-3.05.17l-5.28.36-6.41.44q-3.39.23-6.44.39l-5.42.3c-1.57.09-2.69.14-3.35.14q-7.24,0-11.26-1.9a6.71,6.71,0,0,1-4-6.6,6,6,0,0,1,.53-2.13,12.93,12.93,0,0,1,1.46-2.65,11.39,11.39,0,0,1,2.12-2.3,3.91,3.91,0,0,1,2.46-1,18.8,18.8,0,0,1,4.72.6q2.33.6,3.78.93c.49.09,1,.16,1.5.23a12.39,12.39,0,0,0,1.69.1c.8,0,1.79,0,3-.07s2.56-.06,4.11-.06c1.11,0,2.55-.07,4.32-.2s3.71-.31,5.81-.53,4.26-.47,6.48-.73,4.32-.53,6.34-.8l5.44-.73,3.76-.53q7.69-1.07,14.77-2.33c4.72-.84,9.17-1.66,13.38-2.45,1.6-.31,2.87-.58,3.82-.8s1.78-.43,2.49-.63,1.43-.42,2.16-.66,1.65-.52,2.75-.83q1.94,0,3.42.09a5.79,5.79,0,0,1,2.53.7,3.85,3.85,0,0,1,1.56,1.8A8.61,8.61,0,0,1,249.54,52Z" transform="translate(-48 -27.37)"/><path class="cls-5" d="M327.9,136.55a7.84,7.84,0,0,1-.63,3.12,8.09,8.09,0,0,1-4.39,4.31,8.32,8.32,0,0,1-3.35.67,5.84,5.84,0,0,1-3.25-1.06,16.41,16.41,0,0,1-3.09-2.73,29.27,29.27,0,0,1-2.86-3.75q-1.35-2.09-2.45-4.22c-.73-1.41-1.39-2.76-2-4s-1-2.34-1.4-3.18c-.48-1.2-1-2.31-1.46-3.32a36.63,36.63,0,0,1-1.52-3.92c-.32-.89-.55-1.55-.7-2s-.29-.79-.4-1l-.27-.6c-.06-.16-.14-.39-.23-.7a8.23,8.23,0,0,1-2.85.7c-1,.07-2.15.1-3.39.1a5,5,0,0,0-1.13.23c-.53.16-1.14.34-1.83.57l-2.12.69c-.73.25-1.43.46-2.09.63q-3.19.8-6.91,1.53c-2.48.49-5.07,1-7.77,1.43s-5.45.93-8.27,1.39-5.63.94-8.46,1.43a2.1,2.1,0,0,0-.8.27,4,4,0,0,0-.93,1c-.4.55-1,1.4-1.79,2.55s-1.93,2.79-3.39,4.92c-1.68,2.43-3.28,4.55-4.78,6.34a61.25,61.25,0,0,1-4.25,4.61,14.32,14.32,0,0,1-4.08,2.93,10.67,10.67,0,0,1-4.49,1,17.83,17.83,0,0,1-5.44-.76,13.69,13.69,0,0,1-4-2,9,9,0,0,1-2.46-2.59,5.15,5.15,0,0,1-.83-2.59,3.2,3.2,0,0,1,1.93-3.16,22.4,22.4,0,0,1,5.31-1.49,7.52,7.52,0,0,1,.73-1c.49-.61,1.06-1.32,1.73-2.12l2-2.36c.64-.77,1.09-1.36,1.36-1.76l5.41-7.47q2.82-3.89,6.21-8.93v.07c1.15-1.69,2.09-3.08,2.82-4.19s1.43-2.14,2.09-3.12,1.37-2,2.1-3,1.62-2.28,2.69-3.78q4.11-5.77,7.2-9.8c2.06-2.67,3.75-4.9,5.08-6.67q2.38-3.72,4.52-7.11c.62-1,1.21-2,1.79-3l1.66-2.89c.53-.93,1-1.8,1.43-2.62a22.56,22.56,0,0,0,1-2.09q7.91-19.33,13.55-19.33a17.29,17.29,0,0,1,4,.37,4.55,4.55,0,0,1,2.36,1.26,4.83,4.83,0,0,1,1.13,2.36,18.54,18.54,0,0,1,.3,3.65v3.22c0,.77,0,1.45-.07,2s-.08,1.16-.1,1.73-.08,1.35-.17,2.32q1.6,3.39,3.09,7t2.82,7.1q.27.79,1.17,3.36t2.12,6q1.23,3.45,2.59,7.3t2.52,7.24c.78,2.26,1.45,4.21,2,5.84s.95,2.68,1.13,3.12q.85,3.72,4.85,12.29c.35.71.65,1.33.89,1.86s.53,1.08.87,1.66.76,1.24,1.29,2,1.24,1.73,2.13,2.92Q327.9,133.62,327.9,136.55Zm-44.36-33.47q2.93-.73,5.94-1.53t5.61-1.59q-1.06-3.25-2.19-6.78c-.75-2.34-1.54-4.68-2.36-7s-1.64-4.58-2.49-6.78a62.06,62.06,0,0,0-2.65-6q-5.65,7.71-11.32,16.21t-10.79,17.33c1.32-.13,2.72-.23,4.18-.3a15,15,0,0,0,3.52-.5l3.22-.93c1-.26,1.9-.51,2.85-.73l3-.66C281,103.59,282.21,103.34,283.54,103.08Z" transform="translate(-48 -27.37)"/><path class="cls-5" d="M452.28,138.61a5.41,5.41,0,0,1-1.13,3.12,8.82,8.82,0,0,1-3,2.39,12.38,12.38,0,0,1-3,1.13,15.2,15.2,0,0,1-3.42.39,20.06,20.06,0,0,1-7.84-1.62,50.74,50.74,0,0,1-8.3-4.62c-1.46-1-3.32-2.27-5.58-3.88s-4.84-3.56-7.77-5.81l-4.18-3.22q-3.12-2.43-8.3-6.54-4.78-3.8-7.64-6c-1.9-1.44-3-2.22-3.25-2.36a4.52,4.52,0,0,0-1.56-.36q-.76,0-2.82,0h-.93l-1.1,0-1.66.1c-.69,0-1.6.11-2.75.2a9,9,0,0,1-4.06-7.77,6.44,6.44,0,0,1,1.13-3.92,6.6,6.6,0,0,1,3.26-2.26l.79-.2.57-.1c.2,0,.47-.06.83-.13a12.21,12.21,0,0,1,1.53-.16,14.68,14.68,0,0,0,3.71-.47,27.45,27.45,0,0,0,3.49-1.16c1.13-.47,2.21-1,3.25-1.53s2-1.07,3-1.56c1.41-.71,2.89-1.53,4.41-2.46s3.07-1.9,4.62-2.92a49.46,49.46,0,0,0,4-3c1.3-1.11,2.6-2.3,3.88-3.59a10.39,10.39,0,0,0,2.22-3.09,7.44,7.44,0,0,0,.7-3.08A7.75,7.75,0,0,0,414,69.68a17.38,17.38,0,0,0-3.68-3.86,27.06,27.06,0,0,0-4.85-3,31.35,31.35,0,0,0-4.95-1.93,32.12,32.12,0,0,0-9-1.33c-.89,0-2,.05-3.32.13s-2.81.23-4.45.4-3,.35-4.42.5-2.82.34-4.15.57l-1.46.2c-.35,0-.71.09-1.06.16l-1.23.23-1.89.4a25.17,25.17,0,0,1,.93,2.66c.26.93.51,2,.73,3a32,32,0,0,1,.76,4.75c.11,1.44.17,2.73.17,3.89,0,1.32,0,2.59,0,3.78s-.08,2.37-.17,3.52a62.43,62.43,0,0,1-.8,7q-.6,3.45-1.59,9c-.53,3.15-1,5.93-1.33,8.34s-.64,4.55-.86,6.41-.39,3.49-.5,5.18-.17,3.27-.17,4.78a37.64,37.64,0,0,0,.2,3.92,29.88,29.88,0,0,0,.63,3.61,20.88,20.88,0,0,0,1.2,3.49,32.18,32.18,0,0,0,1.89,3.59,9.46,9.46,0,0,1-1.69,2,16.6,16.6,0,0,1-2.19,1.66,12.27,12.27,0,0,1-2.36,1.16,6.62,6.62,0,0,1-2.26.43c-3.58,0-6.2-.75-7.83-2.25a9.64,9.64,0,0,1-3.39-5.58,22.94,22.94,0,0,1-.43-3.59c-.07-1.33-.1-2.83-.1-4.51a59.15,59.15,0,0,1,.4-7c.22-2,.47-3.91.76-5.75s.61-3.66,1-5.48c.22-.79.4-1.55.53-2.25s.26-1.45.37-2.23l.36-2.52c.14-.91.29-2,.47-3.16.57-3.63,1-7.12,1.39-10.49a87.06,87.06,0,0,0,.53-9.23c0-2.12-.05-4.35-.16-6.67s-.3-4.75-.57-7.27c-1.41.39-2.61.69-3.58.89a12.25,12.25,0,0,1-2,.3q-3.53,0-4.69-1.69a8.36,8.36,0,0,1-1.16-4.75q0-3.45,6-6.38,2.33-1.12,4.68-2c1.57-.62,3.13-1.18,4.68-1.66,1.73-.54,3.79-1,6.18-1.53s5-1,7.9-1.4,5.36-.72,7.84-1,4.69-.36,6.64-.36a78,78,0,0,1,19.45,2.39,43.26,43.26,0,0,1,9,3.38,33.64,33.64,0,0,1,7.37,5.12,21.36,21.36,0,0,1,7.17,16.66q0,6.65-5.12,13.09a49.37,49.37,0,0,1-9.89,9.26,123.11,123.11,0,0,1-12.28,7.6l4.25,3.06q2.11,1.53,4.58,3.19,3.64,2.52,6.8,4.78c2.11,1.5,4.09,2.9,5.95,4.18l6.14,4.25,7.4,5.11q3.85,2.59,7.08,4.69c2.14,1.39,3.93,2.53,5.34,3.42Z" transform="translate(-48 -27.37)"/><path class="cls-5" d="M555.54,55.8a7.2,7.2,0,0,1-.63,3.28A5.18,5.18,0,0,1,553.28,61a5.77,5.77,0,0,1-2.16.93,10.88,10.88,0,0,1-2.22.23c-1.6,0-3,0-4.28,0s-2.49-.06-3.69-.1-2.45-.08-3.75-.1-2.82,0-4.55,0c-1.11,0-2.38.06-3.82.2s-2.93.31-4.48.53-3.1.48-4.65.79-3,.62-4.32.93-2.49.63-3.48,1a11.9,11.9,0,0,0-2.16.89,2.58,2.58,0,0,0-.83,1.5,7.52,7.52,0,0,0-.37,2.16L506.8,85.81q-1,9.3-1.9,18.3T504,121.87c0,.8.06,1.94.2,3.42s.28,3,.46,4.42.33,2.74.47,3.85.2,1.7.2,1.79a11.43,11.43,0,0,1-.5,3.26,10.28,10.28,0,0,1-1.43,3,7.48,7.48,0,0,1-2.29,2.16,5.86,5.86,0,0,1-3.09.83,6,6,0,0,1-2.39-.56,11.6,11.6,0,0,1-2.46-1.53,11.43,11.43,0,0,1-2.12-2.26,11.19,11.19,0,0,1-1.46-2.75,20.32,20.32,0,0,1-.93-3.85c-.22-1.47-.4-3-.53-4.49s-.22-3-.27-4.51-.07-2.83-.07-4c0-2,.12-4.5.34-7.54s.49-6.28.83-9.76.69-7,1.09-10.62.79-7,1.16-10.16.71-5.93,1-8.27.48-4,.57-5a50.63,50.63,0,0,0-5.38.36c-2.17.25-4.52.52-7,.83q-4.78.6-9.83,1.13a90,90,0,0,1-9.56.53c-.62,0-1.49,0-2.59-.16a16.56,16.56,0,0,1-3.26-.67,9.12,9.12,0,0,1-2.79-1.39,2.83,2.83,0,0,1-1.19-2.36c-.09-.35-.15-.59-.17-.7a6.47,6.47,0,0,1,0-.83,12.14,12.14,0,0,1,.2-2.19,5.79,5.79,0,0,1,.73-2,4.83,4.83,0,0,1,1.56-1.56,9,9,0,0,1,2.62-1.06,61.75,61.75,0,0,1,8.3-1.43,85.38,85.38,0,0,1,9.17-.5c.57,0,1.65-.08,3.22-.26s3.41-.4,5.51-.67,4.36-.56,6.77-.89l6.91-1q3.29-.47,5.88-.87t3.78-.6q4.32-.8,8.63-1.72t8.64-1.8c2.87-.57,5.74-1,8.6-1.42a64,64,0,0,1,8.46-.57c.36,0,.93,0,1.73,0s1.7.07,2.72.16,2.09.22,3.22.4a21.87,21.87,0,0,1,3.16.73,4.62,4.62,0,0,1,2,1.2A9.32,9.32,0,0,1,554.24,52a10.5,10.5,0,0,1,1,2.09A5.82,5.82,0,0,1,555.54,55.8Z" transform="translate(-48 -27.37)"/><text class="cls-6" transform="translate(10.82 115.29)">S<tspan class="cls-4" x="83.21" y="0">T</tspan><tspan x="158.05" y="0">ART</tspan></text></g></g></svg>