<svg id="Warstwa_1" data-name="Warstwa 1" xmlns="http://www.w3.org/2000/svg" viewBox="0 0 2282.61 1498.8"><defs><style>.cls-1,.cls-5{fill:#fff;}.cls-2{fill:none;}.cls-3{opacity:0.9;}.cls-4{fill:#1da2d5;}.cls-5{opacity:0.3;}.cls-6{opacity:0.61;}.cls-7{fill:#ce2f6f;}</style></defs><title>Bez nazwy-2</title><rect class="cls-1" x="174.08" y="183.74" width="1920" height="1080"/><rect class="cls-2" x="142.09" y="-182.94" width="411.61" height="1144.9" transform="translate(6.01 492.4) rotate(-39.32)"/><g class="cls-3"><path class="cls-4" d="M-39.46-33.18c18.64-12.73,46.22-17.63,61.29-22.4,5.51.55,3.44,7.31,8.32,7.1C43.77-59.64,56-43.15,67.65-55.2c9.3,11.35,30.95,10,43.88,19.66,7-.69,14.18-2.75,20.36-9.09,9,7.83-7.62,13.82-6.44,23,33.44,13.05,48.51,50,80.72,61.53C202.41,43,197,41,192.75,42c-5.07,9.22,6.06,8.93,10.26,15.61,15,2.88,22.44-1.94,32.26-10,4.33,5.29,3.25,16.3-3.9,18.37L264.7,108.2a145.35,145.35,0,0,1,29.51,3.63c-4.26,14.87-18-8-23.75,8.08,3.93,9.41,11.66,15.73,21.82,11.19,8.28,14.7-3.13,45.54,25.08,41.39,25.1,6,47.22,28.31,64.68,48.12-13.21-6.87-37.83-24.62-50.1-41.1L337.45,194c-6.89-.68-5-12.33-12.88-17.27.49,2.14-5.21,10.6.37,17.4,4.12.42,4.53-3.71,4.81-6.47-.28,2.76,1.58,5,2.67,7.93-11.62,12.05-16.16-12-30.74-5.15l-13.62,11.15c2.47-10.86,12.8-16.8,11.26-29.44-9-.22-20.43-11.08-24.54,2.41,8.13,16.09-17.59,37.16-12.16,45.35,1.32,7.76,13.42-2.15,12.47,7.48-16.8,1.12-17.26,26.78-35.28,26.38-6.48-4.82-7.65-14-8.95-21.75l-16.59,6c-4.68-8.8-12.86-17.27-24.9-15-3.79,3.11-3.1,10.12-8.12,11.71-23.73,8.05-40.26-21.37-56.42-19.5-1.72,10.26,6.61,17.32,7.17,25.72-9.3-25.24-30.26,10.89-37.78-18.34-11.21,7.92,11,28.88-9.39,31.71-4.21-6.66-2.77-14.16,1.42-21.39-1.1-2.89-8.13-2.19-12.36-1.24-3,8.74,4.81,21.33-7.85,22.85-.55-8.39-1.87-16.16-6.69-23.59C48.9,238.22,36,221,27,234.67c5.45,8.17,3.06,25.28-7.32,25-8.06-9.84,8.7-38.74-15-38.31-3.1-3.78-12.58-6.13-11.14.27,4,15.69-11.73,27.31-15.24,41.56-4.18-6.68-.77-27.16,3.2-39.27-13.68-9-9.64-28.76-19.55-40.86-12.26-2.59-13.34,8.41-22.27,14.46,6.23-27.86-5.75-61-8.26-91.82l-17.13-2.4c14.78-15.9,5.63-28.62,15-46.45-4.19-6.68-7.78,1.32-12-5.35,15.34-7.51,1.1-24.9,16.77-28.91l-7.56-7.7c10.64-2.4,16.9-16.38,8.58-23.46C-50.8-10-42.19-19.56-39.46-33.18Z" transform="translate(174.08 183.74)"/><polygon class="cls-5" points="117.83 270.48 117.5 266.97 119.35 269.24 117.83 270.48"/><path class="cls-5" d="M-51.29,92.8-54.57,98l2,.89-7.64-.05C-54.23,101.53-57.53,92.86-51.29,92.8Z" transform="translate(174.08 183.74)"/><path class="cls-5" d="M-16.24,110.85c-3.17,3.86-2.76-.26-1.86-2.27A1.47,1.47,0,0,1-16.24,110.85Z" transform="translate(174.08 183.74)"/><path class="cls-5" d="M-50,136c2,.91.47,2.14.33,3.52C-50.29,138.74-53.54,136.35-50,136Z" transform="translate(174.08 183.74)"/><polygon class="cls-5" points="132.32 320.54 127.1 317.24 128.61 316.01 132.32 320.54"/><path class="cls-5" d="M-26.56,130.66c-7,.71-1.85-2.26-.35-3.49Z" transform="translate(174.08 183.74)"/><path class="cls-5" d="M-36.45,146.36c9.22,5.08-2.89,15,2.69,21.81-.69-7-8.12-16.08-14.3-9.76C-34.66,156.27-49.73,147.13-36.45,146.36Z" transform="translate(174.08 183.74)"/><path class="cls-5" d="M-18.38,139.14c-2.4,3.23-4.58-2.55-6.45-4.82C-21.26,140.23-21.19,132.6-18.38,139.14Z" transform="translate(174.08 183.74)"/><polygon class="cls-5" points="146.63 330.3 146.92 327.54 151.03 327.96 146.63 330.3"/><path class="cls-5" d="M-29.85,149.8l-1,3.37Z" transform="translate(174.08 183.74)"/><path class="cls-5" d="M-41.13,165.37l-6,4.93C-48.75,165.29-43.87,165.08-41.13,165.37Z" transform="translate(174.08 183.74)"/><path class="cls-5" d="M-24.21,149c5.73,5.43,7.08,5.58,4.7,8.79-3.67-12.16-8.47,8.21-9.65-.94l.62.76C-24.27,156.61-27.23,151.44-24.21,149Z" transform="translate(174.08 183.74)"/><path class="cls-5" d="M-15.81,148.43l.2,4.87Z" transform="translate(174.08 183.74)"/><polygon class="cls-5" points="140.89 360.3 135.03 356.25 139.15 356.66 140.89 360.3"/><path class="cls-5" d="M-16.56,162.94c2-6.75,3.71,4.53,8.53-1.94-4.94,7.84-6.18,6.33-12.8,2.9C-19.32,162.66-17.18,162.18-16.56,162.94Z" transform="translate(174.08 183.74)"/><polygon class="cls-5" points="149.27 359.74 149.67 355.63 151.67 356.51 149.27 359.74"/><polygon class="cls-5" points="172.71 340.54 174.57 342.81 168.6 340.12 172.57 341.92 172.71 340.54"/><path class="cls-5" d="M-19.92,189.7c-.76.62-.14,1.38-.88,2l-4.48-3.91Z" transform="translate(174.08 183.74)"/><path class="cls-5" d="M-3.28,176.07c-.74.6,16-.49,7,6.94l.55-5.51C-3.4,177.42,1,189,1,189l-3.31-8.66,1.4.12c-2.91,1.12-4.49-3.9-5.73-5.41C-5.76,173-6.16,177.16-3.28,176.07Z" transform="translate(174.08 183.74)"/><polygon class="cls-5" points="197.06 347.13 192.94 346.72 196.44 346.38 197.06 347.13"/><polygon class="cls-5" points="170.11 380.59 171.78 377.95 175.36 383.88 170.11 380.59"/><path class="cls-5" d="M-9.71,212.94l7.76-1.31Z" transform="translate(174.08 183.74)"/><path class="cls-5" d="M22.88,192.55c4.19,6.68,3,5.17,5.77,11.7C26.93,200.61,18.47,194.9,22.88,192.55Z" transform="translate(174.08 183.74)"/><path class="cls-5" d="M16.07,212c2.41-3.24-2.48-3-2.2-5.77l3.59,5.9Z" transform="translate(174.08 183.74)"/><path class="cls-4" d="M246.67,30.7c4.63,2.54,2,8.51-.8,8.24-6.8,5.58-10.67,2.42-16.51-1.64C229.55,28.29,241.19,30.14,246.67,30.7Z" transform="translate(174.08 183.74)"/><path class="cls-4" d="M349.57,106.92c14.73,5.63,35.23-4.85,42.59,11.87,1.72,3.65-5.84,9.84-9.83,8-23.86-4.45-62.18-3.4-61.65-36.7C330.59,88.35,342.76,98.6,349.57,106.92Z" transform="translate(174.08 183.74)"/><path class="cls-4" d="M105.7,330.72c3.24,2.39.44,9.74-3.09,10.1C110.93,334,94.78,335.88,105.7,330.72Z" transform="translate(174.08 183.74)"/><polygon class="cls-4" points="273 533.91 269.89 530.12 270.86 534.4 273 533.91"/><path class="cls-5" d="M255.81,225.44c-2.4,3.23-1.57,8.85-6.58,10.44C240,230.8,253.68,225.93,255.81,225.44Z" transform="translate(174.08 183.74)"/><polygon class="cls-1" points="494.73 364.9 490.89 361.73 492.25 361.88 494.73 364.9"/><path class="cls-4" d="M243.91,303.47l-2.56,4.59c1.64-2.6-1.46-6.39-2.83-6.53l-.4,4.13c-2.54,4.63-3.86-3.17-5.72-5.44C235.43,297.75,243.2,296.43,243.91,303.47Z" transform="translate(174.08 183.74)"/><path class="cls-4" d="M235.45,311.64l2.33,4.4Z" transform="translate(174.08 183.74)"/><path class="cls-4" d="M248.75,338.65c-7.51-1.42-3-5.14-5.93-10.31l5.83,4.08-2.2-19.7C252,319.53,251.57,331.31,248.75,338.65Z" transform="translate(174.08 183.74)"/><path class="cls-4" d="M223.9,343.84c.43,9.78,9.24,19,8.15,30-10.88-2.46-20.73-22.2-16-34.92Z" transform="translate(174.08 183.74)"/><polygon class="cls-5" points="393.44 531.29 393.31 532.67 391.13 526.9 398.06 533.84 393.44 531.29"/><rect class="cls-4" x="386.03" y="215.13" width="0.99" height="4.91" transform="translate(123.72 477.95) rotate(-39.32)"/><path class="cls-5" d="M225.42,356.5c-2.73-.26,3.72,4.53,3.93,9.42C227.43,371.29,216.28,357.68,225.42,356.5Z" transform="translate(174.08 183.74)"/><path class="cls-4" d="M380.48,229.48l5.21,3.3Z" transform="translate(174.08 183.74)"/><path class="cls-4" d="M417.9,244.32c-4.47-3.93-12-11.63-11.9-13Z" transform="translate(174.08 183.74)"/><path class="cls-4" d="M400.29,239.78l4,1.81Z" transform="translate(174.08 183.74)"/><path class="cls-4" d="M345.31,303.78c-9.31,2.58-.29,16.66,3.08,17.71-8.73-3-7.63-14-7.7-20.24Z" transform="translate(174.08 183.74)"/><polygon class="cls-4" points="520.35 491.8 520.64 489.04 523.73 492.81 520.35 491.8"/><path class="cls-4" d="M429,251.67c-.26,2.75-2.52,4.61-4,5.85,2.6,1.66,1.84-11.63-5-12.3C423.41,244.87,426.5,248.65,429,251.67Z" transform="translate(174.08 183.74)"/><path class="cls-4" d="M357.63,326.55c-1,3.39-9.14,1.17-8.89-1.57l4.13.41c3.78-3.1-1.43-6.4-3.3-8.67C356,315.28,355.15,323.53,357.63,326.55Z" transform="translate(174.08 183.74)"/><path class="cls-4" d="M386.17,339.82,385,344.58c-4.53,3.71-9.63-1-10.73-3.87C374.48,331.7,381.7,335.9,386.17,339.82Z" transform="translate(174.08 183.74)"/><path class="cls-4" d="M312.09,470c-2.26,1.85-3.22-2.42-4.45-3.93C309.14,464.86,310.84,468.5,312.09,470Z" transform="translate(174.08 183.74)"/><path class="cls-4" d="M318.78,479.7l2.21,5.8Z" transform="translate(174.08 183.74)"/><path class="cls-4" d="M330.57,508c3.24,2.43-1.44,7.51-4.81,6.48C325.76,514.45,327.19,507,330.57,508Z" transform="translate(174.08 183.74)"/><path class="cls-4" d="M552.19,578c-.9,2,1.72,3.61,2.34,4.37L544,569.47l14.43,8.4Z" transform="translate(174.08 183.74)"/><rect class="cls-4" x="571.38" y="601.73" width="1.97" height="7.83" transform="translate(-80.13 683.59) rotate(-39.32)"/><path class="cls-4" d="M585.84,595.88l.35,3.5c-3.51.34-4.63-2.55-5-6.06C584,593.6,584.59,594.36,585.84,595.88Z" transform="translate(174.08 183.74)"/><path class="cls-4" d="M590.47,626.21l2.26-1.85c-2.26,1.85-.54,5.5,2.08,7.14l-14.54-14.65C586.26,619.54,586,622.29,590.47,626.21Z" transform="translate(174.08 183.74)"/><path class="cls-4" d="M604.64,637.35c-7.14,2.06.34-10.41-7.65-14C596.33,630.25,611.86,627.64,604.64,637.35Z" transform="translate(174.08 183.74)"/><path class="cls-4" d="M750.3,793.53l3.11,3.8c-3.94,4.47-10.81,3.79-12.26-2.62C744,793.61,747.68,791.9,750.3,793.53Z" transform="translate(174.08 183.74)"/></g><g class="cls-6"><path class="cls-7" d="M2108.53,968.19a483.8,483.8,0,0,0-29.15-75.41c-10.63-21.55-21.94-39.51-33.66-53.81s-23.86-24.91-36.32-31.83a81.21,81.21,0,0,0-9.39-4.5,67,67,0,0,0-9.5-3.08,70.84,70.84,0,0,0-20-1.89c-3.75.17-8.44.44-13.93.81s-11.79,1-18.75,1.68l-22.79,2.32c-8.17,1-16.89,2.1-26,3.26-36.48,4.85-79.48,11.69-120.43,20.31l-7.66,1.54-7.59,1.67-15,3.32-14.58,3.26-14.1,3.45-13.52,3.32c-4.4,1.09-8.69,2.11-12.84,3.26l-23.28,6.27c-3.57,1-7,1.86-10.24,2.81l-9.17,2.69L1625.86,862l-9.45,2.8-3.31,1-12.81,3.84c-8.19,2.48-20,5.89-34.2,10.65-28.53,9.06-67,22.82-106.79,39.3l-15,6.22-15,6.63-14.94,6.66-3.73,1.68-3.74,1.76-7.45,3.51-7.39,3.51-7.4,3.65-7.31,3.62-3.63,1.81-3.63,1.88L1355.85,968l-13.84,7.6c-2.26,1.26-4.48,2.44-6.7,3.75l-6.59,3.83-6.39,3.76c-2.11,1.25-4.16,2.41-6.22,3.72l-11.86,7.41c-1.91,1.21-3.76,2.34-5.59,3.56l-5.39,3.59-10,6.73-2.31,1.58c-.76.55-1.51,1.1-2.26,1.63l-4.28,3.12-7.6,5.61-3.3,2.48c-1,.81-2,1.62-3,2.37-27.38,21.86-40,54.29-37.19,93.89q.52,7.5,1.77,15.23c.41,2.57.89,5.17,1.42,7.78s1.11,5.22,1.79,8a241.72,241.72,0,0,0,10.94,33.23,297.32,297.32,0,0,0,17.24,34.9,331.13,331.13,0,0,0,24,35.53c14.86,2.86,28.39,6.25,40.8,9.92,12.65,3.78,24.12,7.76,34.51,11.71,10.65,4,20.28,8,28.92,11.73l12.62,5.45,11.34,5c14.52,6.28,26,10.93,35.62,12.93s17.26,1.39,23.92-2.73l1.41-.91,1.69-1c1.18-.72,2.46-1.52,3.82-2.4l2.12-1.37,1.11-.73,1.22-.75,5.28-3.24c.92-.58,1.86-1.18,2.83-1.78s2.06-1.22,3.12-1.85l6.65-4c1.11-.69,2.4-1.37,3.63-2.08L1505,1289l3.9-2.23c1.3-.76,2.76-1.49,4.16-2.26l8.68-4.7,9.37-4.84,2.38-1.24,2.49-1.23,5-2.49,5.08-2.53,5.28-2.51,5.33-2.54,2.68-1.28,2.76-1.25,11.14-5,11.15-5.06,11.28-4.77c29.92-12.73,59.3-23.83,81.43-31.24,11-3.92,20.18-6.75,26.55-8.82l10-3.22,2.61-.77,7.52-2,11.76-3.21,7.28-2c2.56-.71,5.32-1.35,8.18-2.08l18.58-4.68c3.3-.87,6.76-1.62,10.29-2.44l10.86-2.49,11.31-2.61,11.77-2.47,12.07-2.53,6.13-1.29,6.2-1.18c33.11-6.65,68.26-12,98.15-16.27l21.33-3,18.75-2.34c5.73-.72,10.88-1.51,15.41-2s8.38-1.07,11.46-1.54a50.71,50.71,0,0,0,16-5.23,55.58,55.58,0,0,0,7.22-4.5,59.46,59.46,0,0,0,6.61-5.72c8.45-8.45,15.63-20.23,22.72-35.27s14.07-33.33,22.33-54.74S2096,995.38,2108.53,968.19Z" transform="translate(174.08 183.74)"/></g></svg>