<svg id="Warstwa_1" data-name="Warstwa 1" xmlns="http://www.w3.org/2000/svg" xmlns:xlink="http://www.w3.org/1999/xlink" viewBox="0 0 1941.3 1126.43"><defs><style>.cls-1,.cls-7{fill:#fff;}.cls-2{opacity:0.85;}.cls-3{fill:#f65eff;}.cls-4{fill:none;}.cls-5{opacity:0.9;}.cls-6{fill:#ff2424;}.cls-7{opacity:0.3;}.cls-8{fill:#78ae47;}.cls-9{fill:url(#Gradient_bez_nazwy_26);}.cls-10{fill:#b11dca;}.cls-11{fill:#1da350;}</style><linearGradient id="Gradient_bez_nazwy_26" x1="280.85" y1="431.69" x2="1675.89" y2="431.69" gradientUnits="userSpaceOnUse"><stop offset="0" stop-color="#00a0db"/><stop offset="0.2" stop-color="#362983"/><stop offset="0.4" stop-color="#e4007d"/><stop offset="0.6" stop-color="#e31f21"/><stop offset="0.83" stop-color="#ffe900"/><stop offset="1" stop-color="#009447"/></linearGradient></defs><title>Bez nazwy-3</title><rect class="cls-1" x="19.86" y="40.27" width="1920" height="1080"/><g class="cls-2"><path class="cls-1" d="M1921.38,586.45c0-19.9,0-40,0-60-.07,10.07-.17,20-.34,30.25C1921,569.79,1921.19,576.63,1921.38,586.45Z" transform="translate(19.8 40.27)"/><path class="cls-1" d="M1921.48,471c0-3.63,0-7.26,0-10.64,0-3.22-.06-6.32-.08-9.1C1921.43,457.78,1921.46,464.42,1921.48,471Z" transform="translate(19.8 40.27)"/><path class="cls-1" d="M1921.24,366.56c-.06,18.45,0,36.12,0,53.17C1921.35,404.67,1921.35,387.16,1921.24,366.56Z" transform="translate(19.8 40.27)"/><path class="cls-1" d="M1921,449.76c.15-6.42.3-9.57.4,1,0,.13,0,.26,0,.44-.05-10.41-.09-20.73-.13-31.5C1921.22,431,1921.13,441.09,1921,449.76Z" transform="translate(19.8 40.27)"/><path class="cls-1" d="M1921,449.76c-.11,6.19-.28,16.05-.34,19.41C1920.76,463.53,1920.87,457,1921,449.76Z" transform="translate(19.8 40.27)"/><path class="cls-1" d="M1917.61,423.42c-.1-10.54.86-8.05.64-28.89-.27-48.87-.7-90.68-.7-136.44-.22-20.83.85-53.69.63-74.49-.27-49-1.56-174.09-1.5-100.39.23,110.86.38,183.13.58,282.61.4,80.83.78,158.55,1.19,241.32,0,23.18,0,44.82-.09,66.62.14-28.45.28-57.57.44-89.88C1919.06,541.32,1917.83,490,1917.61,423.42Z" transform="translate(19.8 40.27)"/><path class="cls-1" d="M1920.8,1028.26c-.1-10.36-.32-31.29-.32-31.29.69-46.55.42-95.45.15-144.34-.15,7.11-.31,14.36-.48,21.69.06,28,.33,31.21.54,6.38-.59,56.9-.68,110.71-.58,165.82C1920.37,1043.08,1920.67,1043.79,1920.8,1028.26Z" transform="translate(19.8 40.27)"/><path class="cls-1" d="M1920.19,1078.83c0-10.81,0-21.68-.08-32.31,0,.24,0,.75-.08,1.16,0,10.87.09,21.71.14,32.32C1920.17,1079.63,1920.18,1079.22,1920.19,1078.83Z" transform="translate(19.8 40.27)"/><path class="cls-1" d="M1920.36,145c0-50.8,0-100.51,0-145.32L1667.78-.41c-9.82.19-16.69.41-29.88.3-10-.17-20-.28-30-.35l-55.76,0-19.66.08H1532c-10.46.11-7.35.26-.88.4l19.51.35L1531.09,0c-8.8-.12-18.58-.22-30-.27-17,.06-34.77.09-53.12,0,20.42-.11,38-.11,53.12,0l31.45-.13,9.07-.09L1414.34-.65l-26.64.07c-30.69.13-61.28.26-80.23-.21l-22.75,0,4.38.08-8.53-.09-96.24-.12-63.75.54L1099-.88c-8.73.24-21.21.4-35.82.48L1111,.4c21.6.48,48.24-1,73.72-.06-25.48-.9-52.12.54-73.72.06l-47.85-.8c-30.39.17-69.73,0-101.4-.47,39.33-.4,72.44,0,101.4.47,14.61-.08,27.09-.24,35.82-.48l21.6.48,63.75-.54L993.07-1.19-1.88-1.94-2.09,242.6c-.43,234.63-.84,460-1.25,681.11q-.15,80.81-.31,160l565.67.39c186.37.15,374.12.49,570.25,1.56,171,.85,488.29.39,653.1.29,220.82-1.59,106.34-5.71,96-6-135.74-3.51-241.95-1.56-518.53-3.62,188.39,1.17-139,2.26-316.9-.15-257.41-3.66-624.52-.73-942.1-1.67l-98.17-.13c0-46.88,0-96.41,0-149.35.39-157.14.51-310.73.48-463.87C6,310,5.92,159.19,5.82,5.76l535.82-.19c137.12,0,257.57-.9,373-1.39,84.33-.16,174.44.31,243,.31,107.79,0,200.61-.35,289.46-.77l-282.6.58c-73.84.06,51.35-1.23,100.25-1.51,20.93-.21,53.79.86,74.74.64,45.52,0,87.32-.43,136.18-.7,21-.22,18.52.74,29,.64,66.61-.22,118-1.45,160.52-1.19l89.87.44,54.82.06,36.23-.24c-9.68-.3-13.17-.66-16.41-1l60,.32-60-.32c3.24.36,6.73.72,16.41,1L1918.06,2c.33,66.39.7,138.55,1,206.92,0-.37.06-.89.08-1.26-.1-55,0-108.61.58-165.69-.22,24.69-.48,21.65-.54-6.5.16-7.21.32-14.45.48-21.56.27,49,.54,97.91-.15,144.31,0,0,.21,21,.32,31.36-.13,15.53-.43,14.82-.69,18.08,0,10.72,0,21.57.08,32.45C1919.74,217.22,1920.36,145,1920.36,145Z" transform="translate(19.8 40.27)"/><path class="cls-1" d="M1499.81-.33l26.48-.07L1419.46-.53C1438.36-.07,1469-.2,1499.81-.33Z" transform="translate(19.8 40.27)"/></g><path class="cls-3" d="M337.16,97.26" transform="translate(19.8 40.27)"/><rect class="cls-4" x="196.29" y="-39.73" width="281.32" height="782.51" transform="translate(-126.67 333.41) rotate(-39.32)"/><g class="cls-5"><path class="cls-6" d="M72.21,62.63c12.73-8.7,31.59-12.05,41.89-15.31,3.76.37,2.35,5,5.68,4.85,9.31-7.63,17.69,3.64,25.64-4.59,6.35,7.75,21.14,6.86,30,13.43,4.81-.47,9.69-1.88,13.92-6.21,6.13,5.35-5.21,9.45-4.4,15.7,22.85,8.92,33.15,34.18,55.17,42.05-2.57,2.11-6.25.81-9.17,1.46-3.47,6.31,4.14,6.11,7,10.68,10.25,2,15.33-1.33,22.05-6.84,3,3.62,2.22,11.14-2.67,12.56l22.78,28.85a99.48,99.48,0,0,1,20.17,2.47c-2.91,10.17-12.28-5.48-16.23,5.53,2.68,6.43,8,10.75,14.91,7.65C304.6,185,296.8,206,316.08,203.19c17.16,4.09,32.27,19.35,44.21,32.9-9-4.7-25.86-16.84-34.24-28.1l3.76,9.87c-4.7-.46-3.42-8.43-8.8-11.8.33,1.46-3.56,7.24.25,11.89,2.82.29,3.1-2.53,3.29-4.42-.19,1.89,1.08,3.44,1.83,5.42-7.95,8.23-11.05-8.24-21-3.52l-9.3,7.62c1.68-7.42,8.74-11.48,7.69-20.12-6.15-.15-14-7.57-16.77,1.65,5.55,11-12,25.39-8.31,31,.9,5.3,9.17-1.47,8.52,5.11-11.48.77-11.79,18.31-24.11,18-4.43-3.29-5.23-9.54-6.12-14.86L245.63,248c-3.2-6-8.8-11.81-17-10.25-2.6,2.13-2.12,6.92-5.55,8-16.22,5.51-27.52-14.6-38.57-13.33-1.17,7,4.52,11.85,4.91,17.58-6.36-17.25-20.69,7.44-25.83-12.53-7.66,5.41,7.54,19.74-6.41,21.67-2.88-4.55-1.9-9.68,1-14.62-.76-2-5.56-1.49-8.45-.85-2,6,3.28,14.58-5.37,15.63-.38-5.74-1.27-11-4.57-16.13-7.14,5-15.93-6.81-22.1,2.56,3.72,5.59,2.09,17.28-5,17.07-5.51-6.73,6-26.48-10.23-26.18-2.11-2.59-8.59-4.19-7.61.18,2.74,10.72-8,18.67-10.42,28.41-2.85-4.57-.53-18.57,2.19-26.85C77.21,232.17,80,218.67,73.2,210.4c-8.38-1.77-9.12,5.75-15.23,9.88,4.26-19-3.92-41.7-5.64-62.76l-11.7-1.64c10.1-10.86,3.84-19.56,10.28-31.74-2.87-4.57-5.32.9-8.19-3.66,10.48-5.13.74-17,11.46-19.76L49,95.46c7.27-1.64,11.55-11.2,5.86-16C64.46,78.48,70.34,71.94,72.21,62.63Z" transform="translate(19.8 40.27)"/><polygon class="cls-7" points="80.54 184.87 80.31 182.46 81.58 184.01 80.54 184.87"/><path class="cls-7" d="M64.12,148.73l-2.24,3.56,1.36.61-5.22,0C62.11,154.69,59.86,148.77,64.12,148.73Z" transform="translate(19.8 40.27)"/><path class="cls-7" d="M88.07,161.07c-2.16,2.63-1.88-.18-1.27-1.56A1,1,0,0,1,88.07,161.07Z" transform="translate(19.8 40.27)"/><path class="cls-7" d="M65,178.24c1.35.62.32,1.47.23,2.41C64.81,180.13,62.58,178.49,65,178.24Z" transform="translate(19.8 40.27)"/><polygon class="cls-7" points="90.44 219.08 86.87 216.82 87.9 215.98 90.44 219.08"/><path class="cls-7" d="M81,174.61c-4.8.48-1.27-1.55-.25-2.39Z" transform="translate(19.8 40.27)"/><path class="cls-7" d="M74.27,185.34c6.3,3.47-2,10.25,1.83,14.9-.47-4.79-5.55-11-9.77-6.67C75.48,192.11,65.19,185.86,74.27,185.34Z" transform="translate(19.8 40.27)"/><path class="cls-7" d="M86.61,180.4c-1.63,2.21-3.13-1.74-4.4-3.3C84.65,181.15,84.69,175.93,86.61,180.4Z" transform="translate(19.8 40.27)"/><polygon class="cls-7" points="100.22 225.75 100.42 223.87 103.23 224.15 100.22 225.75"/><path class="cls-7" d="M78.78,187.69l-.7,2.3Z" transform="translate(19.8 40.27)"/><path class="cls-7" d="M71.07,198.33,67,201.7C65.86,198.27,69.19,198.13,71.07,198.33Z" transform="translate(19.8 40.27)"/><path class="cls-7" d="M82.63,187.12c3.91,3.71,4.84,3.81,3.21,6-2.51-8.31-5.79,5.61-6.59-.64l.42.51C82.59,192.34,80.57,188.81,82.63,187.12Z" transform="translate(19.8 40.27)"/><path class="cls-7" d="M88.37,186.75l.14,3.33Z" transform="translate(19.8 40.27)"/><polygon class="cls-7" points="96.29 246.25 92.29 243.48 95.1 243.77 96.29 246.25"/><path class="cls-7" d="M87.85,196.67c1.41-4.62,2.54,3.1,5.84-1.33-3.38,5.36-4.23,4.33-8.75,2C86,196.47,87.43,196.15,87.85,196.67Z" transform="translate(19.8 40.27)"/><polygon class="cls-7" points="102.02 245.87 102.29 243.06 103.67 243.66 102.02 245.87"/><polygon class="cls-7" points="118.05 232.75 119.31 234.3 115.23 232.46 117.95 233.69 118.05 232.75"/><path class="cls-7" d="M85.56,215c-.52.42-.1.94-.6,1.35l-3.06-2.67Z" transform="translate(19.8 40.27)"/><path class="cls-7" d="M96.93,205.64c-.5.41,11-.33,4.76,4.75l.37-3.77c-5.21-.05-2.2,7.85-2.2,7.85l-2.27-5.92,1,.08c-2,.77-3.07-2.66-3.92-3.69C95.24,203.57,95,206.39,96.93,205.64Z" transform="translate(19.8 40.27)"/><polygon class="cls-7" points="134.68 237.25 131.87 236.97 134.26 236.74 134.68 237.25"/><polygon class="cls-7" points="116.27 260.12 117.41 258.32 119.85 262.37 116.27 260.12"/><path class="cls-7" d="M92.54,230.84l5.3-.89Z" transform="translate(19.8 40.27)"/><path class="cls-7" d="M114.81,216.91c2.87,4.56,2,3.53,4,8C117.58,222.41,111.8,218.51,114.81,216.91Z" transform="translate(19.8 40.27)"/><path class="cls-7" d="M110.16,230.22c1.65-2.21-1.69-2.06-1.51-3.95l2.46,4Z" transform="translate(19.8 40.27)"/><path class="cls-6" d="M267.77,106.29c3.16,1.73,1.33,5.81-.55,5.63-4.65,3.81-7.29,1.65-11.28-1.12C256.07,104.64,264,105.9,267.77,106.29Z" transform="translate(19.8 40.27)"/><path class="cls-6" d="M338.1,158.38c10.06,3.85,24.08-3.31,29.11,8.11,1.17,2.49-4,6.73-6.72,5.51-16.31-3.05-42.5-2.33-42.14-25.09C325.12,145.69,333.44,152.69,338.1,158.38Z" transform="translate(19.8 40.27)"/><path class="cls-6" d="M171.42,311.34c2.22,1.64.3,6.66-2.11,6.9C175,313.58,164,314.86,171.42,311.34Z" transform="translate(19.8 40.27)"/><polygon class="cls-6" points="186.59 364.92 184.46 362.32 185.13 365.25 186.59 364.92"/><path class="cls-7" d="M274,239.38c-1.64,2.21-1.08,6.06-4.5,7.14C263.21,243.05,272.56,239.72,274,239.38Z" transform="translate(19.8 40.27)"/><polygon class="cls-1" points="338.13 249.4 335.51 247.23 336.44 247.33 338.13 249.4"/><path class="cls-6" d="M265.88,292.72l-1.75,3.13c1.12-1.77-1-4.36-1.93-4.46l-.28,2.82c-1.73,3.17-2.63-2.16-3.9-3.71C260.08,288.8,265.39,287.91,265.88,292.72Z" transform="translate(19.8 40.27)"/><path class="cls-6" d="M260.1,298.3l1.59,3Z" transform="translate(19.8 40.27)"/><path class="cls-6" d="M269.19,316.76c-5.14-1-2-3.51-4.06-7l4,2.78L267.62,299C271.43,303.69,271.12,311.74,269.19,316.76Z" transform="translate(19.8 40.27)"/><path class="cls-6" d="M252.2,320.31c.3,6.68,6.32,13,5.57,20.49-7.43-1.68-14.17-15.17-10.94-23.87Z" transform="translate(19.8 40.27)"/><polygon class="cls-7" points="268.91 363.12 268.81 364.06 267.32 360.12 272.06 364.87 268.91 363.12"/><rect class="cls-6" x="363.02" y="232.34" width="0.68" height="3.35" transform="translate(-46.22 323.53) rotate(-39.32)"/><path class="cls-7" d="M253.25,329c-1.87-.18,2.53,3.1,2.68,6.44C254.62,339.07,247,329.76,253.25,329Z" transform="translate(19.8 40.27)"/><path class="cls-6" d="M359.22,242.14l3.57,2.26Z" transform="translate(19.8 40.27)"/><path class="cls-6" d="M384.8,252.29c-3.05-2.69-8.24-7.95-8.14-8.89Z" transform="translate(19.8 40.27)"/><path class="cls-6" d="M372.76,249.18l2.73,1.24Z" transform="translate(19.8 40.27)"/><path class="cls-6" d="M335.19,292.93c-6.37,1.76-.2,11.39,2.1,12.1-6-2-5.21-9.55-5.26-13.83Z" transform="translate(19.8 40.27)"/><polygon class="cls-6" points="355.65 336.13 355.84 334.25 357.95 336.82 355.65 336.13"/><path class="cls-6" d="M392.37,257.31c-.18,1.88-1.73,3.15-2.76,4,1.78,1.13,1.26-7.95-3.44-8.41C388.56,252.67,390.67,255.25,392.37,257.31Z" transform="translate(19.8 40.27)"/><path class="cls-6" d="M343.6,308.49c-.71,2.31-6.24.8-6.07-1.07l2.82.28c2.59-2.12-1-4.38-2.25-5.93C342.47,300.79,341.91,306.42,343.6,308.49Z" transform="translate(19.8 40.27)"/><path class="cls-6" d="M363.11,317.56l-.78,3.25c-3.1,2.54-6.59-.67-7.34-2.64C355.12,312,360.06,314.88,363.11,317.56Z" transform="translate(19.8 40.27)"/><path class="cls-6" d="M312.48,406.55c-1.55,1.27-2.2-1.65-3-2.69C310.46,403,311.63,405.51,312.48,406.55Z" transform="translate(19.8 40.27)"/><path class="cls-6" d="M317.05,413.16l1.52,4Z" transform="translate(19.8 40.27)"/><path class="cls-6" d="M325.11,432.48c2.21,1.67-1,5.14-3.28,4.43C321.83,436.91,322.8,431.79,325.11,432.48Z" transform="translate(19.8 40.27)"/><path class="cls-6" d="M476.58,480.32c-.62,1.35,1.18,2.47,1.6,3l-7.2-8.79,9.86,5.74Z" transform="translate(19.8 40.27)"/><rect class="cls-6" x="489.69" y="496.57" width="1.34" height="5.35" transform="translate(-185.54 464.08) rotate(-39.32)"/><path class="cls-6" d="M499.58,492.57l.24,2.39c-2.4.24-3.16-1.74-3.39-4.14A3.7,3.7,0,0,1,499.58,492.57Z" transform="translate(19.8 40.27)"/><path class="cls-6" d="M502.75,513.3l1.54-1.27c-1.54,1.27-.37,3.77,1.42,4.88l-9.94-10C499.86,508.74,499.68,510.62,502.75,513.3Z" transform="translate(19.8 40.27)"/><path class="cls-6" d="M512.43,520.92c-4.88,1.4.23-7.12-5.23-9.55C506.75,516.06,517.36,514.28,512.43,520.92Z" transform="translate(19.8 40.27)"/><path class="cls-6" d="M612,627.66l2.13,2.59c-2.69,3.06-7.39,2.6-8.38-1.79C607.71,627.71,610.2,626.55,612,627.66Z" transform="translate(19.8 40.27)"/></g><path class="cls-8" d="M1822,469.32c-.22,5.77,33.39-28.55,40-34.08-6.41,1.07-18.58,11.85-28.09,21.21S1817.59,473.73,1822,469.32Z" transform="translate(19.8 40.27)"/><path class="cls-8" d="M1704.88,509.36l13.26-14.44q-9.21,7.93-18.29,16c-6.06,5.37-12.06,10.84-18,16.31q5.7-4.54,11.46-9T1704.88,509.36Z" transform="translate(19.8 40.27)"/><path class="cls-8" d="M1668.26,480.29c-10.88,17.36-15.1,25.88-15.43,29.38s3.27,2.07,8-.62,10.54-6.56,14.55-8,6.15-.45,3.34,6.57l-10.32,15.6q21.51-25,43.37-49.65c-3.74.39-8.9,2.22-14.3,4.72s-11.13,5.35-16.1,7.52-9.18,3.59-11.68,3.05S1666.39,486,1668.26,480.29Z" transform="translate(19.8 40.27)"/><path class="cls-8" d="M1744.66,318.36c-7.9,13.87-13,18.76-13.46,19.26s3.46-3.45,13.81-7.12c1.36-3.26,2.3-5.05,3.39-7.42C1747.14,322.8,1745.78,321.84,1744.66,318.36Z" transform="translate(19.8 40.27)"/><path class="cls-8" d="M1748.4,323.08c6.23,1.33,11.44-24.5,0,0Z" transform="translate(19.8 40.27)"/><path class="cls-8" d="M1716.27,324.3q10.56-10.2,21.31-20.26c8.65-16.78,5-24.05,14.31-34.32C1736.84,278.73,1728.78,295.73,1716.27,324.3Z" transform="translate(19.8 40.27)"/><path class="cls-8" d="M1679.53,371.84l9.27-8.44C1692.37,356.34,1692.93,353.46,1679.53,371.84Z" transform="translate(19.8 40.27)"/><path class="cls-8" d="M1708.69,345.8q-10.05,8.73-19.89,17.6c-6,11.83-19.82,34.47,7.78-6C1683.38,377.75,1696.78,358.65,1708.69,345.8Z" transform="translate(19.8 40.27)"/><path class="cls-8" d="M1705.83,358.7c-1.53,4.29-2.8,8.25-4.16,12.12a93.74,93.74,0,0,1-4.74,11.51c-3.85,7.72-9.64,15.71-20,25.88,8.38-1.32,20.14-14.15,27.54-26.47,3.7-6.16,6.29-12.19,6.81-16.57.27-2.19,0-4-.86-5.12S1708,358.37,1705.83,358.7Z" transform="translate(19.8 40.27)"/><path class="cls-8" d="M1618,548.43q-5.17,11-10.51,21.88c6.2-6.82,12.46-13.64,18.75-20.35-4.68,5-3-.61-2.15-4.91S1625.2,537.83,1618,548.43Z" transform="translate(19.8 40.27)"/><path class="cls-8" d="M1698.71,265.13c-8.75,15.06-20.31,41.8-30.69,61.51q7-7.54,14.06-15.05C1685.67,299.94,1686.62,287.93,1698.71,265.13Z" transform="translate(19.8 40.27)"/><path class="cls-8" d="M1668,326.64q-10.45,11.31-20.71,22.72C1651.17,355.51,1659.07,343.64,1668,326.64Z" transform="translate(19.8 40.27)"/><path class="cls-8" d="M1631.74,449.11q20.84-24.06,42.5-47.6c-15.23,15.54-30.17,31.23-44.73,47.24C1630.25,448.86,1631,449,1631.74,449.11Z" transform="translate(19.8 40.27)"/><path class="cls-8" d="M1674,249.49q11.05-17,22.36-33.82c-11.75,16.75-23.21,33.72-34.62,50.68Z" transform="translate(19.8 40.27)"/><path class="cls-8" d="M1654.33,247.45c8.74-14.28,14.11-27.38,18.75-39s8.54-21.91,14.57-30.4c-7.24,3.07-23.74,27-38.3,48.53C1659.18,215.31,1661.56,220.58,1654.33,247.45Z" transform="translate(19.8 40.27)"/><path class="cls-8" d="M1627.55,257.72c5.11-6.45,13.18-18.44,21.8-31.19C1644.11,232.57,1637.39,241.61,1627.55,257.72Z" transform="translate(19.8 40.27)"/><path class="cls-8" d="M1640.92,336.18c4.44-9.55,16.38-34.41,18.12-46.64l-20.2,44.71A28.18,28.18,0,0,0,1640.92,336.18Z" transform="translate(19.8 40.27)"/><path class="cls-8" d="M1638.19,335.69l.65-1.44a31.94,31.94,0,0,1-4-5.19C1635.32,329.81,1636.37,331.75,1638.19,335.69Z" transform="translate(19.8 40.27)"/><path class="cls-8" d="M1641.43,336.7a1.69,1.69,0,0,0-.51-.52C1638.9,340.57,1638.29,342.07,1641.43,336.7Z" transform="translate(19.8 40.27)"/><path class="cls-8" d="M1638.89,401.94c-8.55,10.85-18.1,21.81-27.21,35a207.57,207.57,0,0,0-24.86,48.71c9.33-14,16.06-26.65,23.54-40S1626.06,418.32,1638.89,401.94Z" transform="translate(19.8 40.27)"/><path class="cls-8" d="M1615.62,392.33l.81,13.13c6.06-11.42,13.88-28.66,22.14-39.63q-5.83,6.53-11.55,13.19Z" transform="translate(19.8 40.27)"/><polygon class="cls-8" points="1625.15 444.77 1635.42 432.61 1635.09 427.75 1625.15 444.77"/><path class="cls-8" d="M1618.67,304.36c-12.09,17.83-15.78,18-20.58,19.49-.6,10.41.74,16.85,4.22,18.44C1609.57,328.7,1623.33,304.71,1618.67,304.36Z" transform="translate(19.8 40.27)"/><path class="cls-8" d="M1626.2,323.3c-.69.89-1.19,1.27-1.87,2.18C1622.84,329.37,1622.54,330.72,1626.2,323.3Z" transform="translate(19.8 40.27)"/><path class="cls-8" d="M1566.72,309c-1.09,2.88-2,5.4-3.16,8.34,1.21-2.59,2.14-4.57,3.58-7.67Z" transform="translate(19.8 40.27)"/><path class="cls-8" d="M1598.88,350.76c-1.57,9.76,5.26-.24,13.58-13-4.26,3.36-7.72,5.24-10.15,4.5C1599,348.41,1597,352.51,1598.88,350.76Z" transform="translate(19.8 40.27)"/><path class="cls-8" d="M1608.48,274.05c-2.93,9.94-5,18.53-6.81,26.55C1607,286,1614.39,262.73,1608.48,274.05Z" transform="translate(19.8 40.27)"/><path class="cls-8" d="M1629.49,312.91c.49-.63,1-1.36,1.4-1.74C1634.7,301.31,1632.5,306,1629.49,312.91Z" transform="translate(19.8 40.27)"/><path class="cls-8" d="M1629.49,312.91c-4.61,5.57-11.14,15.82-17,24.88a73.77,73.77,0,0,0,11.87-12.31C1625.55,322.21,1627.57,317.33,1629.49,312.91Z" transform="translate(19.8 40.27)"/><path class="cls-8" d="M1430.45,592.57c9.35-20.69,19.64-40,25.78-48.33s8.11-5.61.46,17.68c9.31-14.46,28.76-56,49.52-103.7s42.73-101.68,57.35-140.91c-8.27,18-15.85,34.67-32.23,56.74-4.07,11.76-7,26.32-11.59,42.38s-10.93,33.59-21.57,51.32c-16.4,18.28,1-17.14,7.33-40.62-10,26.51-20.61,44.34-32.52,65.22a673.18,673.18,0,0,0-41.16,83.21q8.64-12.22,17.35-24.36C1444,563.07,1433.7,581.09,1430.45,592.57Z" transform="translate(19.8 40.27)"/><path class="cls-8" d="M1572.71,326.58l4.76-4.05c.56-8.42,6.2-25.79,17.14-59.85a277.2,277.2,0,0,0-27.47,47l9.22,11.15Z" transform="translate(19.8 40.27)"/><path class="cls-8" d="M1588.52,327.51c-11.51,21.9-20.9,36.94-29.77,52.78a421,421,0,0,0-26.9,57.47c8,0,22.17-35.17,35.47-52.6-8.16,2.93-4.43-2.92,1.86-13.13s15.21-24.75,17-39.36c5.86-6.52,9-7.89,11.89-8.82a172,172,0,0,1,3.58-23.25c-.42,1.16-.71,2-1,2.91l.12-.12-.34.7c-2.13,5.8-3.56,9.27-2.61,5.77a2.5,2.5,0,0,1-.67.8c-3,6.18-5.8,11.5-8.49,16.6,1-10.8,4.93-11.86,8.49-16.6,1.06-2.16,2.16-4.24,3.28-6.57l.22-.58c-7.8,6.3-15.58,12.59-23.16,19C1577,329.87,1580.66,330.07,1588.52,327.51Z" transform="translate(19.8 40.27)"/><path class="cls-8" d="M1529.74,575.52c1.82-4,3.54-7.06,5.25-10.21C1531.46,570.27,1529.24,573.78,1529.74,575.52Z" transform="translate(19.8 40.27)"/><path class="cls-8" d="M1540.19,547.21c4-5.67,14.07-22.68,14-16.9-5.15,14.11-11.47,20.71-19.18,35,3.83-5.37,9.31-12.46,14.78-21.11a124.58,124.58,0,0,0,14.46-30.65l-4,5.49c2.07-8.54,9.1-27.14,16-44.29s13.68-32.9,15.68-35.68C1572.25,479,1558.41,507.44,1540.19,547.21Z" transform="translate(19.8 40.27)"/><path class="cls-8" d="M1560.93,449.3l-9.88,8.59c-3.27,2.88-6.51,5.81-9.75,8.73q-7.2,20.28-14.59,40.46L1537.92,484C1538.29,495.44,1551.42,466.64,1560.93,449.3Z" transform="translate(19.8 40.27)"/><path class="cls-8" d="M1575.7,286.07l22.6-47q-17.86,32.37-35.52,64.84Z" transform="translate(19.8 40.27)"/><path class="cls-8" d="M1561,286.38l18.7-41.36q-7.17,11.79-14.23,23.66Z" transform="translate(19.8 40.27)"/><path class="cls-8" d="M831.09,687.48l-2.2,12.83A97.76,97.76,0,0,0,831.09,687.48Z" transform="translate(19.8 40.27)"/><path class="cls-8" d="M845.7,690.91l1-22.33C845.65,680.88,845.13,689.94,845.7,690.91Z" transform="translate(19.8 40.27)"/><path class="cls-8" d="M1256.92,186.65c6.4-42.12,17.52-107.15,5.59-57.5l-10.84,48.54C1256.78,169.83,1257.69,175.79,1256.92,186.65Z" transform="translate(19.8 40.27)"/><path class="cls-8" d="M1000.76,438.86c-.3,4.92-.62,10-.93,15.11,3.14-16.85,6.1-32.7,8.74-46.85C1006.22,416.67,1003.56,427.5,1000.76,438.86Z" transform="translate(19.8 40.27)"/><path class="cls-8" d="M971.68,642.67l-.07-32.32C971.15,621.58,971.13,632.35,971.68,642.67Z" transform="translate(19.8 40.27)"/><path class="cls-8" d="M754.1,741.82l.74,50.69C758.15,792.05,755.25,766.65,754.1,741.82Z" transform="translate(19.8 40.27)"/><path class="cls-8" d="M1430.91,254.16c3.14-19.5,3.08-28.19,1.44-31.33C1427,251.23,1415.74,292.68,1430.91,254.16Z" transform="translate(19.8 40.27)"/><path class="cls-8" d="M847.53,159.9a149.87,149.87,0,0,0-3.11,30.17A121.57,121.57,0,0,0,847.53,159.9Z" transform="translate(19.8 40.27)"/><path class="cls-8" d="M1422.14,219.38c-1,4.92-1.25,7.51-2,11.69,5.32-6.95,10.16-12.36,12.23-8.24C1436.38,201.68,1437,188,1422.14,219.38Z" transform="translate(19.8 40.27)"/><path class="cls-8" d="M478.49,754.43c-.94-2-1.53-3-2.59-5.39C478.12,755.38,478.49,755.61,478.49,754.43Z" transform="translate(19.8 40.27)"/><path class="cls-8" d="M192.94,329.8c-.19-3.31,1.63-4.22,3.08-5.63C193.74,321.46,192.45,322.43,192.94,329.8Z" transform="translate(19.8 40.27)"/><path class="cls-8" d="M1520.92,245.93c3.82-2,2.49-4.92,0,0Z" transform="translate(19.8 40.27)"/><path class="cls-8" d="M1457.94,432.68c-2.64,5-5.74,11.37-10.2,21.95C1452.52,443.64,1455.76,436.75,1457.94,432.68Z" transform="translate(19.8 40.27)"/><path class="cls-8" d="M1297.61,504c-.06,0-.06-.2-.13-.23C1295.05,513.19,1295.52,511.39,1297.61,504Z" transform="translate(19.8 40.27)"/><path class="cls-8" d="M1516.23,268.42a87.7,87.7,0,0,0,2.31-15A102.51,102.51,0,0,0,1516.23,268.42Z" transform="translate(19.8 40.27)"/><path class="cls-8" d="M1524.63,246.46a52,52,0,0,0,.43,5.37C1528.55,244.29,1530.23,239.36,1524.63,246.46Z" transform="translate(19.8 40.27)"/><path class="cls-8" d="M1516.31,247c1.77-.13,2.27,2.61,2.23,6.46a36.44,36.44,0,0,1,2.38-7.49A14,14,0,0,1,1516.31,247Z" transform="translate(19.8 40.27)"/><path class="cls-8" d="M596.86,585.41c-.42-1.52-.76-2.48-1.3-4.55C597.28,601.56,597.58,598.14,596.86,585.41Z" transform="translate(19.8 40.27)"/><path class="cls-8" d="M1077.44,674.93c.2-.47.52-1.73.73-2.3,0-.51,0-1.2.08-1.77Z" transform="translate(19.8 40.27)"/><path class="cls-8" d="M1062.74,709.66c15.71-59.94,16-52.09,15.51-38.8q13.95-70.35,27.65-140.76Q1084,619.81,1062.74,709.66Z" transform="translate(19.8 40.27)"/><path class="cls-8" d="M796.18,701.77c1.81,14.83,3.57,29.77,5.26,44.65-1.15,18.39-2.22,30.59-3.12,39.54s-1.62,14.7-2.06,20.07c-.9,10.74-.59,20.11,1.86,51.48-1.08-77.92,3.21-81.89,7.49-85.86s8.54-7.93,9-85.72l3.06,32.75c-.87-1.51-1,7.66-1.9,6.1,2.87,37.27,4,9.12,5.56-25.58.79-17.35,1.67-36.33,2.89-49.6s2.76-20.8,4.77-15.2c2.76,12,4.32,34.66,2.14,53.08q3.38-19.17,6.95-38.35c1.79,3.06.74,30.08-1,27.07l9.84-12.2-.2,4.58c2-24.42,6.41-62.06,8.59-78.09,1.81,22.37-1.85,16.48-1.83,35.91l3.41-18.8,3.49-18.72A384.63,384.63,0,0,1,857.54,643c-1.84,14-4.13,22.31-5.87,19.39-.1,77.74,1.1,67.95,3.54,50.19,1.21-8.89,2.69-19.78,4.31-22.76s3.39,2,4.93,24.79l-5.61,19.5c-.31,44.2.63,58.35,2,68.35s3.23,15.86,4.2,43.48c.2-14.39-.47-49.16-.57-85.15s.48-73.21,4.27-92.44c1.08,11.82,2.82,17.5,7.6-13.65-2.9,55.29.73,41.85,4.64,38.88l-4.58,73.2c2.5-10.5,4.29-25,6-41s3.32-33.54,5.58-49.93c4.12,7.55,1.14,64.3-1.23,112.12,2.88,6.05,3.4-16.74,4.21-42.71s1.88-55.1,6.68-61.68c2,14.21,4.52,13.91,8,4.67s7.86-27.5,13.53-49c1.09,12.8-.13,23.94-1.6,34.53s-3.22,20.6-3.39,31.13q4.41-28.95,9-57.89c.82,1.49-1.14,19.36-2.12,28.37,2.64-11.13,4.42-29.37,6.4-47.23s4.17-35.37,7.82-45C939.9,543,940,572.65,940.47,601c.26,14.16.65,28,2,32.62s3.58,0,7.72-22.58c-.69,20.89-5.69,44.58-8.3,72.86,7.55-29.39,10.73-40,14-53.24s6.61-29.08,15.31-68.83q.35,24.3.47,48.55c1.14-27.6,5.12-57.4,10.52-86.82s12.2-58.5,18.63-84.67c1.62-26.58,3-49.87,3.27-61,4.91-12.6,9.92-25.27,15-37.77-.41,12.1-4.82,36.91-10.45,67,1.45-5.89,2.87-11.74,4.1-17.16-.2,27.35-7.81,69-15.55,109.29C998,484,999,468.74,999.83,454c-8.16,43.9-16.47,92.57-21.55,135.2,1.64-8.31,3.64-15.4,5.34-19.31-2.13,11.92-3.87,22.59-4.58,29.89-.72,7.69,2.25-8.3,6.11-26.67l-9,81.27L981,622.24q1.92,26.14,3.43,52.22c9.52-40.2,20.56-90,31.72-133.62,5.58-21.82,11.19-42.11,16.63-58.87s10.67-29.93,15.49-37.67c-6.56,29.29-10.64,53.42-14.59,79s-7.77,52.55-13.59,87.58c4.39-37.38.6-29.92-4.6-15.11s-11.8,37.13-13.79,29.11c2.11,8.27-3.78,41.64-6.35,53.21q5.28-16.51,10.7-33c3.61-11,7.26-21.89,11-32.84-9.5,57.32-4.58,43.4-5.66,67.58,16.48-113.66,21-74,31.73-107.9-6.4,38-14.29,76.61-18.2,66.53-4.26,43.11,3.3,10.2,11.45-24.27s16.76-70.49,13.38-33.81c-1.58.68-1.3-5.27-5.31,13.92,4.66-16.62,7.85-17.81,8.81-10.79s-.31,22.23-4.32,38.56l-1.5.51c3.3,7.57,10.05,9.09,18.68-3.18,4.31-6.14,9.12-15.72,14.19-29.71s10.42-32.3,15.74-56.09c-2.49,12.35-25.11,114.84-29.58,134q41-159,85.76-317.13c-9.79,40.73-23.7,110.16-37.63,174.92s-27.72,124.9-36.34,147.24c-.4,12.11-.93,26.25,9.88-1.66.59-6,6.27-35.71,12.2-64.85s12.19-57.67,14.09-61.18c-7.2,46.15-9,58.51-10.23,69.24s-1.89,19.78-7.49,59.34c1-9,9.33-45.38,17.86-78.87s17.27-64.07,18.67-61.58c-5,19-29.13,126.33-33.47,139.34Q1118.46,610.64,1138,549c-7.67,22.05-25.66,106.21-32.35,142.09,2.51-12.39,4.19-11.38,5.87-8.77s3.38,6.83,6,.9l3.56-29.88c2.47,10.61,15.75-32.86,29.75-77.69s28.61-91.14,33.16-86.45c-4,12.73-15,52.19-24.93,90.62s-18.68,75.79-18.33,84.27c9.44-31.66,32-107.82,55.67-181.75s48.26-145.64,60.32-168.68l-8,36.94q9.67-19.59,19.55-39.13c-16,47.11-41.4,120-65.71,191s-47.65,139.95-61.08,178.47c-4.14,29.81-10.45,43.26-4.41,41.32-7.44,34.62-16.71,51.11-18.66,52.75,1.87,8.38,3.69,16.64,5.42,25.06,10-37.25,17.35-55.24,24.41-71.64s13.8-31.21,22.32-62.17q-8.83,18.24-17.48,36.54c-5.76,12.19-11.46,24.39-17.11,36.7,9.84-37.16,26.1-89.5,40.92-130.35s28.22-70.38,31.19-62.46c-3,15.1-12.91,47.94-22.85,80.12s-19.91,63.72-23.34,76.11c8.33-25.23,22.33-46.31,17.9-28l-15.17,38.52C1163,728,1172,704,1179.78,685.48s14.2-31.73,6.57,4.44c.3,2.67-5.35,26.9-9.46,45s-6.63,30.05.18,8.28c22.56-85.08,100-345.9,121.94-408.25-.42,3-3.19,24.12-7.29,49.76s-9.52,55.79-14.68,76.92c-8.39,33.5-22.19,72.24-35.49,109.86s-26.18,74.1-33.55,102.82c6.37-20.06,16-44.27,19.33-52-3.19,17.83-20.43,61.95-12.92,54.31,24.41-74.26,7.66,9.27,22.25-62.27,5.78-9.91,5.84-5.68,5.23.86s-1.84,15.33,1.43,14.63c7-24.3,21.49-64.75,36-101.49s29-69.78,35.13-79.46c-6.59,18.75-13.61,43.67-16.82,55.06,4.12,5.08,4.71,16.48,5.38,27.07s1.39,20.53,6,22.53c-5.4,18.16-8.63,41.32-21.79,72.34,5.92-12.57,16-37.08,19.54-37.85-17.45,65.51-9.79,7.69-33,85.57C1289.29,631,1302,617.19,1315.8,592c11.45-33.15,10.17-37.17,4.37-29.73s-16.06,26.35-22.82,39c16.22-45.57,34.61-91.58,52.4-130.9s34.94-72,48.17-90.95c17.07-19.22-18,60-11.73,47.69,5,10.92,23.25-27.32,39.16-59.38,7.94-16,15.25-30.55,19.89-36.64s6.62-3.77,3.76,13.82c-8.47,29.79-19.66,58.35-30.51,84.71s-21.39,50.55-28.93,71.47c-7.54,9.57-6.52-.46-4.36-12.91s5.48-27.22,2.74-26.94l-4.83,29.36c-9.49,18.31-19.36,31.21-15.43,13.6-7.7,26.69-2.36,31.55,4.1,36.28s14,9.61,10,35.55c9.74-18.36,21.37-36.72,29.06-60.35l-6.93,6.5A259.63,259.63,0,0,1,1426.56,471c6.85-12.2,12.34-21.38,14.27-33.12,9.18-15.13,20.49-34.79,29.17-47s14.66-16.92,13-2.38l-25.85,65.41c7.84-19,11.41-40.66,1.12-21.79,7.51-13.72,1.18,9.44-2.31,25.54s-4.09,25.15,15.6-16.48q7-23.49,13.85-47C1494.92,379,1508.7,355,1520,337.7s20-27.82,19-16.17c12.26-32.51,11-30.87,10.21-30.67s-1.27-1,12.26-39.42c-17.82,47.33-21.9,44.43-25.89,42.28s-7.88-3.57-25.16,46.78c15.89-44.46,17.51-54.63,18.29-63.27s.68-15.78,12.6-54.36c-8.64,21.5-14.53,41.95-16.2,29-2.85,6.15-6.77,13.85-9.09,18.36,0-.65.14-1,.26-1.77-.22.88-.52,1.85-.71,2.67-1.58,3.11-1.88,3.77-.24.93a319,319,0,0,1-10.41,33.83c-23.23,48-31.63,42.83-45,67.15.74-11.58,11.34-24.09,18.74-47.79L1458.7,361.6c9.34-24,15-44.78,20.66-62.67s11.41-32.88,21.2-45.21l-6.73-5.17c3.07-14.32,4.08-24.83,2.83-29.34s-4.73-3.1-10.55,6.27c.18-5.89-7.24,6.54-12.45,15.9s-8.27,15.64.48-2.6q-11.7,12.63-23.19,25.34l4.4-12.1c-4.75-5.26-18.17,12.4-28,20.12s-15.92,5.17-7.27-41.07c-8.33,10.85-17.55,24.38-19.47,8.29l13.11-42.59c-5.14,6.49-5.48-5.37-6.76-13.47s-3.45-12.44-11.87,9.21c16-57.82,11.36-66.25,2.56-63.07s-21.77,18.24-23.35,6.6l-17.62,55.43c-5.4-5.13-16.42,8.75-30.88,28.73l-14.25,49.38c-9.29,19.18-10.83,9.31-11.69-5.27s-1.05-33.73-7.06-32.71c6.06-18.7,7.38-13,6-1,4.81-28.81,4-38.65.32-38.49s-10.1,10.31-16.7,21.48-13.38,23.4-17.82,27.5-6.55.1-4.06-21.11c-7.63,17.33-8,10.63-6.83-2.42.3,0,.78-.9,1.39-2.42a1,1,0,0,0-1-.91c.94-8.89,2.19-19.21,2.79-27.56-1.87,12.42-3.28,22.69-3.47,27.56-2.49.45-7.46,5.75-13.89,17.37l12.11-53.89c-.45.64-.65.47-1.16,1.32,1.63-20.6-9,24.71-17.4,65.4-3.85,8.39-8,18.63-12.36,31.28,9.47-43.55,5.47-36.8,1.61-30.77s-7.61,11.31,1.75-35.32c-13.11,44.52-24.75,29.94-48.27,124.57,2.75-12.4,3.19-18.51,5.05-18.88-.48-5.84-1-11.67-2.54-12.78s-4.15,2.54-8.73,15.61l13.86-68.82q-14.3,45.18-28.15,90.47c4.6-42.77,7.65-67.54,24-119.27-14.68,39.32-18.53,46.49-22.25,53.6s-7.21,14.17-20.25,53.47l9.65-44.35c-1.9.48-7.27,15.31-11.45,25.44s-7.15,15.47-4.5-3.12c4.65-43-4.55-47.85-15.36-52.18-5.41-2.22-11.28-4.12-16.21-10.69s-9-17.79-10.9-38.43c-8.88,66.25-8.78,51.08-8.72,32.09s-.09-41.81-8.57,9.28c3.78-31.4,3.56-49.46,11.26-76.1-7.81,14.53-9.91,1.57-12.78-4.4s-6.4-4.93-16.3,37.76c3.28-31.61,8.92-45.55,10.51-64.27-1.88,6.63-7.38,26.7-5.86,7.86s5.34-26,9.08-39.41c-6.12,1.8-12.82,26.78-19.55,62.63s-13.57,82.55-20.13,127.78c.65-43.67-3.09-37.9-14.48,21.08,2.07-29.85,2.85-61.29,10.81-71.14-1.56-2.39-5.85-14-11-15.85s-11,5.92-15.4,42.29c1-18.59-4.5-6-6.39,2.28-3.83-2.68-5.77-5.62-7.84-7.15s-4.29-1.68-8.67,1.38l1,12.13c-6.11,43.81-8.17,48.56-9.72,43.59s-2.56-19.64-6.24-14.66l1-9c-4.34-32.45-6.76-25-8.86-18.67-1.07,3.17-2.11,6.06-3.39,3.54s-2.81-10.41-5-28.82l-3.7,54.85c-5.54,58.89-7.09,41.29-9,14.51s-4.46-62.76-10.28-40.51l.84,31.54c-3.67,20-4-20.31-4.22-67.56s-.41-101.46-2.54-108.93c-.51-10.32,2.74-16.42,4.77-23.89-2.3-17.62-3.92-21.89-5.09-18.21s-2,15.38-2.78,29.76c-1.64,28.78-3.55,68.36-8.76,76.49.17-19.44,2.07-44.08,3.19-64.8s1.39-37.51-1.85-41.29c-.89-15.79-7.53,15.46-14.23,41.32s-13.53,46.31-16.73,8.91c1,30,1.69,59.93-3.46,82.27-3.5,5.27-7.09-23.12-11.19-41.06s-8.56-25.42-12.54,21.7c-.7-8.19-.88-16-.78-23.48-2.85,12.12-7.23,22.14-11.31,35.52-1,3.35-2,6.91-3,10.76s-1.86,8-2.68,12.58a281.84,281.84,0,0,0-3.83,32.48c-1.67-95-10.17-71.86-17.32-46.9S793,286.28,791.82,198.7c-5.31,3.16-10.59,6.49-15.84,9.74V190.57c-5.3-5.65-8.63,2-10.82,16.41s-3.28,35.42-4.28,56.47c-2.7-11.85-1.62-28.22-1.73-37.4-4-8.72-7.13-14.79-9.68-17.62s-4.53-2.34-6.24,1.93c-3.41,8.54-5.87,32.38-9.54,76.28L729.38,230c-.78,16.58-7.24-5.39-15.21-23.1-4-8.86-8.31-16.66-12.3-17.94s-7.61,3.79-10,20.6c-.35-6.42-.89-17.44-.32-25.52-2.92,17-7.53,15.8-12.87,7.78s-11.4-22.89-16.85-33.42c-10.87-20.85-19.31-24.32-11.37,78.9q-2.69,25.92-5,51.82c7.61,7.26,9.46,29.65,10.74,54.39s2,51.84,6.41,68.65c-1.73,6.29-6.58-8.89-10.53-27s-6.91-39.23-4.39-44.85l2.16,10.18c-5-53.71-10.18-62.76-15.26-67.5s-9.87-5-14.3-41.42c-6.64,2.22-13.73.41-21.16-3.56a94.71,94.71,0,0,1-11.35-7.34c-3.85-2.8-7.75-5.81-11.67-9-7.84-6.26-15.79-12.81-23.5-17.8a69,69,0,0,0-11.34-6.09,27.54,27.54,0,0,0-10.66-2.18l17.84,82-9.59-3.08c-5.85-18.78-15.22-63.9-8.05-61.72-6-23.05-7-12.74-5.95,5.56s4.13,44.58,5.76,53.56c-9.32-15.53-12.89-39.73-14.4-60.27s-1-37.37-3.24-38l-4.25,7.19,3.08,9.4c2.15,34.46,8.86,70.16.46,67.55-8.16-15.52-12.82-50.22-15.41-53-1.18-5.82-2.41-8.42-3.49-1.71l-13.1-4.48q9.32,31.86,18.41,63.76c1.88,33-11.05-1.13,9.81,71.09-15.77-55.74-28.53-63.59-38.6-61.76-10.09,2.07-17.3,13.72-24-3.11,2.43,24.26,2.06,36.58-.18,42.39-1.12,2.91-2.7,4.19-4.61,4.52a13.67,13.67,0,0,1-6.55-1.05c5.63,12.72,25.91,84.35,17,77.39-18.89-74.47-26.43-89.67-33.8-99.32s-14.32-13.82-32.62-66.07c12.8,34.46,8.77,40.3,6.34,49.68-1.22,4.68-2.06,10.28-.19,20.83s6.43,25.92,15.81,50.25c-4.63-5.07-8.87-18.8-13.77-35.44s-10.43-36.18-18-52.76c1.33,30.74-9.2,23.9-22.15,12.67-3.22-2.81-6.59-5.9-9.92-8.75-1.67-1.43-3.33-2.8-5-4.05a54,54,0,0,0-4.75-3.22c-6.16-3.64-11.49-4.31-14.4,2,3.14,9.58,8,21.4,12.74,34.54s9.48,27.61,12.54,42.43q-21-46.09-42.62-91.93c-.18,5.31,8.73,33,14,51.42s6.89,27.5-8.2-4.29c6.7,15.63,16.66,39.24,16.58,46.1a102.07,102.07,0,0,0-11.59-12.07,46.26,46.26,0,0,0-9.81-6.73c-6-2.93-11-3-15.34-1.27s-8,5.09-11.49,9-6.63,8.51-10.05,12.42c-6.85,7.86-14.53,13.24-27.36,7.12s-30.87-23.72-59.13-61.51c10.61,16.63,15.45,26.22,17.33,32s.76,7.75-.71,9.24c6.23,7.4,20.89,45.22,32.85,69.79q-22.77-31.27-46.31-62.09c15.05,34.84,11.92,37.76,8.71,40.29s-6.46,4.64,8.94,37.46l-1.49-13.8c16,39.81,39.15,81.43,63.67,125.75s50.5,91.3,74,140.93c-9.35-22.5-9.22-26.06-4.7-20.72s13.43,19.61,21.75,32.69,16.1,25,18.62,25.52-.22-10.37-12.58-43c11,19.6,13.13,32.89,24.61,55.65-17.58-43.72-18.95-53.86-5.9-36.56L382.43,687c3.92-8,12-2,22,9s22.12,26.89,34.46,38.63l-21.15-50c5.73,5.59,12.62,21.2,19,33.33-13.34-39-15.86-39.25-18.88-40.48s-6.48-3.37-21.74-46.17c22.69,50.45,28.07,48.89,34.11,49s12.59,2.13,35.5,60.58c2.27-.52-3.43-15.17-9.16-29.79s-11.48-29.24-9-29.78l12.82,31.52-13.71-41.58c5.61,5.71,21.34,45.22,31.05,72.32-1.84-3,.73,8.27.83,10.84,8.58,18.21,9.9,14.14,9.93,7s-1.28-17.5,1.47-11.54q-5.47-9.2-11-18.34c.41-8.55,2.62-12.68,5.48-15.13a17.35,17.35,0,0,1,4.68-2.74,46.1,46.1,0,0,0,5-2.16c6.45-3.52,11.26-11.45,7.67-46.53l-8.29-24.27c-.94-12.17-.28-16.6,1.14-16.94s3.69,3.53,6.17,8.14c5,9.22,10.83,21.51,13.31,9.42l1.24,6c-4.68-25.21-5-38.49-1.19-36.54,2.49,14.88,7.63,28.58,12.67,42.72s10,28.72,12.58,45.24c-.77-13-1.35-22-2.19-29.61s-1.89-14-3.4-21.58c-3-15.27-8-35.75-15.87-82.84L530,605.43c-6.84-37.92-11.51-57.65-8.09-69.87,1.85,18.35,6.7,33.83,11.73,50.78s10.26,35.36,13.48,59.43c8.38,21.86,12.08,26.86,13.7,24.06s1.14-13.35.86-22.54c-.62-18.38-.41-31.44,16.88,34.37-20-116.07-24.44-61.53-26.94-86.77A300.91,300.91,0,0,1,540.8,539c-1.44-15.76-.52-25.6,2.78-20.27,2.36.82,12.18,37.19,22.32,72.87s20.57,70.66,24.84,68.57c-1-.35.71,8.39-.28,8.09,4.7,14.3,4.29,4,4.52-3.94s1.09-13.73,7.86,9.8c-5.66-35.13-4-34.4-3.14-36s1.13-5.62-7-50.27q-2.54,11.17-4.89,22.3c.18-12.11-3.58-44.46-4.89-67.7s-.19-37.38,8.82-12.88c2.56,18.15,4.32,42.32,5.07,55.86,3.66,12.92,4,8.33,4.42,3.83s.87-8.92,4.55,4.36c7.61,44.79,5.92,50.15,3.19,52.95s-6.56,3.06-2.47,37.53c4.84,18.59,4,2,4.14-7.11s1-10.76,8.75,37.82c-9.72-61.8-6.62-58.38-2.74-51.34,2,3.51,4.13,7.93,5.16,5.51s.95-11.58-1.49-35.37l8.8,53.69c-.51-8.59-2.78-34.25-.71-33.17q4.17,35.05,8.55,70.07c-2.67-30,1.94-17.46,6.84-1.45s10.2,35.42,9.88,18.88c-4.5,1.59-7.65-14.51-10.94-35.82s-6.63-47.85-12-67.08c.27-18.49,2.38-19,5.36-9.88s6.88,28,11,48.34,8.41,42.07,12.22,57,7.11,23.14,9.39,16.25c-.33,3.92-3.11-4-6-16s-5.82-28.15-6.21-40.81c4.22,10.75,10.52,31,15.92,59.06,3.45-6.16,1.31-20-1.91-36.47s-7.55-35.59-7.85-52.41c6,32.63,6.17,25.8,5.1,8.1s-3.41-46.26-2.63-57.07l7,54.86c7.42,16.9,4.54-11.79,1.77-39.56s-5.52-54.65,2.08-33.87q2.29,38.31,4.87,76.6l2.66-20.21,6.24,62.61c-.12-23.46.69-32.24,2.35-33s4.19,6.41,7.67,14.91c-2.63-19.32-5.12-44.29-6.31-64.71s-1.05-36.32,1.36-37.45c6.59,32.34,3.37,52.51,9.39,43.91.88,17.3,2,36.81,1.89,45.68s-1.33,7.13-5.32-18.06c1.51,18,2.05,34.69,3.59,52.43,3.56,18.62,5.74,20.54,7.39,17.72s2.71-10.44,3.84-10.75c-1.08-2-2.39-4.84-3.68-12.63.64-25.78,1.55-51.39,2.65-77.13,3.32,20.58,3.49,37.3,3.75,53.66,1.38-6.11.58-31.54,3.11-36.51,2.92,44.86,6.8,91.11,4.9,112.48q2.06-25.17,4.52-50.4c1,9.72,3.18,23,5,36s3.42,25.54,3.5,33.84c3.23,13,4.37-9,6.09-29.9s4-40.7,8.15-23.46c-.16-8.73,0-17.1,1.07-23.59,3.35,4.91,7,21.07,10.29,28.25,1.64,3.59,3.19,4.94,4.63,1.51s2.77-11.53,4-27q3.54,40.22,6.78,80.45c2.33-9.21.28-34.55-1.51-61.41s-3.28-55.24,1.22-70.57c3.15-12.94,4.28,4.22,4.95,27.42s1,52.42,2.41,63.61c1.08-20.37,2.64-51.26,5-68.88,1.18-8.82,2.56-14.32,4.09-13.52s3.21,8,5,24.36C799.78,707.7,798,695.73,796.18,701.77Zm72.5-34.46c-2,11.51-6.31,47.17-5.91,14.51C867.1,618.59,867.15,649,868.68,667.31ZM998.84,546c-3.72,17.94-4.21,8.71-3.44-12.34C997.51,529.35,999,531.64,998.84,546Zm477.33-269.5c-.41.8-.7,1.4-1.18,2.42C1478.66,257.2,1477.05,265.69,1476.17,276.45Zm-.27,25.75a136.21,136.21,0,0,0,8.94-21.31c-5.75,12.77-8,12.9-8.74,8.37C1471.4,303,1468.82,312.7,1475.9,302.2ZM499.93,225l4.68,13.76C503.84,255.23,502,240.89,499.93,225Z" transform="translate(19.8 40.27)"/><path class="cls-8" d="M975.06,619.06c.78-9.32,2-19.55,3.22-29.89A164.85,164.85,0,0,0,975.06,619.06Z" transform="translate(19.8 40.27)"/><path class="cls-8" d="M754,732.46c-.09-.45-.15-.27-.24-.61.07,3.31.2,6.67.36,10Z" transform="translate(19.8 40.27)"/><path class="cls-8" d="M1202.12,702.36A248.8,248.8,0,0,1,1208,674.3C1203.9,687.2,1201.12,698.3,1202.12,702.36Z" transform="translate(19.8 40.27)"/><path class="cls-8" d="M1557.32,234.06l-11.21,10.86c3.77-1.37,0,10.18-2.06,18.84C1549,251.8,1555.21,234.13,1557.32,234.06Z" transform="translate(19.8 40.27)"/><path class="cls-8" d="M1464.07,566.88c3.51-5.85,1.74,0,5.3-6l10.6-23.42C1476.27,537.68,1465.63,555.6,1464.07,566.88Z" transform="translate(19.8 40.27)"/><path class="cls-8" d="M1490.22,405.23c-17.89,42.95-8.56,29.76-1.57,23.37-.28.07-.64.34-.63-.27C1515,369,1502.46,387.14,1490.22,405.23Z" transform="translate(19.8 40.27)"/><path class="cls-8" d="M1490.09,427.51c2-1.53,3.58-2.18,3.75.33C1504.68,404.11,1494.67,422.28,1490.09,427.51Z" transform="translate(19.8 40.27)"/><path class="cls-8" d="M1498.15,277.91c-2.66,11.85,23.42-54.71,17.37-36.69,12.16-27,2.28-11.7-7.78,7.35S1487.36,290.35,1498.15,277.91Z" transform="translate(19.8 40.27)"/><polygon class="cls-8" points="1452.39 587.56 1473.86 534.27 1453.74 576.03 1452.39 587.56"/><path class="cls-8" d="M1422.51,497.29l-.65,16.9c3.61-8.94,6.46-13.87,9-17.49C1428.23,493.52,1428.84,481.51,1422.51,497.29Z" transform="translate(19.8 40.27)"/><path class="cls-8" d="M1430.82,496.7c1.31,1.77,3.43,1.34,8-6.92C1437.67,489.94,1434.9,490.83,1430.82,496.7Z" transform="translate(19.8 40.27)"/><polygon class="cls-8" points="1438.45 600.37 1441.57 588.67 1439.49 583.22 1438.45 600.37"/><path class="cls-8" d="M1367.57,464l-5.85,6.58-5.85,6.66c-7.36,18.29-9.87,30.16-5,23.6C1357,488.45,1361.89,482.16,1367.57,464Z" transform="translate(19.8 40.27)"/><path class="cls-8" d="M1329.68,617.81c2.76-11.7,7.22-23.72,13.09-41.73l-25.46,66.5Z" transform="translate(19.8 40.27)"/><path class="cls-8" d="M1307.9,627.33c-3.71,9.17-10.57,21.73-15.42,31.8s-7.76,17.65-3.66,16.83C1296.1,657.77,1307.23,644.44,1307.9,627.33Z" transform="translate(19.8 40.27)"/><polygon class="cls-8" points="1271.31 553.54 1273.07 553.13 1307.25 441.48 1271.31 553.54"/><path class="cls-8" d="M1104.62,762.05c-1.12,28.65,19.18-69.45,15.9-34.2,8.33-26.34,2.64-28.76,10-51.48C1119.59,703.59,1121.79,687.15,1104.62,762.05Z" transform="translate(19.8 40.27)"/><path class="cls-8" d="M1130.52,676.37c1.74-4.29,3.77-9.55,6.33-16.69C1133.94,666.45,1132.05,671.73,1130.52,676.37Z" transform="translate(19.8 40.27)"/><path class="cls-8" d="M146.6,282.47q-8-9.64-16.13-19.21l20.78,33.51Z" transform="translate(19.8 40.27)"/><path class="cls-8" d="M175,365.05l-34.43-66Q154,330,167.59,360.83C167.24,357.32,166.6,350.45,175,365.05Z" transform="translate(19.8 40.27)"/><path class="cls-8" d="M871.05,817.49l1.28-17.88c.57-19.35-.18-20.84-1.68-23.94Z" transform="translate(19.8 40.27)"/><polygon class="cls-8" points="845.27 800.47 846.09 801.99 845.2 734.67 845.27 800.47"/><path class="cls-8" d="M787.09,846.42c1.59,2.76,3-12.3,4.63-9.49-1.53,6.12-3.32-12.47-4.46-22.11S785.69,804.49,787.09,846.42Z" transform="translate(19.8 40.27)"/><path class="cls-9" d="M517.37,347.18a30.26,30.26,0,0,1-1.36,7.61c-.92,3.24-2.08,6.72-3.51,10.42s-3,7.29-4.7,10.77a67.25,67.25,0,0,1-4.95,8.63,105.66,105.66,0,0,1-16,17.26,233.94,233.94,0,0,1-24,18.46Q450,429,436.37,437.16t-27,14.78q-16.08,8.21-33.24,15.47T342.37,480v8.2c0,1.48.09,3.88.26,7.18s.4,7.12.68,11.45.57,8.95.86,13.84.57,9.69.85,14.36.51,9,.69,13,.25,7.23.25,9.74q0,8.71-5.55,13.58t-14.78,4.88Q301,576.19,301,493q0-7.35.42-14.87t1.37-16.15q.94-8.62,2.31-18.54t3.24-22.22q1.54-10.26,3.17-19.65t3.67-18.37q2.06-9,4.87-17.69a181.87,181.87,0,0,1,6.75-17.6q-5.47,1.53-11.19,3.5t-12.05,4a24.07,24.07,0,0,1-3.76,1.37,15.66,15.66,0,0,1-4.1.51A15.83,15.83,0,0,1,285,353.68a11.78,11.78,0,0,1-4.19-9.4,24.76,24.76,0,0,1,2.9-12.22,27,27,0,0,1,9.32-9.32,69.62,69.62,0,0,1,16.41-7.26,240.11,240.11,0,0,1,24.35-6.07q8.21-1.7,17.77-3.33t19.31-2.9q9.75-1.29,19-2.14t16.75-.86q9.06,0,17.52.18t16.66.85q8.2.69,16.32,1.88t16.49,3.25q18.79,4.61,30.08,13.67Q517.36,330.6,517.37,347.18Zm-97.58-13.33a291,291,0,0,0-29.48,1.63q-16,1.62-31.53,4.18,5.13,5.13,5.13,13.84a28.84,28.84,0,0,1-1.29,5.39c-.85,2.9-1.79,6.07-2.82,9.48s-2,6.61-3,9.57a56.92,56.92,0,0,1-2,5.47,41.51,41.51,0,0,0-1.62,5.56q-.78,3.33-1.54,7.26c-.52,2.62-1,5.33-1.46,8.12s-.91,5.5-1.36,8.11c-.69,3.54-1.23,6.64-1.63,9.32s-.71,5.07-.94,7.18-.42,4.13-.59,6.06-.32,3.93-.43,6q5.64-2.38,12.82-5.38t14.61-6.15q7.43-3.17,14.52-6.32t12.56-5.73q2.91-1.53,6.58-3.42t7.52-3.93c2.57-1.36,5.16-2.76,7.78-4.18s5-2.82,7.18-4.19a186.46,186.46,0,0,0,17-11.71A140.35,140.35,0,0,0,462,375.55a86.46,86.46,0,0,0,12.05-15.64q4.69-7.94,4.7-15,0-3.58-8.72-5.81a139.5,139.5,0,0,0-26.23-4.36Q430.39,333.86,419.79,333.85Z" transform="translate(19.8 40.27)"/><path class="cls-9" d="M778,420.5a22.71,22.71,0,0,1-1,6.49,49.38,49.38,0,0,1-2.65,6.84c-1.09,2.28-2.31,4.56-3.68,6.83a67.13,67.13,0,0,1-4.27,6.33,251.6,251.6,0,0,1-21.27,25q-11.37,11.72-22.82,22a127.35,127.35,0,0,1-12.65,9.92,112.55,112.55,0,0,1-13,7.69A71.41,71.41,0,0,1,684,516.54a42.92,42.92,0,0,1-11.45,1.71,21.79,21.79,0,0,1-12.48-4.1,42.94,42.94,0,0,1-10.51-10.34,55.06,55.06,0,0,1-7.17-13.42,38.54,38.54,0,0,1-2.65-13.33q-2.06,3.09-6,8.21t-8.2,10.42c-2.85,3.54-5.5,6.75-7.95,9.66s-4.18,5-5.21,6.24a163.56,163.56,0,0,1-12.64,12q-7.18,6.15-14.27,11.11a117.2,117.2,0,0,1-13.25,8.12q-6.15,3.15-9.4,3.16a44.49,44.49,0,0,1-14.52-2.4,37.94,37.94,0,0,1-12.39-6.92,33.66,33.66,0,0,1-8.63-11.19A34.2,34.2,0,0,1,524,510.22a82.06,82.06,0,0,1,2.31-18.37A168.69,168.69,0,0,1,532.67,471a205.55,205.55,0,0,1,9.65-22q5.64-11.12,12.22-21.62a233.86,233.86,0,0,1,13.93-19.91,155.56,155.56,0,0,1,15-16.75,91.69,91.69,0,0,1,29-19.14,84.9,84.9,0,0,1,31.79-6.15,19.08,19.08,0,0,1,7.18,1.19,15.76,15.76,0,0,1,5,3.17,19.77,19.77,0,0,1,3.51,4.52c1,1.71,1.85,3.42,2.65,5.13a37.69,37.69,0,0,0,2.82,3.33c1.31,1.43,2.65,3,4,4.7a45.6,45.6,0,0,1,3.59,5.13,9.16,9.16,0,0,1,1.54,4.61,32.49,32.49,0,0,1-1,7.78q-1,4.19-2.13,9.66t-2.14,12.39a110.72,110.72,0,0,0-1,16,107.08,107.08,0,0,0,.77,12,93.88,93.88,0,0,0,2.3,12.82A43.6,43.6,0,0,0,675.2,478c1.54,2.8,3.27,4.19,5.21,4.19a24.12,24.12,0,0,0,6.41-.77,23.13,23.13,0,0,0,5.38-2.22,44.4,44.4,0,0,0,5.21-3.5q2.65-2.06,6.07-4.45a215.4,215.4,0,0,0,21.28-17.77q10.68-10.08,21.79-20.68,3.08-2.9,6.41-6.49a95,95,0,0,1,6.83-6.67,47.61,47.61,0,0,1,6.92-5.12,12.71,12.71,0,0,1,6.5-2.06Q778,412.46,778,420.5ZM640.08,399a14.31,14.31,0,0,0-.26-2,11.84,11.84,0,0,0-.6-2.31,35.34,35.34,0,0,0-12.39,4.36,69.25,69.25,0,0,0-14.52,11.19,163.36,163.36,0,0,0-16.67,19.4,281.91,281.91,0,0,0-18.62,29c-1.71,3.07-3.54,6.41-5.47,10a113,113,0,0,0-5.39,11.54,83,83,0,0,0-4,13.07,67,67,0,0,0-1.54,14.62,5.54,5.54,0,0,0,1.62,4.35,5,5,0,0,0,3.34,1.46q3.93,0,10.16-4.53a106.07,106.07,0,0,0,13.51-12.05,225.62,225.62,0,0,0,14.86-17.18q7.6-9.64,14.1-19.82a201.6,201.6,0,0,0,11.37-20.17,88.12,88.12,0,0,0,6.75-18c.34-1.7.74-3.7,1.19-6s.89-4.53,1.29-6.75.71-4.24.94-6.06A38.22,38.22,0,0,0,640.08,399Z" transform="translate(19.8 40.27)"/><path class="cls-9" d="M900.53,502.7q-5.64,5.64-10.68,10.59t-10.17,9.4q-5.13,4.45-10.34,8.72t-11,8.55a113.25,113.25,0,0,1-23.25,13.24,57.24,57.24,0,0,1-21.7,4.7q-12,0-20.77-4a45.19,45.19,0,0,1-15-10.93,58.86,58.86,0,0,1-10.17-15.9,107.29,107.29,0,0,1-6.24-19A142.17,142.17,0,0,1,758,487.83q-.86-10.24-.86-19.48,0-3.59.52-10.34t1.45-14.19q.93-7.43,2-14.44a102.94,102.94,0,0,1,2.31-11.28,27.74,27.74,0,0,1,4.35-8.45,38.24,38.24,0,0,1,7.44-7.44A30.79,30.79,0,0,1,795.08,395q11.11,0,11.11,13.33a70,70,0,0,1-1,10.94q-1,6.33-1.88,12.82-1,7.69-1.88,13.76T800,456.81q-.6,4.88-.94,8.8c-.23,2.63-.34,5.13-.34,7.52a125.29,125.29,0,0,0,.94,14.53,103.15,103.15,0,0,0,2.82,14.95,47.81,47.81,0,0,0,4.62,11.62c1.82,3.14,3.93,4.7,6.32,4.7a63.5,63.5,0,0,0,12-1.28,46.89,46.89,0,0,0,14.19-5.55q7.17-4.11,15-9.57a193.87,193.87,0,0,0,16-12.65q7.69-6.66,15.12-13.33t15-14.52q3.42-3.6,6.24-6.5c1.88-1.93,3.61-3.79,5.21-5.55s3.16-3.48,4.7-5.13l4.87-5.21c.45-.57,1-1.23,1.71-2s1.42-1.48,2.22-2.22a13.16,13.16,0,0,1,2.56-1.88,5.56,5.56,0,0,1,2.74-.77,10.82,10.82,0,0,1,4,.86,6.33,6.33,0,0,1,3.34,3.41,12.69,12.69,0,0,1,1.36,4.7c.11,1.54.17,2.82.17,3.85s-.62,3-1.88,5.55-2.9,5.56-4.95,9-4.45,7.06-7.18,10.93-5.53,7.75-8.37,11.62-5.73,7.55-8.63,11S903,500.19,900.53,502.7ZM834.05,304.46a33,33,0,0,1-1.71,10.68,35,35,0,0,1-5,9.48q-6.5,9.06-20,9.06a62.68,62.68,0,0,1-9.57-.77,40.22,40.22,0,0,1-9-2.39,20.88,20.88,0,0,1-6.58-4A7.3,7.3,0,0,1,779.7,321a26,26,0,0,1,2.82-11.19,51,51,0,0,1,7.09-10.94,42.2,42.2,0,0,1,9.49-8.37,18.65,18.65,0,0,1,10-3.33,64.15,64.15,0,0,1,10.59.77,23.16,23.16,0,0,1,7.86,2.64,11.85,11.85,0,0,1,4.87,5.3A19.79,19.79,0,0,1,834.05,304.46Z" transform="translate(19.8 40.27)"/><path class="cls-9" d="M1211.05,433.14a24,24,0,0,1-1.2,7.1,56.47,56.47,0,0,1-3,7.6,62.55,62.55,0,0,1-3.93,7.09,52.85,52.85,0,0,1-4,5.56q-5.48,6.84-12.22,14.52t-14.1,15.21q-7.35,7.53-15,14.44a135.66,135.66,0,0,1-15.38,12.05q-6,4.11-11.54,7.61a103.33,103.33,0,0,1-11.45,6.24,65,65,0,0,1-12.47,4.27,63.83,63.83,0,0,1-14.44,1.54q-12.83,0-21.28-5.13a41,41,0,0,1-13.76-13.67,69.73,69.73,0,0,1-8.12-19.57,189.81,189.81,0,0,1-4.35-23,192,192,0,0,0-5-25.72q-2.73-9.48-6.67-9.48a14.73,14.73,0,0,0-6.66,1.62q-3.26,1.63-8.12,6.92a188.61,188.61,0,0,0-12.3,15.47q-7.44,10.17-19.4,27.09-4.1,5.8-10,13t-12.39,13.75a138.56,138.56,0,0,1-12.9,11.62,41.72,41.72,0,0,1-11.88,6.93Q918,531.42,918,495a259.55,259.55,0,0,1,2-27.17q1-8,2.31-16.92t3.24-17.86q2-9,4.7-17.6a115.13,115.13,0,0,1,6.33-16,22.47,22.47,0,0,1,4.61-6.5,19.74,19.74,0,0,1,5.21-3.59,18.75,18.75,0,0,1,5.56-1.53,49.1,49.1,0,0,1,5.81-.35,10.27,10.27,0,0,1,5,1.29,13.67,13.67,0,0,1,4.28,3.67,18.72,18.72,0,0,1,3,5.81,25.46,25.46,0,0,1,1.11,7.86,39.75,39.75,0,0,1-.69,7.52,66.5,66.5,0,0,1-1.88,7.44c-.79,2.56-1.62,5.27-2.47,8.11s-1.74,6.1-2.65,9.74c-.57,2.4-1.4,5.47-2.48,9.23s-2.17,7.67-3.25,11.71-2.08,8-3,11.88a71.2,71.2,0,0,0-1.71,9.74c2-2.39,4.42-5.39,7.1-9s5.49-7.47,8.45-11.63,6-8.4,9.06-12.73,6.15-8.43,9.23-12.3q6-7.51,11.79-14.19a82.67,82.67,0,0,1,12.22-11.53,54.66,54.66,0,0,1,13.93-7.69,47.88,47.88,0,0,1,16.92-2.82q11.1,0,18.11,4.53a32.43,32.43,0,0,1,11.2,12.56,68.09,68.09,0,0,1,6.24,19.05q2,11,3.24,24,.69,6.68,1.8,13.68a62.08,62.08,0,0,0,3.33,12.73,27.46,27.46,0,0,0,5.81,9.4,11.93,11.93,0,0,0,8.89,3.67q7.86,0,17.17-4.19a114.75,114.75,0,0,0,19.57-11.53,239.92,239.92,0,0,0,21-17.09q10.77-9.75,21.53-20.85,3.42-3.58,6.58-7.09t6.07-6.33a34.74,34.74,0,0,1,5.64-4.53,10.32,10.32,0,0,1,5.47-1.7,13.21,13.21,0,0,1,2.39.25,7.05,7.05,0,0,1,2.57,1,5.94,5.94,0,0,1,2,2.13A7.78,7.78,0,0,1,1211.05,433.14Z" transform="translate(19.8 40.27)"/><path class="cls-9" d="M1182.34,504.07a133.83,133.83,0,0,1,.94-15.81q.93-8,2.39-15.72t3.16-15.13q1.71-7.35,3.08-14,1.88-8.89,3.42-15.9a83.91,83.91,0,0,0,1.88-13q-2.57.51-5.73.94l-6.41.85q-3.24.44-6.32.6c-2,.11-3.76.17-5.13.17a47.4,47.4,0,0,1-9.14-.77,14.09,14.09,0,0,1-6.41-2.91,12.26,12.26,0,0,1-3.76-6,33.6,33.6,0,0,1-1.19-9.82,10.74,10.74,0,0,1,1.79-6.33,13,13,0,0,1,4.79-4.1,22.43,22.43,0,0,1,6.66-2.13,45,45,0,0,1,7.26-.6c.91,0,2.68-.14,5.3-.43s5.41-.6,8.37-.94,5.87-.68,8.72-1,5-.56,6.32-.68c.91,0,1.8-.68,2.65-2.05a30.28,30.28,0,0,0,2.4-4.87q1.11-2.82,2-5.81a47.38,47.38,0,0,0,1.2-5q.86-4.62,2.48-11.28t3.58-13.67q2-7,4.11-13.42a65,65,0,0,1,4.18-10.17,25.87,25.87,0,0,1,6-8c2.17-1.82,5.41-2.73,9.75-2.73q9,0,13.24,4.27t4.19,13.16a41.57,41.57,0,0,1-1.8,10.59q-1.79,6.49-4,13.93t-4.19,15a62.52,62.52,0,0,0-2.14,13.59c2.28,0,5.58-.23,9.92-.69s8.88-1,13.67-1.62,9.37-1.28,13.75-2,7.72-1.25,10-1.7q7.18-1.54,11-2.31c2.56-.51,4.89-1,7-1.45s4.39-1,6.84-1.63,5.89-1.56,10.34-2.82c1.71,1.37,3.07,2.45,4.1,3.25a27.07,27.07,0,0,1,2.31,2,4.21,4.21,0,0,1,1,1.45,4.36,4.36,0,0,1,.26,1.54q0,6.66-6.15,12.21a60.21,60.21,0,0,1-15.56,9.83,133.33,133.33,0,0,1-20.42,7.26q-11,3-20.76,4.7-7.18,1.2-12.91,2.06c-3.81.57-7.15,1.11-10,1.62a47.69,47.69,0,0,0-7,1.71,10.7,10.7,0,0,0-4.1,2.3q-2.22,7.69-5,18.38t-5.39,22.47q-2.57,11.79-4.27,23.84a160.44,160.44,0,0,0-1.71,22.47q0,11.79,4.62,17.61t13,5.81a102.36,102.36,0,0,0,15.13-1.11,78.28,78.28,0,0,0,15.55-4.11,121.62,121.62,0,0,0,17.26-8.11,231.13,231.13,0,0,0,20.42-13.16c2-1.6,4.19-3.36,6.41-5.3s4.47-3.79,6.75-5.56a43.23,43.23,0,0,1,7-4.44,16.32,16.32,0,0,1,7.35-1.79,8.2,8.2,0,0,1,5.38,1.62,6.16,6.16,0,0,1,2,5,15.4,15.4,0,0,1-1.71,6.24,44.63,44.63,0,0,1-4.79,7.78,93.15,93.15,0,0,1-7.26,8.46,83.38,83.38,0,0,1-9.31,8.28q-9.91,7.88-20.77,15a184.09,184.09,0,0,1-22,12.39,136.8,136.8,0,0,1-22.48,8.37,84.83,84.83,0,0,1-22.39,3.08q-13.67,0-23.24-4.19A43.23,43.23,0,0,1,1194,538.42a44.6,44.6,0,0,1-8.88-16A60.93,60.93,0,0,1,1182.34,504.07Z" transform="translate(19.8 40.27)"/><path class="cls-9" d="M1538.49,426.82a14.64,14.64,0,0,1-1,4.27,38.63,38.63,0,0,1-3.42,6.84A253.66,253.66,0,0,1,1517.38,461q-10,12.48-22,24.87a346.2,346.2,0,0,1-25.81,23.92,254.48,254.48,0,0,1-27.85,20.42,160.17,160.17,0,0,1-28.12,14.27,74.35,74.35,0,0,1-26.66,5.39q-16.07,0-28-4.45a50.54,50.54,0,0,1-19.83-12.9,54.29,54.29,0,0,1-11.79-20.68,90.54,90.54,0,0,1-3.93-27.77,184.4,184.4,0,0,1,1.8-24.95,135.32,135.32,0,0,1,6.57-26.75A155.31,155.31,0,0,1,1344.61,405a137.33,137.33,0,0,1,20.76-26.57,70.21,70.21,0,0,1,21-15,52,52,0,0,1,21.53-5.13,19.64,19.64,0,0,1,4.79.77,33.28,33.28,0,0,1,5.81,2.14,39.84,39.84,0,0,1,5.64,3.24,19.62,19.62,0,0,1,4.44,4.1,63.56,63.56,0,0,1,8.21,13.25,34.84,34.84,0,0,1,2.73,14.1,67.77,67.77,0,0,1-3.42,22.21,77.53,77.53,0,0,1-9.31,18.55,117,117,0,0,1-13.93,16.66q-8,8-17.26,16.75a161.14,161.14,0,0,1-14,11.53q-8.38,6.24-17.95,13.59a41.2,41.2,0,0,0,3.42,9.14,21.22,21.22,0,0,0,5.13,6.41,20.57,20.57,0,0,0,7.43,3.85,37.07,37.07,0,0,0,10.34,1.28,59.93,59.93,0,0,0,17.18-2.74,137,137,0,0,0,18.37-7,96.85,96.85,0,0,0,15.89-9.49q7.86-5.72,15.89-11.88,5-3.75,12.74-10.85t15.8-14.78q5.48-5.13,10.94-10t11.62-10.85l9.06-8.89q9.91-8,16.07-8c2.16,0,3.53.63,4.1,1.88A8.69,8.69,0,0,1,1538.49,426.82Zm-132.62-18.46q0-7.51-2.3-10.59t-5.22-3.08c-1.7,0-3.7,1-6,3.08a49.38,49.38,0,0,0-7.09,8.29,113.31,113.31,0,0,0-7.35,12.13q-3.67,6.92-6.83,14.61a124.84,124.84,0,0,0-5.3,15.81,109.63,109.63,0,0,0-3,15.64l9-7.44a87.93,87.93,0,0,0,7.6-7.09q3.6-3.59,8.12-8.8t8.63-10.85a79.72,79.72,0,0,0,6.92-11.28A23.55,23.55,0,0,0,1405.87,408.36Z" transform="translate(19.8 40.27)"/><path class="cls-9" d="M1675.89,413.83a15.81,15.81,0,0,1-4.44,11.54,14.91,14.91,0,0,1-11.11,4.53,19.45,19.45,0,0,1-8.29-1.71,44.79,44.79,0,0,1-6.75-3.85q-3.08-2.13-5.72-3.84a9.84,9.84,0,0,0-5.39-1.71,13.53,13.53,0,0,0-6.66,2,45.75,45.75,0,0,0-7.52,5.55,108.94,108.94,0,0,0-8.12,8.12q-4.19,4.62-8.29,9.74-2.89,3.58-6.49,8.63t-7.18,10.51q-3.59,5.48-6.83,11.11t-5.64,10.43q-2.06,4.26-4.53,9.91c-1.66,3.76-3.19,7.58-4.62,11.45s-2.7,7.58-3.84,11.11a55.36,55.36,0,0,0-2.22,8.88q-1,6.68-2,12.31a42.84,42.84,0,0,1-2.82,9.65,15.42,15.42,0,0,1-4.79,6.24q-3,2.22-8.12,2.22-9.23,0-13.84-3.93a21.51,21.51,0,0,1-6.58-10.08,52.3,52.3,0,0,1-2.31-13.5q-.35-7.35-1-14.19-.51-4.44-.86-8.88c-.23-3-.42-6.07-.59-9.32s-.32-6.72-.43-10.42-.17-7.78-.17-12.22q0-8.71.68-19.48T1521,434q.94-9.92,2.06-17.6a70.71,70.71,0,0,1,2-10.26,39.8,39.8,0,0,1,4.61-8.8A42.91,42.91,0,0,1,1536,390a32.21,32.21,0,0,1,7.35-5,17,17,0,0,1,7.44-1.88,27,27,0,0,1,6.58.85,16.42,16.42,0,0,1,6,2.91,15.87,15.87,0,0,1,4.35,5.38,18.08,18.08,0,0,1,1.71,8.29,14.37,14.37,0,0,1-.85,3.85c-.57,1.76-1.31,4.3-2.22,7.6q-1.55,5.3-3.42,12.31t-3.5,14.35q-1.64,7.35-2.82,14.53a95.64,95.64,0,0,0-1.37,12.82c.57-1.26,1.59-3.34,3.08-6.24s3-6,4.7-9.23,3.27-6.38,4.87-9.4,2.79-5.21,3.58-6.58q5-8.37,11.45-17.77a112.61,112.61,0,0,1,14.79-17.35,75.89,75.89,0,0,1,18.71-13.16,50.53,50.53,0,0,1,22.9-5.21,43.59,43.59,0,0,1,16.49,2.82,32.69,32.69,0,0,1,11.37,7.43,29.65,29.65,0,0,1,6.58,10.51A35.22,35.22,0,0,1,1675.89,413.83Z" transform="translate(19.8 40.27)"/><g class="cls-2"><path class="cls-10" d="M668.79,83.17l-3.47.42a5.4,5.4,0,0,1,2,1C668.12,84.93,668.36,84,668.79,83.17Z" transform="translate(19.8 40.27)"/><path class="cls-10" d="M662.11,84l-.61.07a4.88,4.88,0,0,0-.46.44A11.6,11.6,0,0,1,662.11,84Z" transform="translate(19.8 40.27)"/><path class="cls-10" d="M656.31,86a6.94,6.94,0,0,0,3-.71A4.44,4.44,0,0,0,656.31,86Z" transform="translate(19.8 40.27)"/><path class="cls-10" d="M661.23,86.07c-.46-.49-.75-1-.22-1.59h0c-.57.28-1.12.58-1.72.83A4.76,4.76,0,0,1,661.23,86.07Z" transform="translate(19.8 40.27)"/><path class="cls-10" d="M661.23,86.07c.45.48,1.11.89,1.36,1.17A7.52,7.52,0,0,0,661.23,86.07Z" transform="translate(19.8 40.27)"/><path class="cls-10" d="M662.08,99.7c-.54.54-1.06-3.27-2.11-2.21-2.63,1.58-4.76,3.69-7.42,4.12-1.06,1-3.67-2.84-4.73-1.79-2.65,1.53-9.09,7.82-4.85,6.88,6.35-1.63,10.38-3.3,16-5,4.41-2.36,8.58-5,13.1-7.2a11.77,11.77,0,0,1,3.91-.33c-1.75-.29-3.54-.57-5.5-.79C667.86,92.77,665.78,98.15,662.08,99.7Z" transform="translate(19.8 40.27)"/><path class="cls-10" d="M694.46,80.61l-1.54,1.62c-3.2-2.19-5.77-.59-8.36,1l1.6,1.64c1.56-.53,1.54-1.62,0-2.17a13,13,0,0,0,9.93.4C695.65,82.14,695.45,81,694.46,80.61Z" transform="translate(19.8 40.27)"/><path class="cls-10" d="M697.84,82.45c-.6.24-1.2.47-1.79.67,0,.11.09.21.13.32l1.74-.91Z" transform="translate(19.8 40.27)"/><path class="cls-10" d="M644.18,91.59c-4,.73-7.86,1.38-11.67,1.9s-7.56.91-11.27,1.27c-.45.83-.72,1.75-1.55,1.41a5.37,5.37,0,0,0-1.93-1.09l-3.24.27-1.09.47,0,0c-.54.53-.28,1.08.18,1.59a8.35,8.35,0,0,1,1.32,1.21c-.25-.29-.88-.72-1.32-1.21a4.62,4.62,0,0,0-1.89-.82,6.87,6.87,0,0,1-3,.56,4.47,4.47,0,0,1,3-.56c.6-.24,1.17-.52,1.74-.79l.48-.42c-2.48.22-4.95.33-7.42.47a13.42,13.42,0,0,0-1.49.52c-1.71.74-3.41,1.49-4.75-.22-.43,0-.88,0-1.32.06.09.11.2.19.29.31a2.73,2.73,0,0,1-.54-.3l-5.61.25a33.62,33.62,0,0,1-3.41,2.65l-1.48-1.75a3.9,3.9,0,0,1-1.84,2.14c1.15,1,2.21,2.17,3.17,2.85,1.49,1.77,2.31-4.18,4.24-.78-1.93-3.4-2.75,2.55-4.24.78-1-.68-2-1.83-3.17-2.85-1.67.89-4,.48-6.09-1.17,2.08-1.88,4.18-.54,6.09,1.17a3.9,3.9,0,0,0,1.84-2.14l1.48,1.75a33.62,33.62,0,0,0,3.41-2.65c-3.66.18-7.38.25-11.16.37-6.1.08-12,.43-17.95.67s-11.75.64-17.62,1l-17.78.89c-3,.16-6,.25-9.1.29s-6.17.08-9.32.08c-6.82,0-13.52-.37-20.11-.83-3.3-.23-6.57-.49-9.82-.81s-6.49-.75-9.7-1.18a179,179,0,0,0-18.8-1.28c-6.16-.17-12.25,0-18.35-.21A159.44,159.44,0,0,1,415,94.09a92.65,92.65,0,0,1-18.8-5c-4.88-1.74-11.87-2.32-18.82-2.36-1.74,0-3.48,0-5.18,0l-5,.07c-3.19.06-6.1.14-8.47.16-12.92,5.92-7.09,22.62-6.49,23.57,3.67,7.16,7.17,8.85,11.72,9.85,2.28.49,4.82.83,7.8,1.58a42.58,42.58,0,0,1,10.41,4c-5.49-2.46-3.39-4.67,1.35-5.05a23.79,23.79,0,0,1,8.48,1,22.33,22.33,0,0,1,8.84,4.88,25.59,25.59,0,0,0,12.45,6.76,46.93,46.93,0,0,0,14.06.62c9.7-.66,19.77-3,29.22-1.33,4.73.85,9.7-.09,15.33,0q5.49.71,10.9.93c3.6.11,7.18.08,10.74-.05s7.11-.37,10.65-.67,7.07-.77,10.61-1.21l10.66-1.41L536.26,129q5.44-.74,11-1.31c3.71-.38,7.46-.77,11.29-1a39.07,39.07,0,0,0,11.25-3.22c3.5-1.53,6.8-3.33,10.07-4.69,4.86-1.25,10.38,0,14.39-.49a54.85,54.85,0,0,0,16.53-5.3c-5.71,1.47-9.82,3.06-16.22,4.5-4.29.8,2.38-5.29,5.08-6.74,1.11-1,3.59,3,4.7,1.93,2.65-.35,4.86-2.39,7.56-3.84,1.1-1,1.49,2.82,2,2.31,3.76-1.44,6-6.76,8.66-6.09,1.95.29,3.74.62,5.47,1a9.56,9.56,0,0,0,3.23-.24l2-1.27a13.59,13.59,0,0,1-1.57-3.87c1,0,2.62.7,3.67.73-1.05,0-2.62-.68-3.67-.73a13.59,13.59,0,0,0,1.57,3.87,162.8,162.8,0,0,1,15.42-8.52l-.13-.33a13,13,0,0,1-9.92-.69c1.55.6,1.55,1.68,0,2.17-.52-.56-1-1.13-1.54-1.69,2.65-1.53,5.28-3.06,8.41-.77l1.59-1.57c1,.38,1.14,1.57,1.5,2.55.61-.17,1.21-.38,1.82-.6C648.73,93.34,644.18,91.59,644.18,91.59Z" transform="translate(19.8 40.27)"/><path class="cls-10" d="M611.61,96.51a14.51,14.51,0,0,1,1.48-.53c-2.07.15-4.15.22-6.24.33C608.2,98,609.9,97.26,611.61,96.51Z" transform="translate(19.8 40.27)"/></g><g class="cls-2"><path class="cls-11" d="M461.11,983.6c-2-.67-4-1.38-6.05-2.09a10.77,10.77,0,0,1,2.25,4.1C458.38,987,459.62,985.16,461.11,983.6Z" transform="translate(19.8 40.27)"/><path class="cls-11" d="M449.49,979.53l-1.07-.38a10.3,10.3,0,0,0-1.15.58A21.28,21.28,0,0,1,449.49,979.53Z" transform="translate(19.8 40.27)"/><path class="cls-11" d="M438.14,979.06a9.71,9.71,0,0,0,5.57,1.06A6.23,6.23,0,0,0,438.14,979.06Z" transform="translate(19.8 40.27)"/><path class="cls-11" d="M446.11,983.54c-.3-1.53-.25-3,1.11-3.8h0c-1.18.15-2.36.32-3.56.39A8.68,8.68,0,0,1,446.11,983.54Z" transform="translate(19.8 40.27)"/><path class="cls-11" d="M446.11,983.54c.29,1.48,1,3,1.13,3.84A20.22,20.22,0,0,0,446.11,983.54Z" transform="translate(19.8 40.27)"/><path class="cls-11" d="M434.89,1015.24c-1.35.74,1.31-8.36-1.37-6.88-5.71,1.25-11.1,4.24-15.82,3-2.69,1.5-3.39-9.57-6.07-8.08-5.72,1.25-21.87,10.19-14.13,11.63,11.78,1.64,19.88,1.12,30.58,2.12,9.29-1.5,18.44-3.78,27.83-4.86,2.5.19,4.54,1.48,6.63,2.7-2.56-2.2-5.19-4.4-8.16-6.63C450.66,1004.58,442.3,1015,434.89,1015.24Z" transform="translate(19.8 40.27)"/><path class="cls-11" d="M505.08,1001.08l-4,2.25c-3.07-7.87-8.77-6.6-14.46-5.35q.51,2.55,1,5.17c3,.23,4-2.25,2-4.92,4.4,7.11,9.71,9.43,15.62,10C505.53,1005.63,506.35,1002.77,505.08,1001.08Z" transform="translate(19.8 40.27)"/><path class="cls-11" d="M508.76,1008.33c-1.19,0-2.37,0-3.52-.12,0,.27-.05.54-.08.83l3.66-.46Z" transform="translate(19.8 40.27)"/><path class="cls-11" d="M413.16,981.46c-14.38-3.38-27.71-7.36-40.6-11.7-1.49,1.52-2.75,3.4-3.82,2a10.74,10.74,0,0,0-2.2-4.08c-1.88-.65-3.76-1.31-5.61-2-.71,0-1.45.1-2.2.18,0,0-.05,0-.07,0-1.35.75-1.42,2.25-1.11,3.78a20.1,20.1,0,0,1,1.11,3.85c-.16-.87-.82-2.36-1.11-3.85a8.6,8.6,0,0,0-2.39-3.43,9.42,9.42,0,0,1-5.55-1.1,6.2,6.2,0,0,1,5.55,1.1c1.21-.07,2.39-.24,3.57-.38l1.15-.58q-6.39-2.35-12.69-4.83a22,22,0,0,0-2.93,0c-3.48.38-6.95.73-7.65-4.25-.74-.28-1.49-.59-2.24-.93.07.33.16.59.22,1a6,6,0,0,1-.63-1.11q-4.72-1.9-9.44-4c-2.61,1.11-5.42,2.63-8,3.29,0,0-.56-3.48-.84-5.19a8.48,8.48,0,0,1-5,3.44c.94,3.25,1.65,6.73,2.61,9.05.88,5.21,7.6-7.7,7.71,1.64-.11-9.34-6.83,3.57-7.71-1.64-1-2.32-1.67-5.8-2.61-9.05-3.57.7-7.09-2.14-8.85-7.58,5.13-2.55,7.28,2.14,8.85,7.58a8.48,8.48,0,0,0,5-3.44c.28,1.71.84,5.19.84,5.19,2.57-.66,5.38-2.18,8-3.29-6.16-2.61-12.31-5.33-18.57-8.1-10-4.71-19.72-9.11-29.25-13.51-2.39-1.09-4.72-2.25-7.08-3.35s-4.72-2.19-7-3.36l-6.94-3.41-6.8-3.58a228.74,228.74,0,0,1-26-15.88,144,144,0,0,1-23-20,126.53,126.53,0,0,1-28.86-56.64c-2.29-10.12-5-19.52-7.76-28.94s-5.38-18.83-7.18-28.61a118.52,118.52,0,0,1-2-30.27,89.85,89.85,0,0,1,8.41-32.13c3.59-8.37,4-19.83,3.61-31.43s-1.5-23.27-1.62-31.34c-7.39-11.07-21.26-14.72-33.71-15.22s-23.33,2.14-24.5,2.64c-8.85,3.14-14.35,6.37-17.85,9.87a23.39,23.39,0,0,0-6.28,11.52c-.56,2.14-1,4.4-1.54,6.84s-1.06,5-1.88,7.86a79.78,79.78,0,0,1-9,20.12c5.5-10.78,11.19-6.87,12.6,2s-1,22.84-11.82,34.13c-16.65,16.44-15.85,36-10.17,55.21.69,2.42,1.54,4.84,2.37,7.25s1.7,4.82,2.66,7.24l2.81,7.23c1,2.42,2,4.83,2.89,7.24,3.79,9.67,7.14,19.35,8.81,29.62a38.85,38.85,0,0,0,1.95,7.61c.9,2.51,1.94,5,3.1,7.54l3.81,7.7c1.27,2.64,2.73,5.32,4,8.17a140.54,140.54,0,0,0,23,43.69,181.81,181.81,0,0,0,35.86,34.87,286.63,286.63,0,0,0,42,25.28l5.36,2.63c1.78.86,3.57,1.82,5.35,2.61q5.34,2.46,10.7,5c3.56,1.58,7.12,3.2,10.69,4.89s7.09,3.19,10.65,4.9c7.69,3.09,15.68,3.8,23.38,3.55,1.93,0,3.85-.14,5.75-.25l5.61-.49c3.69-.36,7.32-.61,10.77-.8,4.76.65,9.21,2.92,13.36,5.14s8.08,4.67,11.71,5.69c11.5,3.28,22.1,2.7,32.44,1.2-5.41-.59-10.14-.73-15.09-1.06a144.16,144.16,0,0,1-16.1-1.72c-8-1.72,8.85-10.07,14.61-11.26,2.75-1.43,3.36,9.67,6.13,8.23,4.74,1.28,10.22-1.63,16-2.86,2.71-1.46,0,7.64,1.34,6.92,7.46-.22,15.88-10.6,19.59-6.94,3,2.24,5.59,4.44,8.14,6.62a12.88,12.88,0,0,0,5.5,2l4.34-1.32a43.4,43.4,0,0,1,.89-10.13c1.68,1,3.69,3.67,5.37,4.65-1.68-1-3.69-3.68-5.37-4.65a43.4,43.4,0,0,0-.89,10.13,231.67,231.67,0,0,1,32.87-6.53l.09-.85c-5.9-.55-11.2-2.84-15.6-10,2,2.69,1,5.15-2,4.93-.33-1.72-.67-3.46-1-5.16,5.72-1.25,11.44-2.52,14.46,5.34l4-2.24c1.26,1.69.43,4.55.12,7.09a29.33,29.33,0,0,0,3.53.15C419,989.29,413.16,981.46,413.16,981.46Z" transform="translate(19.8 40.27)"/><path class="cls-11" d="M355.1,965.92a20.26,20.26,0,0,1,2.92,0l-10.62-4.2C348.13,966.69,351.61,966.31,355.1,965.92Z" transform="translate(19.8 40.27)"/></g></svg>