<svg id="Warstwa_1" data-name="Warstwa 1" xmlns="http://www.w3.org/2000/svg" viewBox="0 0 1920 1080"><defs><style>.cls-1{fill:#fff;}.cls-2{fill:#ff3eff;}</style></defs><title>Obszar roboczy 1</title><rect class="cls-1" width="1920" height="1080"/><path class="cls-2" d="M1641.45,586.11c-10.18-8.45-22.72-9.74-35.4-11.2q-22.58-2.6-45.18-5-46.2-4.85-92.49-8.7-92.57-7.72-185.42-11.56-184.65-7.61-369.5.23c-60.85,2.59-122.1,5.89-181.84,18.52-11,2.31-22.31,5.36-31.15,12.59-9.42,7.7-12.77,19.32-10.77,31.12,4,23.57,23.1,42,42.17,54.57a264.69,264.69,0,0,0,30.45,16.85c12.95,6.29,26.24,12.52,40.27,16,13,3.23,26.81,4,39.76.1,11.53-3.45,21.77-10.11,30.55-18.24,18.39-17,32-40.41,42.6-62.9,11.83-25.12,18.56-51.87,17.42-79.76-1.17-28.84-9.28-56.9-19.7-83.64-9.61-24.65-20.68-48.95-33.93-71.85-12.7-22-27.79-42.86-46.19-60.42-17-16.26-40.32-35.73-65.61-31.55-10.68,1.77-20.68,8-25.55,17.85-3.4,6.9,6.94,13,10.36,6.05,4.64-9.4,15.13-13.34,25.21-12.39,12.08,1.14,23,8.58,32.33,15.76,18.89,14.54,34.68,32.91,47.88,52.68,13.35,20,24.3,41.54,34.06,63.51,11,24.81,20.87,50.47,26,77.22,5.08,26.54,4.32,53.45-4.12,79.21-7.59,23.17-19.93,45.56-34.44,65.12-13.38,18-31.77,33.92-55.36,34-13.61.06-26.93-4.37-39.32-9.65-11-4.69-21.82-10-32.29-15.75-18.8-10.32-37.54-23.48-47-43.42-4.85-10.25-6.92-23,2.69-31.16,7.87-6.65,19-8.71,28.77-10.74,56.17-11.64,113.63-14.93,170.82-17.43q172.77-7.59,345.8-1.61,173.33,6,345.84,25.56c10.88,1.23,24.9,1.08,33.79,8.47,5.9,4.9,14.43-3.54,8.48-8.49Z"/><path class="cls-2" d="M1057.87,484,838.23,511.66c-18.25,2.3-36.6,5.41-54.94,6.81-7.62.58-14.95-.06-21.09-5.08-5.87-4.79-9.77-11.71-13.43-18.21-13.93-24.77-28.91-48.71-46.06-71.4A597.88,597.88,0,0,0,581.07,303.51a583.46,583.46,0,0,0-72-45.53q-19.23-10.29-39.23-19.06c-13.27-5.84-27.73-13.38-42.15-15.62-11.55-1.79-23.21,2.63-28.36,13.56-4.8,10.18-3.48,22.47-.52,33,3.9,13.83,11.73,26.6,18.84,39,8.2,14.23,17.06,28.06,26.45,41.53,35.18,50.45,76.75,98.51,125.49,136.31,45.47,35.26,100.21,62,158.86,61.56,14.6-.1,28.87-2.94,40.06-12.87,9.41-8.34,15.31-20.41,18.08-32.52,6.26-27.34-2.18-56.37-16.94-79.55-34.08-53.5-99-78.12-156-98.78C581.91,313,548.76,304,514.81,303.4a186.22,186.22,0,0,0-81.29,17.35c-48.39,22.3-87.18,64.83-103,115.9-19.52,63.11-5.3,131.25,22.75,189.41C380.53,682.52,420,733.88,461.18,780.88c38.77,44.3,82.4,85,132.13,116.76a428.61,428.61,0,0,0,76.58,39C695.4,946.45,722.06,954,749.53,955c24,.87,49.77-3.27,69.61-17.68,25.3-18.38,32.39-48.24,40.49-76.78q14.68-51.87,29.4-103.73c8-28,16.51-56.46,32.39-81.14,17.21-26.75,43.17-43.64,72.5-54.76,30.87-11.71,63.37-19.72,95.28-28a2240.37,2240.37,0,0,1,421.87-67.83q51.45-3.28,103-4.21c7.71-.14,7.74-12.14,0-12A2264.67,2264.67,0,0,0,1208,553.14c-65.57,13.24-131.14,28.73-195,48.63-27.74,8.64-55.54,19.66-77.58,39.13-20.84,18.41-34.16,43.3-43.9,69-10.92,28.78-18.3,59-26.68,88.53l-14.32,50.52c-4.44,15.66-8.15,31.85-14.3,47-10.06,24.68-30.11,39.68-55.91,44.93-24.07,4.9-49.63,1.85-73.12-4.52C596.81,906.4,508.64,823.69,439.57,736.13c-38.36-48.61-75.11-101.29-93.79-161-18.13-57.93-18.12-123.87,15.4-176.33C389,355.34,436.25,324.27,487.47,317c31.33-4.47,63.25.66,93.4,9.37,31.37,9.07,62.26,21.41,91.85,35.18,49.72,23.13,106.49,64.61,103.88,126.22-.53,12.56-4.48,25.85-12.91,35.43-10.2,11.59-24.83,13.28-39.47,13-28.17-.53-56.06-7.49-81.75-18.94-52-23.18-95.61-62.07-133.23-104.12a716.69,716.69,0,0,1-59.34-75.43c-8.79-13-17.07-26.25-24.73-39.9-6.4-11.41-13.29-22.94-16-35.88-1.8-8.66-2.49-22.13,7.51-26.13,7.34-2.93,16,1,22.81,3.59s13.81,5.41,20.62,8.34a572.19,572.19,0,0,1,73.81,38.42A583.49,583.49,0,0,1,660.42,391.35a568.61,568.61,0,0,1,50.9,65.13q11.32,16.89,21.4,34.56c6.39,11.22,12.06,23.75,22.4,32,12.64,10.06,27.79,7.62,42.72,5.74l53-6.68,104.77-13.19L1057.87,496c7.56-.95,7.65-13,0-12Z"/><path class="cls-2" d="M1126.66,331.41c-47-8-96.49-6.87-141.58,9.76-39.65,14.62-74.53,41.1-97.17,77a158.23,158.23,0,0,0-23.32,65.37c-.93,7.65,11.08,7.58,12,0,4.64-38.25,26.1-72.71,54.9-97.64,32.12-27.81,73.72-42.51,115.69-46.31a295.47,295.47,0,0,1,76.29,3.35c7.56,1.29,10.8-10.27,3.19-11.57Z"/><path class="cls-2" d="M1318.25,434.08a64.34,64.34,0,0,0-21.81-7.76c-6.34-1-17.18-2.92-21.82,2.47-9.52,11-12,26.57-12.54,40.63-1.11,27.9,2.7,56.37,9.66,83.36a329.26,329.26,0,0,0,81.07,145,309.33,309.33,0,0,0,74.61,57.14c6.78,3.7,12.84-6.66,6-10.37-84.41-46-143.67-133.55-156.86-228.64a283,283,0,0,1-2.66-40.2c.07-13.57,1.07-28.69,10.14-39.57l-4.24,1.76a53.58,53.58,0,0,1,32.35,6.59c6.73,3.8,12.78-6.56,6-10.36Z"/><path class="cls-2" d="M1349.87,324.41a255.91,255.91,0,0,0-35.78,131.41c.1,47.2,13.93,92.08,37.55,132.73,14,24,30.51,46.43,47.31,68.53,4.61,6.07,15,.1,10.36-6.06-28.45-37.42-57-76.47-71.63-121.67a244.13,244.13,0,0,1-5.07-130.58,239.76,239.76,0,0,1,27.62-68.3c4-6.64-6.39-12.68-10.36-6.06Z"/><path class="cls-2" d="M1006.48,201.28l-138,45.42-69,22.71c-21.16,7-43.12,13.1-62.68,24-35.95,20.08-61.34,55.39-84.63,88.34a827.63,827.63,0,0,0-65.6,110A839.65,839.65,0,0,0,534,625.39c-2.21,7.41,9.37,10.58,11.57,3.19a825.53,825.53,0,0,1,107-226.31c11.52-17.07,23.59-33.85,36.57-49.84,12.46-15.36,26.12-30.21,42.43-41.55,17.87-12.43,38.34-19.11,58.83-25.86l67.12-22.08,152.19-50.09c7.31-2.4,4.18-14-3.19-11.57Z"/><path class="cls-2" d="M428.46,663.07l-59.94,84c-4.49,6.3,5.91,12.3,10.37,6.06l59.93-84c4.5-6.3-5.91-12.3-10.36-6.06Z"/><path class="cls-2" d="M70.36,566.22a177.47,177.47,0,0,0,34.77,3.66c7.73,0,7.74-12,0-12a161.07,161.07,0,0,1-31.58-3.23c-7.54-1.55-10.76,10-3.19,11.57Z"/><path class="cls-2" d="M831.15,190.68C737.73,177.92,649,218.76,573.68,270.24c-21.57,14.75-42.48,30.43-63.25,46.28-6.06,4.62-.09,15,6.05,10.36,70.72-53.95,146.27-108,236-123.06A252.29,252.29,0,0,1,828,202.25c3.24.44,6.4-.78,7.38-4.19.81-2.8-1-6.94-4.19-7.38Z"/><path class="cls-2" d="M280.63,289.43l-135-1.63c-7.72-.09-7.72,11.91,0,12l135,1.63c7.72.09,7.73-11.91,0-12Z"/><path class="cls-2" d="M21.23,126.33l-8.39-1.27,1.44,11A224,224,0,0,0,65.79,98.77c5.57-5.38-2.92-13.86-8.48-8.49A212.25,212.25,0,0,1,8.22,125.67c-4.26,2.23-3.74,10.18,1.43,11L18,137.9c7.56,1.14,10.82-10.43,3.19-11.57Z"/><path class="cls-2" d="M154.69,62.68,300.1,81.3c7.64,1,7.57-11,0-12L154.69,50.68c-7.64-1-7.57,11,0,12Z"/><path class="cls-2" d="M487.18,88c-24.38,22.41-59.37,26.42-91.08,24.2-7.71-.53-7.67,11.47,0,12,35,2.45,72.8-3.12,99.56-27.72,5.7-5.23-2.8-13.7-8.48-8.48Z"/><path class="cls-2" d="M1037,165.26q144-17.91,289.1-25.09,73.35-3.6,146.8-4.4c23.31-.26,46.65-.45,70-.11,20.9.32,42.08,1.47,62.11,7.91,42.57,13.68,66.75,54,89.71,89.47q36.94,57.12,68.8,117.33c21.53,40.69,42.73,82.55,53.3,127.64,10.15,43.3,6.59,85.48-11.17,126.21-15.81,36.23-37.87,69.64-50.42,107.31-14.14,42.43-8.92,86.21-10.29,130.06-1.13,36.45-9.7,79.3-41.42,101.84-17,12.05-37.88,16.43-58.16,18.92-23.31,2.86-46.83,4.45-70.24,6.11-192.15,13.63-384.9,5.94-577.29,11.37-95.5,2.69-190.76,9-285.45,21.93-48.21,6.57-96.56,13.86-145.33,14-48.08.13-94.17-9.21-140-23.17-42.17-12.85-86.66-25.09-125.26-46.86-32.58-18.39-57.87-45.69-79.41-75.87-41.25-57.78-72.05-122.73-130.62-165.73-17.18-12.62-34.78-25.28-42.84-45.87-6.91-17.67-6.54-37.33-2.74-55.67,8-38.68,29.69-72.74,51.07-105.32C139.06,433.5,189,372.19,212.34,298.46a265.86,265.86,0,0,0,11.32-55c1-9.93.58-20.24,11.71-24,10.74-3.67,23.15-4.7,34.29-6.75Q341.51,199.4,413.84,189q143.84-20.75,289-30.35c95.75-6.36,191.3-7.31,287.19-8.34,21.73-.24,43.68-1.43,64.85-6.69,17.45-4.32,33.92-11.8,49.53-20.62,31.28-17.69,59.42-41.06,92.36-55.79,31.91-14.27,67.06-15.46,97.6,2.94,30.31,18.27,51,49.47,67,80.23,18.88,36.25,35.34,76.08,43.37,116.23,4.57,22.79,3.47,45.38,4.16,68.43.57,18.75,2.87,39.35,14.27,54.93,15.82,21.64,49.29,35.19,71.26,14.48,5.63-5.31-2.87-13.78-8.49-8.48-13.39,12.62-33.35,5.93-45.65-4.91-15.91-14-18.8-35.92-19.39-56-.64-21.89.31-43.47-3.39-65.19-3.87-22.69-11.17-44.64-19.49-66.05-23.62-60.75-58.65-140.61-129.25-157-74-17.2-129.35,49-191,76.33-43.4,19.25-92.27,15-138.55,15.21q-73.07.3-146.07,3.4Q644.54,148,496.74,166q-72.47,8.81-144.55,20.34-36.07,5.79-72,12.26Q263,201.63,246,204.87c-9.77,1.86-20.46,3.09-27.13,11.33-5,6.22-6,14.31-6.71,22a280.14,280.14,0,0,1-4.39,30.8,289.58,289.58,0,0,1-17.85,55.37c-15.7,36.24-37.16,69.67-59.22,102.3C108.21,459.83,84.77,492.4,64.53,527c-19,32.42-35.84,70.38-32.74,108.85,1.45,18,7.6,35,19.12,49,13.07,15.88,31.3,26,47,39,28.3,23.37,49.75,53.47,69.59,84,19.64,30.25,38.06,61.42,60.81,89.51,24.48,30.22,54,53.84,89.59,69.79,41,18.34,85.3,31.63,128.52,43.52,46.4,12.77,93.23,18.55,141.36,16.55,49.28-2,98-10.19,146.86-16.49s97.83-10.7,146.94-13.8c197.4-12.46,395.32-3.74,592.87-11.17,48.63-1.82,97.23-4.63,145.7-9,39.74-3.55,82.4-7.8,108.78-41.56,22.82-29.19,27.9-67.8,28.19-103.74.19-23.39-1.26-46.82.43-70.18,1.68-23.12,7.64-45.14,16.8-66.38,15.65-36.33,37.72-69.69,50.51-107.27,14.3-42,11.74-86.27-.59-128.45-12.68-43.39-33.78-84.07-55.08-123.74Q1735.4,272.67,1696,213.1c-22-33.15-45.93-66.51-85-80.17-19.35-6.76-40.21-8.53-60.56-9.11-24.65-.7-49.36-.34-74-.09q-148.62,1.5-296.83,14.42-71.41,6.22-142.57,15.11c-7.57.94-7.66,13,0,12Z"/></svg>