<svg id="Warstwa_1" data-name="Warstwa 1" xmlns="http://www.w3.org/2000/svg" viewBox="0 0 1200 400"><defs><style>.cls-1{fill:#fff;}</style></defs><title>podkladka</title><text/><path class="cls-1" d="M33.54,323.81c3,8.2,9.09,9.4,14.82,11.13C44.42,327,39.89,323.36,33.54,323.81Z"/><path class="cls-1" d="M48.47,335.12s.07-.07.09-.1a.7.7,0,0,1-.2-.08C48.4,335,48.44,335,48.47,335.12Z"/><path class="cls-1" d="M1181.71,20.36l-4.71.47A7.73,7.73,0,0,0,1181.71,20.36Z"/><path class="cls-1" d="M329.42,375.54l1.6-13.15c13.85.53,3.22,15.31,16.2,12.72,6-18.41,21.16,3.05,26.1-6.64-.18,1.48,6.06,2.38,5.36,8.2,2.44-10,6.57-2,10.65-4.4,1.58-2.75-.9-3.08-1.81-6.2l9.23-3.14c3.37,3.44,3.95,9.44.05,10.36,5.87,1.19,17.34,3,31.66,5.08s31.47,4.3,48.71,6.16,34.54,3.51,49.15,4.41,26.52,1,32.95,0c-3-7.8-11.06-2.94-13.55-15.1,7-6.48,9.82,2.76,13.08-4.22,1.87,18,14.64,4.88,19,23.23l2.33-10.07,3.11,6.35c30.07-9.4,7-4.84,33.18-1.49,15.28-1,23-14.84,31.29-9.35-1.25-.15-4.38-6.49-.35-8.94.36,8.94,10.71-6,12.31,3.05,3.9-1,16.36.61,12.54-11.73,1.92,6.17,13,9,6.17,14.09,3.75.48,7.33,2.39,10.13-.21L683.82,371c12.77-1.37,19.39,8.29,28-2.47l-4.54-5c7.61-.53,14-1.24,16.6,10.91L716,377.88c12.61.09,20.24-.46,30.93-6.55l-3.74-.45c6.87-5.78,27.87-10.74,48.71-16,10.43-2.66,20.81-5.41,29.39-8.42s15.33-6.34,18.5-10l-5.44-9.5,10.77-7.64c-1.25-.14-5.85,30.29-6.82,27.21,5.67-.09,17.31-.43,31.91-.8l23.72-.53c8.4-.18,17.15-.36,25.89-.48,17.49-.23,34.91-.24,49.27.22s25.64,1.31,30.85,3c8.38,5.31,1.3,14.89,1.18,16.37,10.35-3.34,4.59-9.87,13.33-8.93,2.36,1.72-.6,7.33-2,8.65,3.85-1.05,7.37,2.25,7.72-2.13-4.75-3.46-2.55-15.05-4.47-22.62l11.23,1.17-.6,7.33c2.51.25,6.63-19.94,17.61-15.87,18.59,3.38,38.86,1,57.57,2.93-.33,4.39-4.29,6.95-8.26,9.49,2.51.25,6.35-.83,8.63,2.35-4.45-7.82,7.92-5.09,4.41-8.4,13.87-17.79,31.48-1.33,43.68-13.41.58-8,7.52-77.26,14.21-146.85s13.17-139.55,13.22-149.14c3.69.37,7.37.74,8.49,2.33-.94-4.51-8.18-6.71-12.06-4.16l-.72,10.27c-8.9,3.54-2-6.12-10.72-5.48-.41-8.41,7.58-10.15,14.6-10.91-6.32-1-12.57-7.19-15.2,2-5.92-3.54.72-10.27-6.41-13.91-5.11,2.44-11.86,10.62-17.68,5.61l.12-1.48C1123.67,4.26,1116,25.66,1103,16.92l1.43-2.79c-4.55-4.92-13.66,1.52-21.9-3.76,2.35,1.72,4.34,7.83-.65,8.78-9.48-5.41-16-.18-22.93-6.8l-6.79,8.16c-8.3-.47-22.72-.29-40.22.35s-38.06,1.71-58.64,2.73l-58.71,3.08c-17.53.85-32,1.49-40.36,1.62L855.59,27c-6.37.36-13.57.63-21.4.85s-16.29.31-25.18.42l-56.77.65c-19.53.27-39.13.76-57.15,1.79s-34.47,2.47-47.71,4.84c-7.83-8.39-19.11-6.88-27.5-9.45,4.59,3.54,2.76,9.23-.91,8.77-25.81-2-2,5.53-28.24,7.95-7.6,1.58-20.48,1.94-35.94,1.47s-33.49-1.9-51.4-3.71c-8.95-.91-17.87-1.93-26.42-3s-16.73-2.3-24.2-3.49c-14.94-2.38-27-4.8-33.64-6.85-14.94,11.27-32.39,1.26-46.84,8.07l1.56-2.74c-3.83.93-12,.65-22.4-.23-5.19-.45-10.94-1-17-1.71L315.8,28.37c-25.34-3.13-51-6.24-59.87-4.67l2.25,1.85C242.45,32,245.31,19.1,233.52,14.31c.77,13.47-12.8,20.27-17.86,21l.37-2.91c-7.68,1.79-25.49,12.4-38.07,13.35l1-7.29c-10.89,7.19-30.22,2.65-37.73,2.94-16.89-4.1-42.32-18.69-65.81-10.61L62.12,8.89l-2.3,1.92s-10.4,62.54-17.56,132-11,146,2.4,173.82l-1,7.26,6.13-.52c7,4.1,11-4.13,10,3.12l-9.9-1.58c7.16,2.62,1.79,6.14-1.3,10.08,3,.92,5.91,2,8.18,4.41,1.64-2.71-.84-3.1-1.87-4.77,4.11-2.3,10.06-8.78,14.62-5.09,7.44,1.21-.34,11.86,8.34,13.26,22.85,4.46,45.32,9.41,67.92,13.53s45.34,7.21,68.72,7.8c.87,3.1-.38,2.91-1.81,4.19,14.25-2.31,26.67-.36,39.66-2.92,3.36,3.47,4.07,8,4.95,11.12C255.51,370.35,328.35,374,329.42,375.54Z"/></svg>