<svg id="Warstwa_1" data-name="Warstwa 1" xmlns="http://www.w3.org/2000/svg" xmlns:xlink="http://www.w3.org/1999/xlink" viewBox="0 0 1920 1080"><defs><style>.cls-1,.cls-7{fill:none;}.cls-2{clip-path:url(#clip-path);}.cls-3{clip-path:url(#clip-path-2);}.cls-4,.cls-7{font-size:400px;font-family:SegoeScript-Bold, Segoe Script;font-weight:700;}.cls-5{letter-spacing:-0.18em;}.cls-6{fill:url(#Spectrum_);}.cls-7{stroke:#f2f2f2;stroke-miterlimit:10;stroke-width:2px;}</style><clipPath id="clip-path"><path class="cls-1" d="M1712.15,1080H207.85C93.06,1080,0,986.94,0,872.15V213.23C0,95.47,95.47,0,213.23,0H1712.15C1826.94,0,1920,93.06,1920,207.85v664.3C1920,986.94,1826.94,1080,1712.15,1080Z"/></clipPath><clipPath id="clip-path-2"><rect class="cls-1" x="-5" y="-5" width="1930" height="1090"/></clipPath><linearGradient id="Spectrum_" x1="213.67" y1="502.02" x2="1670.7" y2="502.02" gradientUnits="userSpaceOnUse"><stop offset="0" stop-color="#00a0db"/><stop offset="0.2" stop-color="#362983"/><stop offset="0.4" stop-color="#e4007d"/><stop offset="0.6" stop-color="#e31f21"/><stop offset="0.8" stop-color="#ffe900"/><stop offset="1" stop-color="#009447"/></linearGradient></defs><title>zaokraglone_Obszar roboczy_1</title><g class="cls-2"><g class="cls-3"><image width="4022" height="2272" transform="translate(-5.28 -5.28) scale(0.48)" xlink:href="zaokraglone_Obszar%20roboczy_11.png"/></g></g><text class="cls-4" transform="translate(209.77 639.81)">S<tspan class="cls-5" x="244.73" y="0">T</tspan><tspan x="464.84" y="0">ART</tspan></text><path class="cls-6" d="M445.12,396.06a39,39,0,0,1-.69,6.64,58.43,58.43,0,0,1-2.05,8.11q-1.36,4.2-3,8a22.18,22.18,0,0,1-3.81,6.15h.19q-6.25,7.42-29.49,7.42a135.44,135.44,0,0,0-.68-14.55,36.48,36.48,0,0,0-2.25-9.86,11.86,11.86,0,0,0-4.88-5.28,35.24,35.24,0,0,0-7.91-3.51,60.18,60.18,0,0,0-8.89-2.05,52.46,52.46,0,0,0-7.81-.69q-8.4,0-16.41.39a157.85,157.85,0,0,0-15.72,1.57A139.85,139.85,0,0,0,310,407.2a121.94,121.94,0,0,0-12.4,5.85A88.42,88.42,0,0,0,285.35,421a53.86,53.86,0,0,0-9.67,9.58,24.41,24.41,0,0,0-5,11l.2-.39A22.35,22.35,0,0,0,274,451.63a52.48,52.48,0,0,0,8.5,11.33,70.72,70.72,0,0,0,12.4,10.15,52.49,52.49,0,0,0,14.85,6.74l3.32,1.17c1.82.66,4,1.4,6.64,2.25s5.37,1.79,8.3,2.83,5.66,2,8.2,2.83l6.45,2.15c1.75.59,2.76.95,3,1.08q45.32,11.52,67.19,27.73t21.88,39.84a37.23,37.23,0,0,1-3.32,15.14,75.32,75.32,0,0,1-8.4,14.36,102,102,0,0,1-11,12.59,111.75,111.75,0,0,1-11.23,9.67l.2-.19q-5.67,4.49-12.8,9.18t-15.33,9.18q-8.21,4.49-17,8.39a173.87,173.87,0,0,1-18,6.84q-8.59,2.73-18.07,5.18T301,654.27Q291.61,656,282.91,657a142.34,142.34,0,0,1-15.72,1,58.44,58.44,0,0,1-9.08-.88q-5.38-.89-11.33-2.44T234.86,651a65.3,65.3,0,0,1-10.64-4.89,33.34,33.34,0,0,1-7.62-5.86,9.6,9.6,0,0,1-2.93-6.64,31,31,0,0,1,1.17-7.61,40,40,0,0,1,3.42-8.7,30.37,30.37,0,0,1,5.28-7.22,9.11,9.11,0,0,1,6.54-3,34.87,34.87,0,0,1,9.18,1.17l9.67,2.64q5.37,1.47,12.5,2.73a102.73,102.73,0,0,0,17.67,1.27,114.4,114.4,0,0,0,22-2.24,172.4,172.4,0,0,0,22.56-6.06,193.36,193.36,0,0,0,21.29-8.69,169.49,169.49,0,0,0,18.36-10.16c2.35-1.56,4.91-3.35,7.72-5.37a63.69,63.69,0,0,0,7.81-6.64,42.46,42.46,0,0,0,6.05-7.52,14.89,14.89,0,0,0,2.44-8q0-4.7-7-9v.2a99.6,99.6,0,0,0-20.5-9.57Q349.6,538.44,342,536.3q-21.48-5.47-52.34-17.39h.19a134.84,134.84,0,0,1-25-13.08A133.47,133.47,0,0,1,244,489q-19.55-21.67-19.54-50a42.08,42.08,0,0,1,6.25-21.68,80.71,80.71,0,0,1,17-19.82,145.14,145.14,0,0,1,24.9-17.09,194.5,194.5,0,0,1,30.17-13.38,226.26,226.26,0,0,1,32.72-8.69,175.86,175.86,0,0,1,32.32-3.13q4.89,0,12.21.69t15,1.95q7.71,1.28,14.75,3.12a47.56,47.56,0,0,1,11.13,4.2h-.2a55.19,55.19,0,0,1,17.87,14.46Q445.13,388.06,445.12,396.06Z"/><path class="cls-6" d="M770.7,373.21q0,5.87-5.56,12.5t-17.09,10.74q-12.31,4.31-25,7.62t-28.52,6.25c-3.9.78-7.75,1.5-11.52,2.15l-11.92,2q-6.26,1.08-13.28,2.15t-15.62,2.44q-2.55,13.68-4.49,29.78T633,480.44q-.78,4.29-1.66,11.13t-1.76,15q-.89,8.21-1.86,17.09T626,540.89q-.79,8.29-1.37,15.33t-1,11.52q-.58,8.21-1.17,16.7t-1,17.09q-.19,4.89-.87,11.33T619,625.46q-1,6.15-2.06,10.93c-.71,3.2-1.4,5.24-2,6.16a76.67,76.67,0,0,1-10.35,2.83,48.09,48.09,0,0,1-8.2.68,48.92,48.92,0,0,1-11.52-1.27,23.77,23.77,0,0,1-9-4.1,18.93,18.93,0,0,1-5.76-7.32,26.21,26.21,0,0,1-2-10.94,166.57,166.57,0,0,1,2.15-26.37q2.14-13.47,3.9-26.56.19-1,1.37-8.79t3-19.24q1.85-11.41,4-24.51t4-24.51q1.85-11.43,3.12-19.34t1.27-8.88Q592,455.05,593,444.7t2.15-17.78c-1.57,0-4.56.17-9,.49s-9.6.68-15.52,1.07l-18.85,1.27q-10,.69-19,1.18l-15.92.87q-6.93.4-9.86.4-21.28,0-33.1-5.57T462.11,407.2a18,18,0,0,1,1.56-6.25,38.44,38.44,0,0,1,4.3-7.82,32.75,32.75,0,0,1,6.25-6.74,11.46,11.46,0,0,1,7.23-2.83,55.56,55.56,0,0,1,13.86,1.76q6.84,1.76,11.14,2.73c1.43.27,2.89.49,4.39.69a39.66,39.66,0,0,0,5,.29q3.51,0,8.79-.19t12.11-.2q4.88,0,12.69-.59t17.09-1.56q9.29-1,19-2.15T604.2,382q8.88-1.17,16-2.15c4.76-.65,8.43-1.17,11-1.56q22.65-3.12,43.46-6.84t39.35-7.22q7-1.37,11.23-2.35t7.33-1.85c2.08-.59,4.2-1.24,6.34-2s4.85-1.52,8.11-2.44q5.67,0,10.06.3a16.67,16.67,0,0,1,7.42,2.05,11.08,11.08,0,0,1,4.59,5.27Q770.7,366.76,770.7,373.21Z"/><path class="cls-6" d="M1001.17,621.84a23,23,0,0,1-1.85,9.18,23.94,23.94,0,0,1-5.08,7.52,24.49,24.49,0,0,1-7.81,5.18,25,25,0,0,1-9.87,1.95,17.12,17.12,0,0,1-9.57-3.12,49.2,49.2,0,0,1-9.08-8,88.22,88.22,0,0,1-8.4-11,139.22,139.22,0,0,1-7.22-12.4q-3.22-6.24-5.77-11.91t-4.1-9.38q-2.14-5.26-4.29-9.76a102.6,102.6,0,0,1-4.5-11.53l-2-5.86c-.46-1.3-.85-2.31-1.17-3s-.59-1.3-.78-1.76a17.93,17.93,0,0,1-.68-2,24.33,24.33,0,0,1-8.4,2q-4.5.29-10,.29a13.73,13.73,0,0,0-3.32.69c-1.57.45-3.36,1-5.38,1.66s-4.1,1.33-6.25,2.05-4.19,1.33-6.15,1.85q-9.37,2.34-20.31,4.49t-22.85,4.2q-11.93,2.05-24.32,4.1t-24.9,4.2a6,6,0,0,0-2.34.79,11.79,11.79,0,0,0-2.74,3q-1.75,2.44-5.27,7.52t-10,14.46q-7.42,10.74-14.07,18.65a176.48,176.48,0,0,1-12.5,13.57,41.9,41.9,0,0,1-12,8.6A31.13,31.13,0,0,1,715,651a52.85,52.85,0,0,1-16-2.25,41,41,0,0,1-11.81-5.76,26.44,26.44,0,0,1-7.23-7.62,15,15,0,0,1-2.44-7.62c0-4.42,1.88-7.52,5.66-9.27a64.76,64.76,0,0,1,15.63-4.4A22.44,22.44,0,0,1,701,611.1q2.14-2.73,5.07-6.25t5.77-6.93c1.88-2.28,3.22-4,4-5.18q7.62-10.54,15.92-22T750,544.5v.2q5.07-7.43,8.3-12.31t6.15-9.18q2.94-4.29,6.16-8.79t7.91-11.13q12.11-17,21.19-28.81t14.94-19.63q7-10.94,13.28-20.9,2.73-4.29,5.27-8.69l4.89-8.49q2.34-4.11,4.2-7.72t2.83-6.15q23.24-56.83,39.84-56.84a51.76,51.76,0,0,1,11.72,1.08,13.38,13.38,0,0,1,6.93,3.71,14.07,14.07,0,0,1,3.32,6.93,54.62,54.62,0,0,1,.88,10.74V378q0,3.42-.19,5.95c-.13,1.7-.23,3.39-.3,5.08s-.22,4-.48,6.84q4.68,10,9.08,20.51t8.3,20.89q.78,2.36,3.42,9.87t6.25,17.67q3.6,10.15,7.61,21.49t7.43,21.29q3.41,10,6,17.18T958.2,534q2.53,10.95,14.26,36.14,1.56,3.12,2.64,5.46a54.9,54.9,0,0,0,2.54,4.89q1.46,2.53,3.81,5.86t6.25,8.59Q1001.17,613.25,1001.17,621.84ZM870.7,523.41q8.59-2.14,17.48-4.5t16.51-4.68q-3.13-9.57-6.45-19.93t-6.93-20.6q-3.62-10.26-7.33-19.92a179,179,0,0,0-7.81-17.68q-16.6,22.66-33.3,47.66t-31.74,51q5.86-.59,12.31-.87a44.52,44.52,0,0,0,10.35-1.47q5.26-1.56,9.47-2.73t8.4-2.15c2.8-.65,5.69-1.3,8.69-2S866.8,524.19,870.7,523.41Z"/><path class="cls-6" d="M1367,627.9a15.84,15.84,0,0,1-3.32,9.18,25.51,25.51,0,0,1-8.79,7,34.91,34.91,0,0,1-8.88,3.32,43.88,43.88,0,0,1-10.06,1.17,58.74,58.74,0,0,1-23-4.78,147.9,147.9,0,0,1-24.41-13.58q-6.45-4.29-16.41-11.42t-22.85-17.09q-3.13-2.36-12.31-9.48T1212.5,573q-14.05-11.14-22.46-17.48t-9.57-6.94a13.34,13.34,0,0,0-4.59-1.07q-2.25-.1-8.3-.1h-2.74c-.91,0-2,0-3.22.1s-2.86.16-4.88.29-4.72.33-8.11.59q-11.91-8.4-11.91-22.86,0-7,3.32-11.52a19.32,19.32,0,0,1,9.57-6.64l2.34-.59a15.89,15.89,0,0,1,1.66-.29c.59-.06,1.4-.19,2.44-.39a42.26,42.26,0,0,1,4.5-.49,43.41,43.41,0,0,0,10.93-1.36,79.63,79.63,0,0,0,10.26-3.42q5-2.06,9.57-4.49t8.89-4.59q6.24-3.13,13-7.23t13.58-8.59a138.94,138.94,0,0,0,11.81-9q5.76-4.87,11.43-10.55a30.76,30.76,0,0,0,6.54-9.08,22.06,22.06,0,0,0,2-9.08,22.79,22.79,0,0,0-4.29-13.09,51,51,0,0,0-10.84-11.32,79,79,0,0,0-14.26-8.79,93.75,93.75,0,0,0-14.55-5.67,95.27,95.27,0,0,0-26.56-3.9c-2.61,0-5.86.13-9.77.39s-8.27.65-13.09,1.17q-6.63.78-13,1.46c-4.24.46-8.3,1-12.21,1.66-1.83.27-3.26.46-4.3.59s-2.08.29-3.12.49l-3.62.68c-1.36.26-3.22.66-5.56,1.17a69.1,69.1,0,0,1,2.73,7.82c.78,2.73,1.5,5.73,2.15,9a96,96,0,0,1,2.25,14q.48,6.34.48,11.42,0,5.87-.09,11.13t-.49,10.36a186.78,186.78,0,0,1-2.34,20.7q-1.77,10.15-4.69,26.37-2.34,13.86-3.91,24.51T1117,557.2q-1,7.8-1.46,15.23t-.49,14.06a106,106,0,0,0,.59,11.53,80.12,80.12,0,0,0,1.85,10.64,61.53,61.53,0,0,0,3.52,10.25,91.08,91.08,0,0,0,5.56,10.55,27.61,27.61,0,0,1-5,5.86,46.41,46.41,0,0,1-6.44,4.88,36.29,36.29,0,0,1-6.94,3.42,19.49,19.49,0,0,1-6.64,1.27q-15.81,0-23-6.64-8.2-7-10-16.41a68.3,68.3,0,0,1-1.26-10.54q-.3-5.87-.3-13.28a177.59,177.59,0,0,1,1.17-20.71q1-8.79,2.25-16.89t2.83-16.12q1-3.51,1.56-6.64c.4-2.08.75-4.26,1.08-6.54s.68-4.75,1.07-7.42.85-5.76,1.37-9.28q2.54-16,4.1-30.86a261.3,261.3,0,0,0,1.56-27.15q0-9.37-.48-19.62t-1.66-21.39q-6.25,1.75-10.55,2.64a36.22,36.22,0,0,1-5.86.87q-10.35,0-13.77-5t-3.42-14q0-10.16,17.58-18.75,6.84-3.32,13.77-6.06t13.77-4.88q7.62-2.34,18.16-4.49t23.25-4.1q12.11-1.76,23-2.83t19.53-1.08a230.83,230.83,0,0,1,57.23,7,126.59,126.59,0,0,1,26.56,10,98.86,98.86,0,0,1,21.68,15q21.11,18.94,21.1,49,0,19.53-15,38.47a146.61,146.61,0,0,1-29.1,27.25,361.72,361.72,0,0,1-36.14,22.36l12.5,9q6.25,4.49,13.48,9.37,10.74,7.43,20,14.06t17.48,12.31l18.07,12.5q9.85,6.84,21.77,15,11.33,7.62,20.8,13.77T1363.48,623Z"/><path class="cls-6" d="M1670.7,384.34a21.39,21.39,0,0,1-1.85,9.67,15.25,15.25,0,0,1-4.79,5.67,16.66,16.66,0,0,1-6.35,2.73,33,33,0,0,1-6.54.68c-4.69,0-8.88,0-12.6-.09s-7.32-.17-10.84-.3-7.19-.22-11-.29-8.3-.1-13.38-.1q-4.89,0-11.23.59t-13.18,1.56c-4.56.65-9.12,1.44-13.68,2.34s-8.78,1.83-12.69,2.74-7.33,1.85-10.25,2.83a34.76,34.76,0,0,0-6.35,2.64c-.91.52-1.73,2-2.44,4.39a22.6,22.6,0,0,0-1.08,6.35l-5.08,46.88q-2.92,27.35-5.56,53.8t-2.64,52.25c0,2.34.2,5.7.59,10.06s.84,8.69,1.36,13,1,8.07,1.37,11.32.59,5,.59,5.28a33.09,33.09,0,0,1-1.47,9.57,30.26,30.26,0,0,1-4.2,8.79,22.42,22.42,0,0,1-6.74,6.35,17.15,17.15,0,0,1-9.08,2.44,17.35,17.35,0,0,1-7-1.66,33.43,33.43,0,0,1-7.23-4.5,34.21,34.21,0,0,1-10.54-14.74,60.15,60.15,0,0,1-2.74-11.33q-1-6.45-1.56-13.18t-.78-13.28q-.2-6.56-.2-11.82,0-8.79,1-22.17t2.44-28.71q1.47-15.33,3.23-31.25t3.41-29.88q1.67-14,2.93-24.32t1.66-14.65a146,146,0,0,0-15.82,1.08q-9.57,1.06-20.7,2.44-14.07,1.75-28.91,3.32a269.52,269.52,0,0,1-28.12,1.56q-2.74,0-7.62-.49a47.53,47.53,0,0,1-9.57-1.95,27,27,0,0,1-8.2-4.1,8.26,8.26,0,0,1-3.52-6.94c-.26-1-.42-1.72-.49-2.05a18.73,18.73,0,0,1-.09-2.44,34.9,34.9,0,0,1,.58-6.44,17.67,17.67,0,0,1,2.15-5.77,14,14,0,0,1,4.59-4.58,25.76,25.76,0,0,1,7.72-3.13,183,183,0,0,1,24.41-4.2,248.31,248.31,0,0,1,27-1.46q2.54,0,9.47-.79t16.22-1.95q9.27-1.17,19.92-2.64t20.31-2.83q9.67-1.36,17.29-2.54t11.13-1.75q12.69-2.35,25.39-5.08t25.39-5.28q12.69-2.53,25.29-4.19a189.9,189.9,0,0,1,24.9-1.66c1,0,2.74,0,5.08.09s5,.23,8,.49,6.15.65,9.47,1.17a62.57,62.57,0,0,1,9.28,2.15,13.65,13.65,0,0,1,5.86,3.52,28.5,28.5,0,0,1,4.39,5.66,31.08,31.08,0,0,1,2.84,6.15A17,17,0,0,1,1670.7,384.34Z"/><text class="cls-7" transform="translate(209.77 639.81)">S<tspan class="cls-5" x="244.73" y="0">T</tspan><tspan x="464.84" y="0">ART</tspan></text></svg>